G04 EAGLE Gerber RS-274X export*
G75*
%MOMM*%
%FSLAX34Y34*%
%LPD*%
%INSilkscreen Bottom*%
%IPPOS*%
%AMOC8*
5,1,8,0,0,1.08239X$1,22.5*%
G01*
%ADD10C,0.127000*%
%ADD11C,0.203200*%
%ADD12C,0.812219*%
%ADD13C,0.152400*%


D10*
X277300Y256200D02*
X277300Y103800D01*
X302700Y103800D01*
X302700Y256200D01*
X277300Y256200D01*
D11*
X643032Y289000D02*
X756968Y289000D01*
X756968Y205600D01*
X643032Y205600D01*
X643032Y289000D01*
D12*
X649200Y282700D03*
D11*
X643032Y439000D02*
X756968Y439000D01*
X756968Y355600D01*
X643032Y355600D01*
X643032Y439000D01*
D12*
X649200Y432700D03*
D11*
X216968Y391000D02*
X103032Y391000D01*
X103032Y474400D01*
X216968Y474400D01*
X216968Y391000D01*
D12*
X210800Y397300D03*
D11*
X253032Y311000D02*
X366968Y311000D01*
X253032Y311000D02*
X253032Y394400D01*
X366968Y394400D01*
X366968Y311000D01*
D12*
X360800Y317300D03*
D13*
X1270870Y71000D02*
X1319130Y71000D01*
X1319288Y71002D01*
X1319447Y71008D01*
X1319605Y71018D01*
X1319762Y71032D01*
X1319920Y71049D01*
X1320076Y71071D01*
X1320233Y71096D01*
X1320388Y71126D01*
X1320543Y71159D01*
X1320697Y71196D01*
X1320850Y71237D01*
X1321002Y71282D01*
X1321152Y71331D01*
X1321302Y71383D01*
X1321450Y71439D01*
X1321597Y71499D01*
X1321742Y71562D01*
X1321885Y71629D01*
X1322027Y71699D01*
X1322167Y71773D01*
X1322305Y71851D01*
X1322441Y71932D01*
X1322575Y72016D01*
X1322707Y72103D01*
X1322837Y72194D01*
X1322964Y72288D01*
X1323089Y72385D01*
X1323212Y72486D01*
X1323332Y72589D01*
X1323449Y72695D01*
X1323564Y72804D01*
X1323676Y72916D01*
X1323785Y73031D01*
X1323891Y73148D01*
X1323994Y73268D01*
X1324095Y73391D01*
X1324192Y73516D01*
X1324286Y73643D01*
X1324377Y73773D01*
X1324464Y73905D01*
X1324548Y74039D01*
X1324629Y74175D01*
X1324707Y74313D01*
X1324781Y74453D01*
X1324851Y74595D01*
X1324918Y74738D01*
X1324981Y74883D01*
X1325041Y75030D01*
X1325097Y75178D01*
X1325149Y75328D01*
X1325198Y75478D01*
X1325243Y75630D01*
X1325284Y75783D01*
X1325321Y75937D01*
X1325354Y76092D01*
X1325384Y76247D01*
X1325409Y76404D01*
X1325431Y76560D01*
X1325448Y76718D01*
X1325462Y76875D01*
X1325472Y77033D01*
X1325478Y77192D01*
X1325480Y77350D01*
X1270870Y71000D02*
X1270712Y71002D01*
X1270553Y71008D01*
X1270395Y71018D01*
X1270238Y71032D01*
X1270080Y71049D01*
X1269924Y71071D01*
X1269767Y71096D01*
X1269612Y71126D01*
X1269457Y71159D01*
X1269303Y71196D01*
X1269150Y71237D01*
X1268998Y71282D01*
X1268848Y71331D01*
X1268698Y71383D01*
X1268550Y71439D01*
X1268403Y71499D01*
X1268258Y71562D01*
X1268115Y71629D01*
X1267973Y71699D01*
X1267833Y71773D01*
X1267695Y71851D01*
X1267559Y71932D01*
X1267425Y72016D01*
X1267293Y72103D01*
X1267163Y72194D01*
X1267036Y72288D01*
X1266911Y72385D01*
X1266788Y72486D01*
X1266668Y72589D01*
X1266551Y72695D01*
X1266436Y72804D01*
X1266324Y72916D01*
X1266215Y73031D01*
X1266109Y73148D01*
X1266006Y73268D01*
X1265905Y73391D01*
X1265808Y73516D01*
X1265714Y73643D01*
X1265623Y73773D01*
X1265536Y73905D01*
X1265452Y74039D01*
X1265371Y74175D01*
X1265293Y74313D01*
X1265219Y74453D01*
X1265149Y74595D01*
X1265082Y74738D01*
X1265019Y74883D01*
X1264959Y75030D01*
X1264903Y75178D01*
X1264851Y75328D01*
X1264802Y75478D01*
X1264757Y75630D01*
X1264716Y75783D01*
X1264679Y75937D01*
X1264646Y76092D01*
X1264616Y76247D01*
X1264591Y76404D01*
X1264569Y76560D01*
X1264552Y76718D01*
X1264538Y76875D01*
X1264528Y77033D01*
X1264522Y77192D01*
X1264520Y77350D01*
X1325480Y77350D02*
X1325480Y572650D01*
X1319130Y579000D02*
X1270870Y579000D01*
X1264520Y572650D02*
X1264520Y77350D01*
X1325480Y572650D02*
X1325478Y572808D01*
X1325472Y572967D01*
X1325462Y573125D01*
X1325448Y573282D01*
X1325431Y573440D01*
X1325409Y573596D01*
X1325384Y573753D01*
X1325354Y573908D01*
X1325321Y574063D01*
X1325284Y574217D01*
X1325243Y574370D01*
X1325198Y574522D01*
X1325149Y574672D01*
X1325097Y574822D01*
X1325041Y574970D01*
X1324981Y575117D01*
X1324918Y575262D01*
X1324851Y575405D01*
X1324781Y575547D01*
X1324707Y575687D01*
X1324629Y575825D01*
X1324548Y575961D01*
X1324464Y576095D01*
X1324377Y576227D01*
X1324286Y576357D01*
X1324192Y576484D01*
X1324095Y576609D01*
X1323994Y576732D01*
X1323891Y576852D01*
X1323785Y576969D01*
X1323676Y577084D01*
X1323564Y577196D01*
X1323449Y577305D01*
X1323332Y577411D01*
X1323212Y577514D01*
X1323089Y577615D01*
X1322964Y577712D01*
X1322837Y577806D01*
X1322707Y577897D01*
X1322575Y577984D01*
X1322441Y578068D01*
X1322305Y578149D01*
X1322167Y578227D01*
X1322027Y578301D01*
X1321885Y578371D01*
X1321742Y578438D01*
X1321597Y578501D01*
X1321450Y578561D01*
X1321302Y578617D01*
X1321152Y578669D01*
X1321002Y578718D01*
X1320850Y578763D01*
X1320697Y578804D01*
X1320543Y578841D01*
X1320388Y578874D01*
X1320233Y578904D01*
X1320076Y578929D01*
X1319920Y578951D01*
X1319762Y578968D01*
X1319605Y578982D01*
X1319447Y578992D01*
X1319288Y578998D01*
X1319130Y579000D01*
X1270870Y579000D02*
X1270712Y578998D01*
X1270553Y578992D01*
X1270395Y578982D01*
X1270238Y578968D01*
X1270080Y578951D01*
X1269924Y578929D01*
X1269767Y578904D01*
X1269612Y578874D01*
X1269457Y578841D01*
X1269303Y578804D01*
X1269150Y578763D01*
X1268998Y578718D01*
X1268848Y578669D01*
X1268698Y578617D01*
X1268550Y578561D01*
X1268403Y578501D01*
X1268258Y578438D01*
X1268115Y578371D01*
X1267973Y578301D01*
X1267833Y578227D01*
X1267695Y578149D01*
X1267559Y578068D01*
X1267425Y577984D01*
X1267293Y577897D01*
X1267163Y577806D01*
X1267036Y577712D01*
X1266911Y577615D01*
X1266788Y577514D01*
X1266668Y577411D01*
X1266551Y577305D01*
X1266436Y577196D01*
X1266324Y577084D01*
X1266215Y576969D01*
X1266109Y576852D01*
X1266006Y576732D01*
X1265905Y576609D01*
X1265808Y576484D01*
X1265714Y576357D01*
X1265623Y576227D01*
X1265536Y576095D01*
X1265452Y575961D01*
X1265371Y575825D01*
X1265293Y575687D01*
X1265219Y575547D01*
X1265149Y575405D01*
X1265082Y575262D01*
X1265019Y575117D01*
X1264959Y574970D01*
X1264903Y574822D01*
X1264851Y574672D01*
X1264802Y574522D01*
X1264757Y574370D01*
X1264716Y574217D01*
X1264679Y574063D01*
X1264646Y573908D01*
X1264616Y573753D01*
X1264591Y573596D01*
X1264569Y573440D01*
X1264552Y573282D01*
X1264538Y573125D01*
X1264528Y572967D01*
X1264522Y572808D01*
X1264520Y572650D01*
D10*
X1341355Y83700D02*
X1338815Y80525D01*
X1341355Y83700D02*
X1329925Y83700D01*
X1329925Y80525D02*
X1329925Y86875D01*
X1251185Y558045D02*
X1260075Y560585D01*
X1251185Y558045D02*
X1251185Y564395D01*
X1253725Y562490D02*
X1248645Y562490D01*
X1254360Y569475D02*
X1254585Y569478D01*
X1254810Y569486D01*
X1255034Y569499D01*
X1255258Y569518D01*
X1255482Y569542D01*
X1255705Y569571D01*
X1255927Y569606D01*
X1256148Y569646D01*
X1256368Y569692D01*
X1256587Y569742D01*
X1256805Y569798D01*
X1257022Y569859D01*
X1257237Y569925D01*
X1257450Y569996D01*
X1257661Y570073D01*
X1257871Y570154D01*
X1258079Y570240D01*
X1258284Y570331D01*
X1258487Y570427D01*
X1258488Y570427D02*
X1258576Y570459D01*
X1258663Y570495D01*
X1258749Y570534D01*
X1258833Y570577D01*
X1258915Y570623D01*
X1258995Y570672D01*
X1259073Y570724D01*
X1259149Y570780D01*
X1259223Y570838D01*
X1259294Y570900D01*
X1259363Y570964D01*
X1259429Y571031D01*
X1259492Y571100D01*
X1259553Y571172D01*
X1259611Y571246D01*
X1259665Y571323D01*
X1259717Y571401D01*
X1259765Y571482D01*
X1259810Y571564D01*
X1259852Y571649D01*
X1259890Y571735D01*
X1259925Y571822D01*
X1259957Y571910D01*
X1259984Y572000D01*
X1260009Y572091D01*
X1260029Y572183D01*
X1260046Y572275D01*
X1260059Y572369D01*
X1260068Y572462D01*
X1260074Y572556D01*
X1260076Y572650D01*
X1260074Y572744D01*
X1260068Y572838D01*
X1260059Y572931D01*
X1260046Y573025D01*
X1260029Y573117D01*
X1260009Y573209D01*
X1259984Y573300D01*
X1259957Y573390D01*
X1259925Y573478D01*
X1259890Y573565D01*
X1259852Y573651D01*
X1259810Y573736D01*
X1259765Y573818D01*
X1259717Y573899D01*
X1259665Y573977D01*
X1259611Y574054D01*
X1259553Y574128D01*
X1259492Y574200D01*
X1259429Y574269D01*
X1259363Y574336D01*
X1259294Y574400D01*
X1259223Y574462D01*
X1259149Y574520D01*
X1259073Y574576D01*
X1258995Y574628D01*
X1258915Y574677D01*
X1258833Y574723D01*
X1258749Y574766D01*
X1258663Y574805D01*
X1258576Y574841D01*
X1258488Y574873D01*
X1258487Y574873D02*
X1258284Y574969D01*
X1258079Y575060D01*
X1257871Y575146D01*
X1257661Y575227D01*
X1257450Y575304D01*
X1257237Y575375D01*
X1257022Y575441D01*
X1256805Y575502D01*
X1256587Y575558D01*
X1256368Y575608D01*
X1256148Y575654D01*
X1255927Y575694D01*
X1255705Y575729D01*
X1255482Y575758D01*
X1255258Y575782D01*
X1255034Y575801D01*
X1254810Y575814D01*
X1254585Y575822D01*
X1254360Y575825D01*
X1254360Y569475D02*
X1254135Y569478D01*
X1253910Y569486D01*
X1253686Y569499D01*
X1253462Y569518D01*
X1253238Y569542D01*
X1253015Y569571D01*
X1252793Y569606D01*
X1252572Y569646D01*
X1252352Y569692D01*
X1252133Y569742D01*
X1251915Y569798D01*
X1251698Y569859D01*
X1251483Y569925D01*
X1251270Y569996D01*
X1251059Y570073D01*
X1250849Y570154D01*
X1250641Y570240D01*
X1250436Y570331D01*
X1250233Y570427D01*
X1250145Y570459D01*
X1250058Y570495D01*
X1249972Y570534D01*
X1249888Y570577D01*
X1249806Y570623D01*
X1249726Y570672D01*
X1249648Y570724D01*
X1249572Y570780D01*
X1249498Y570838D01*
X1249427Y570900D01*
X1249358Y570964D01*
X1249292Y571031D01*
X1249229Y571100D01*
X1249168Y571172D01*
X1249110Y571246D01*
X1249056Y571323D01*
X1249004Y571401D01*
X1248956Y571482D01*
X1248911Y571564D01*
X1248869Y571649D01*
X1248831Y571735D01*
X1248796Y571822D01*
X1248764Y571910D01*
X1248737Y572000D01*
X1248712Y572091D01*
X1248692Y572183D01*
X1248675Y572275D01*
X1248662Y572369D01*
X1248653Y572462D01*
X1248647Y572556D01*
X1248645Y572650D01*
X1250233Y574873D02*
X1250436Y574969D01*
X1250641Y575060D01*
X1250849Y575146D01*
X1251059Y575227D01*
X1251270Y575304D01*
X1251483Y575375D01*
X1251698Y575441D01*
X1251915Y575502D01*
X1252133Y575558D01*
X1252352Y575608D01*
X1252572Y575654D01*
X1252793Y575694D01*
X1253015Y575729D01*
X1253238Y575758D01*
X1253462Y575782D01*
X1253686Y575801D01*
X1253910Y575814D01*
X1254135Y575822D01*
X1254360Y575825D01*
X1250233Y574873D02*
X1250145Y574841D01*
X1250058Y574805D01*
X1249972Y574766D01*
X1249888Y574723D01*
X1249806Y574677D01*
X1249726Y574628D01*
X1249648Y574576D01*
X1249572Y574520D01*
X1249498Y574462D01*
X1249427Y574400D01*
X1249358Y574336D01*
X1249292Y574269D01*
X1249229Y574200D01*
X1249168Y574128D01*
X1249110Y574054D01*
X1249056Y573977D01*
X1249004Y573899D01*
X1248956Y573818D01*
X1248911Y573736D01*
X1248869Y573651D01*
X1248831Y573565D01*
X1248796Y573478D01*
X1248764Y573390D01*
X1248737Y573300D01*
X1248712Y573209D01*
X1248692Y573117D01*
X1248675Y573025D01*
X1248662Y572931D01*
X1248653Y572838D01*
X1248647Y572744D01*
X1248645Y572650D01*
X1251185Y570110D02*
X1257535Y575190D01*
M02*
