G04 EAGLE Gerber RS-274X export*
G75*
%MOMM*%
%FSLAX34Y34*%
%LPD*%
%INSoldermask Top*%
%IPPOS*%
%AMOC8*
5,1,8,0,0,1.08239X$1,22.5*%
G01*
%ADD10C,3.350000*%
%ADD11C,1.515200*%
%ADD12C,1.650000*%
%ADD13R,1.450000X1.450000*%
%ADD14C,1.450000*%
%ADD15R,0.750000X1.850000*%
%ADD16R,1.150000X2.950000*%
%ADD17C,1.550000*%
%ADD18P,1.976877X8X202.500000*%
%ADD19C,1.350000*%
%ADD20R,1.750000X1.953000*%
%ADD21R,1.450000X1.650000*%
%ADD22C,1.566000*%
%ADD23R,1.850000X0.750000*%
%ADD24R,2.950000X1.150000*%
%ADD25C,2.182000*%
%ADD26C,6.150000*%
%ADD27R,4.950000X4.870000*%
%ADD28R,1.550000X1.420000*%
%ADD29C,1.826400*%
%ADD30R,1.650000X1.450000*%
%ADD31R,1.318400X1.750200*%
%ADD32P,1.894399X8X112.500000*%
%ADD33C,1.750200*%
%ADD34R,1.550000X1.150000*%
%ADD35R,1.150000X1.550000*%
%ADD36P,1.894399X8X202.500000*%
%ADD37P,1.894399X8X292.500000*%
%ADD38R,1.750000X2.850000*%
%ADD39P,1.475081X8X202.500000*%
%ADD40P,2.499239X8X22.500000*%
%ADD41R,1.550000X2.250000*%
%ADD42R,1.953000X1.750000*%
%ADD43C,1.464400*%
%ADD44P,1.585052X8X112.500000*%
%ADD45R,1.350000X1.350000*%
%ADD46P,1.894399X8X22.500000*%
%ADD47R,2.850000X1.750000*%
%ADD48R,5.450000X2.150000*%
%ADD49C,2.450000*%
%ADD50R,2.550000X2.550000*%
%ADD51R,0.152400X1.828800*%
%ADD52R,4.110000X4.110000*%
%ADD53P,5.574308X8X22.500000*%


D10*
X310000Y40000D03*
D11*
X1217100Y486200D03*
X1191700Y486200D03*
X1166300Y486200D03*
X1140900Y486200D03*
X1115500Y486200D03*
X1090100Y486200D03*
X1064700Y486200D03*
X1039300Y486200D03*
X1013900Y486200D03*
X988500Y486200D03*
X963100Y486200D03*
X937700Y486200D03*
X912300Y486200D03*
X886900Y486200D03*
X836100Y486200D03*
X810700Y486200D03*
X785300Y486200D03*
X759900Y486200D03*
X886900Y333800D03*
X912300Y333800D03*
X937700Y333800D03*
X963100Y333800D03*
X988500Y333800D03*
X1013900Y333800D03*
X1039300Y333800D03*
X1064700Y333800D03*
X1090100Y333800D03*
X1115500Y333800D03*
X1140900Y333800D03*
X1166300Y333800D03*
X1191700Y333800D03*
X1217100Y333800D03*
X861500Y486200D03*
X759900Y333800D03*
X785300Y333800D03*
X810700Y333800D03*
X836100Y333800D03*
X861500Y333800D03*
X734500Y486200D03*
X709100Y486200D03*
X683700Y486200D03*
X658300Y486200D03*
X632900Y486200D03*
X632900Y333800D03*
X734500Y333800D03*
X709100Y333800D03*
X683700Y333800D03*
X658300Y333800D03*
D12*
X1204400Y422700D02*
X1219400Y422700D01*
X1219400Y397300D02*
X1204400Y397300D01*
D13*
X331600Y520000D03*
D14*
X331600Y545400D03*
D13*
X128400Y520000D03*
D14*
X331600Y647000D03*
X128400Y647000D03*
X331600Y570800D03*
X128400Y596200D03*
X128400Y621600D03*
X331600Y596200D03*
X331600Y621600D03*
X128400Y545400D03*
X128400Y570800D03*
D15*
X418750Y25000D03*
X406250Y25000D03*
D16*
X362750Y58500D03*
X437250Y58500D03*
D15*
X393750Y25000D03*
X381250Y25000D03*
X1008750Y25000D03*
X996250Y25000D03*
D16*
X952750Y58500D03*
X1027250Y58500D03*
D15*
X983750Y25000D03*
X971250Y25000D03*
X832500Y25000D03*
X820000Y25000D03*
D16*
X789000Y58500D03*
X851000Y58500D03*
D15*
X807500Y25000D03*
D17*
X690000Y93000D02*
X690000Y107000D01*
X664600Y107000D02*
X664600Y93000D01*
X715400Y93000D02*
X715400Y107000D01*
X147000Y140000D02*
X133000Y140000D01*
X133000Y114600D02*
X147000Y114600D01*
X147000Y165400D02*
X133000Y165400D01*
D18*
X590000Y100000D03*
X570000Y100000D03*
X550000Y100000D03*
X530000Y100000D03*
X610000Y100000D03*
X510000Y100000D03*
D19*
X588900Y473500D03*
X563500Y473500D03*
X538100Y473500D03*
X512700Y473500D03*
X487300Y473500D03*
X461900Y473500D03*
X436500Y473500D03*
X411100Y473500D03*
X588900Y346500D03*
X563500Y346500D03*
X538100Y346500D03*
X512700Y346500D03*
X487300Y346500D03*
X461900Y346500D03*
X436500Y346500D03*
X411100Y346500D03*
D12*
X1035400Y742500D02*
X1035400Y757500D01*
X1010000Y757500D02*
X1010000Y742500D01*
X984600Y742500D02*
X984600Y757500D01*
D20*
X915780Y760000D03*
X944220Y760000D03*
X1104220Y760000D03*
X1075780Y760000D03*
D21*
X920500Y730000D03*
X939500Y730000D03*
X1080500Y730000D03*
X1099500Y730000D03*
D22*
X925400Y195180D02*
X925400Y181020D01*
X900000Y181020D02*
X900000Y195180D01*
X874600Y195180D02*
X874600Y181020D01*
D23*
X1095000Y213750D03*
X1095000Y201250D03*
D24*
X1061500Y107750D03*
X1061500Y232250D03*
D23*
X1095000Y188750D03*
X1095000Y176250D03*
X1095000Y163750D03*
X1095000Y151250D03*
X1095000Y138750D03*
X1095000Y126250D03*
D15*
X425000Y125000D03*
X412500Y125000D03*
D16*
X356500Y158500D03*
X443500Y158500D03*
D15*
X400000Y125000D03*
X387500Y125000D03*
X375000Y125000D03*
D23*
X120000Y225000D03*
X120000Y237500D03*
D24*
X153500Y293500D03*
X153500Y206500D03*
D23*
X120000Y250000D03*
X120000Y262500D03*
X120000Y275000D03*
D19*
X990000Y120000D03*
X1010000Y120000D03*
X970000Y120000D03*
D15*
X702500Y155000D03*
X690000Y155000D03*
D16*
X659000Y188500D03*
X721000Y188500D03*
D15*
X677500Y155000D03*
D25*
X399100Y754300D03*
X830900Y754300D03*
X399100Y525700D03*
X830900Y525700D03*
D19*
X576900Y754300D03*
X602300Y754300D03*
X627700Y754300D03*
X653100Y754300D03*
D26*
X230000Y136250D03*
X230000Y63750D03*
D15*
X603750Y155000D03*
X591250Y155000D03*
D16*
X497750Y188500D03*
X622250Y188500D03*
D15*
X578750Y155000D03*
X566250Y155000D03*
X553750Y155000D03*
X541250Y155000D03*
X528750Y155000D03*
X516250Y155000D03*
D27*
X330000Y248100D03*
D28*
X319600Y210000D03*
X340400Y210000D03*
D17*
X290000Y212400D02*
X290000Y198400D01*
X290000Y161600D02*
X290000Y147600D01*
D29*
X674600Y270000D03*
X700000Y270000D03*
X725400Y270000D03*
X674600Y420000D03*
X700000Y420000D03*
X725400Y420000D03*
X185400Y410000D03*
X160000Y410000D03*
X134600Y410000D03*
X335400Y330000D03*
X310000Y330000D03*
X284600Y330000D03*
D30*
X100000Y619500D03*
X100000Y600500D03*
D31*
X325240Y300000D03*
X310000Y300000D03*
X294760Y300000D03*
D32*
X70000Y457780D03*
D33*
X70000Y422220D03*
D34*
X1129000Y440000D03*
X1151000Y449500D03*
X1151000Y430500D03*
D30*
X1170000Y430500D03*
X1170000Y449500D03*
D21*
X1149500Y410000D03*
X1130500Y410000D03*
D35*
X80000Y299000D03*
X70500Y321000D03*
X89500Y321000D03*
D21*
X89500Y340000D03*
X70500Y340000D03*
D30*
X80000Y260500D03*
X80000Y279500D03*
D34*
X399000Y200000D03*
X421000Y209500D03*
X421000Y190500D03*
D30*
X440000Y190500D03*
X440000Y209500D03*
X466000Y176500D03*
X466000Y195500D03*
D35*
X900000Y631000D03*
X909500Y609000D03*
X890500Y609000D03*
D21*
X890500Y590000D03*
X909500Y590000D03*
X909500Y650000D03*
X890500Y650000D03*
D35*
X950000Y631000D03*
X959500Y609000D03*
X940500Y609000D03*
D21*
X940500Y590000D03*
X959500Y590000D03*
X940500Y650000D03*
X959500Y650000D03*
D36*
X562220Y290000D03*
D33*
X597780Y290000D03*
D35*
X1010000Y169000D03*
X1000500Y191000D03*
X1019500Y191000D03*
D37*
X780000Y252220D03*
D33*
X780000Y287780D03*
D21*
X1019500Y210000D03*
X1000500Y210000D03*
X1000500Y230000D03*
X1019500Y230000D03*
D35*
X970000Y169000D03*
X960500Y191000D03*
X979500Y191000D03*
D21*
X979500Y210000D03*
X960500Y210000D03*
X960500Y230000D03*
X979500Y230000D03*
D38*
X676000Y240000D03*
X704000Y240000D03*
X676000Y300000D03*
X704000Y300000D03*
X676000Y390000D03*
X704000Y390000D03*
X676000Y450000D03*
X704000Y450000D03*
X184000Y380000D03*
X156000Y380000D03*
X184000Y350000D03*
X156000Y350000D03*
X334000Y360000D03*
X306000Y360000D03*
X334000Y390000D03*
X306000Y390000D03*
D39*
X1022700Y660000D03*
X997300Y660000D03*
X1022700Y580000D03*
X997300Y580000D03*
D21*
X1069500Y660000D03*
X1050500Y660000D03*
X1069500Y580000D03*
X1050500Y580000D03*
D34*
X899000Y230000D03*
X921000Y239500D03*
X921000Y220500D03*
D30*
X940000Y220500D03*
X940000Y239500D03*
X880000Y239500D03*
X880000Y220500D03*
D22*
X1205400Y692920D02*
X1205400Y707080D01*
X1180000Y707080D02*
X1180000Y692920D01*
X1154600Y692920D02*
X1154600Y707080D01*
X1157080Y640800D02*
X1142920Y640800D01*
X1142920Y615400D02*
X1157080Y615400D01*
X1157080Y590000D02*
X1142920Y590000D01*
X1142920Y564600D02*
X1157080Y564600D01*
X1157080Y539200D02*
X1142920Y539200D01*
X157300Y326080D02*
X157300Y311920D01*
X182700Y311920D02*
X182700Y326080D01*
X847300Y287080D02*
X847300Y272920D01*
X872700Y272920D02*
X872700Y287080D01*
X267080Y275400D02*
X252920Y275400D01*
X252920Y250000D02*
X267080Y250000D01*
X267080Y224600D02*
X252920Y224600D01*
D40*
X400000Y230000D03*
X50000Y280000D03*
X760000Y100000D03*
D35*
X1190000Y244000D03*
X1180500Y266000D03*
X1199500Y266000D03*
D21*
X1199500Y285000D03*
X1180500Y285000D03*
X1180500Y305000D03*
X1199500Y305000D03*
D19*
X1170000Y210000D03*
X1190000Y210000D03*
X1150000Y210000D03*
D35*
X1150000Y244000D03*
X1140500Y266000D03*
X1159500Y266000D03*
D21*
X1159500Y285000D03*
X1140500Y285000D03*
X1140500Y305000D03*
X1159500Y305000D03*
D40*
X370000Y280000D03*
D41*
X1732500Y24500D03*
X1687500Y24500D03*
X1732500Y115500D03*
X1687500Y115500D03*
D30*
X1735000Y189500D03*
X1735000Y170500D03*
X1710000Y189500D03*
X1710000Y170500D03*
D42*
X1710000Y144220D03*
X1710000Y115780D03*
D43*
X1307700Y83700D03*
D44*
X1282300Y83700D03*
X1307700Y109100D03*
X1282300Y109100D03*
X1307700Y134500D03*
X1282300Y134500D03*
X1307700Y159900D03*
X1282300Y159900D03*
X1307700Y185300D03*
X1282300Y185300D03*
X1307700Y210700D03*
X1282300Y210700D03*
X1307700Y236100D03*
X1282300Y236100D03*
X1307700Y261500D03*
X1282300Y261500D03*
X1307700Y286900D03*
X1282300Y286900D03*
X1307700Y312300D03*
X1282300Y312300D03*
X1307700Y337700D03*
X1282300Y337700D03*
X1307700Y363100D03*
X1282300Y363100D03*
X1307700Y388500D03*
X1282300Y388500D03*
X1307700Y413900D03*
X1282300Y413900D03*
X1307700Y439300D03*
X1282300Y439300D03*
X1307700Y464700D03*
X1282300Y464700D03*
X1307700Y490100D03*
X1282300Y490100D03*
X1307700Y515500D03*
X1282300Y515500D03*
X1307700Y540900D03*
X1282300Y540900D03*
X1307700Y566300D03*
X1282300Y566300D03*
D22*
X1787520Y317500D02*
X1801680Y317500D01*
X1801680Y342900D02*
X1787520Y342900D01*
X1787520Y368300D02*
X1801680Y368300D01*
X1801680Y393700D02*
X1787520Y393700D01*
X1787520Y457200D02*
X1801680Y457200D01*
X1801680Y482600D02*
X1787520Y482600D01*
X1787520Y508000D02*
X1801680Y508000D01*
X1801680Y533400D02*
X1787520Y533400D01*
D45*
X1794600Y152400D03*
D19*
X1794600Y177800D03*
X1794600Y203200D03*
X1794600Y228600D03*
X1794600Y254000D03*
D22*
X1750880Y381000D02*
X1736720Y381000D01*
X1736720Y406400D02*
X1750880Y406400D01*
X1750880Y431800D02*
X1736720Y431800D01*
X1736720Y457200D02*
X1750880Y457200D01*
X1750880Y482600D02*
X1736720Y482600D01*
X1736720Y508000D02*
X1750880Y508000D01*
X1750880Y533400D02*
X1736720Y533400D01*
X1736720Y317500D02*
X1750880Y317500D01*
X1750880Y342900D02*
X1736720Y342900D01*
D30*
X1710000Y313000D03*
X1710000Y330000D03*
X1710000Y347000D03*
D22*
X1553300Y615220D02*
X1553300Y629380D01*
X1527900Y629380D02*
X1527900Y615220D01*
X1388200Y615220D02*
X1388200Y629380D01*
X1362800Y629380D02*
X1362800Y615220D01*
D29*
X1595400Y250000D03*
X1570000Y250000D03*
X1544600Y250000D03*
X1435400Y250000D03*
X1410000Y250000D03*
X1384600Y250000D03*
D46*
X1577780Y340000D03*
D33*
X1542220Y340000D03*
D46*
X1417780Y340000D03*
D33*
X1382220Y340000D03*
D47*
X1655000Y326000D03*
X1655000Y354000D03*
X1460000Y326000D03*
X1460000Y354000D03*
X1620000Y326000D03*
X1620000Y354000D03*
X1495000Y326000D03*
X1495000Y354000D03*
D20*
X1559220Y150000D03*
X1530780Y150000D03*
X1399220Y150000D03*
X1370780Y150000D03*
D21*
X1554500Y170000D03*
X1535500Y170000D03*
X1394500Y170000D03*
X1375500Y170000D03*
D48*
X1540000Y497000D03*
X1540000Y563000D03*
X1380000Y497000D03*
X1380000Y563000D03*
D49*
X1617000Y115300D03*
X1570000Y115300D03*
X1523000Y115300D03*
X1636050Y20000D03*
X1503950Y20000D03*
X1457000Y115300D03*
X1410000Y115300D03*
X1363000Y115300D03*
X1476050Y20000D03*
X1343950Y20000D03*
D50*
X1540000Y428000D03*
X1540000Y472000D03*
X1380000Y428000D03*
X1380000Y472000D03*
D31*
X1587380Y140000D03*
X1602620Y140000D03*
D51*
X1595000Y140000D03*
D31*
X1427380Y140000D03*
X1442620Y140000D03*
D51*
X1435000Y140000D03*
D22*
X1616800Y615220D02*
X1616800Y629380D01*
X1591400Y629380D02*
X1591400Y615220D01*
X1451700Y615220D02*
X1451700Y629380D01*
X1426300Y629380D02*
X1426300Y615220D01*
D52*
X35000Y750000D03*
X1195000Y750000D03*
X25000Y110000D03*
X1205000Y110000D03*
D53*
X1295000Y35000D03*
X1295000Y615000D03*
X1785000Y615000D03*
X1785000Y35000D03*
M02*
