G04 EAGLE Gerber RS-274X export*
G75*
%MOMM*%
%FSLAX34Y34*%
%LPD*%
%IN*%
%IPPOS*%
%AMOC8*
5,1,8,0,0,1.08239X$1,22.5*%
G01*
%ADD10C,0.254000*%


D10*
X0Y85000D02*
X175000Y85000D01*
X175000Y0D01*
X515000Y0D01*
X515000Y60000D01*
X715000Y60000D01*
X715000Y0D01*
X1055000Y0D01*
X1055000Y85000D01*
X1230000Y85000D01*
X1230000Y780000D01*
X0Y780000D01*
X0Y85000D01*
X326000Y39476D02*
X325932Y38431D01*
X325795Y37392D01*
X325590Y36365D01*
X325319Y35353D01*
X324983Y34361D01*
X324582Y33393D01*
X324118Y32454D01*
X323595Y31546D01*
X323013Y30675D01*
X322375Y29844D01*
X321684Y29057D01*
X320943Y28316D01*
X320156Y27625D01*
X319325Y26988D01*
X318454Y26406D01*
X317546Y25882D01*
X316607Y25418D01*
X315639Y25017D01*
X314647Y24681D01*
X313635Y24410D01*
X312608Y24205D01*
X311569Y24069D01*
X310524Y24000D01*
X309476Y24000D01*
X308431Y24069D01*
X307392Y24205D01*
X306365Y24410D01*
X305353Y24681D01*
X304361Y25017D01*
X303393Y25418D01*
X302454Y25882D01*
X301546Y26406D01*
X300675Y26988D01*
X299844Y27625D01*
X299057Y28316D01*
X298316Y29057D01*
X297625Y29844D01*
X296988Y30675D01*
X296406Y31546D01*
X295882Y32454D01*
X295418Y33393D01*
X295017Y34361D01*
X294681Y35353D01*
X294410Y36365D01*
X294205Y37392D01*
X294069Y38431D01*
X294000Y39476D01*
X294000Y40524D01*
X294069Y41569D01*
X294205Y42608D01*
X294410Y43635D01*
X294681Y44647D01*
X295017Y45639D01*
X295418Y46607D01*
X295882Y47546D01*
X296406Y48454D01*
X296988Y49325D01*
X297625Y50156D01*
X298316Y50943D01*
X299057Y51684D01*
X299844Y52375D01*
X300675Y53013D01*
X301546Y53595D01*
X302454Y54118D01*
X303393Y54582D01*
X304361Y54983D01*
X305353Y55319D01*
X306365Y55590D01*
X307392Y55795D01*
X308431Y55932D01*
X309476Y56000D01*
X310524Y56000D01*
X311569Y55932D01*
X312608Y55795D01*
X313635Y55590D01*
X314647Y55319D01*
X315639Y54983D01*
X316607Y54582D01*
X317546Y54118D01*
X318454Y53595D01*
X319325Y53013D01*
X320156Y52375D01*
X320943Y51684D01*
X321684Y50943D01*
X322375Y50156D01*
X323013Y49325D01*
X323595Y48454D01*
X324118Y47546D01*
X324582Y46607D01*
X324983Y45639D01*
X325319Y44647D01*
X325590Y43635D01*
X325795Y42608D01*
X325932Y41569D01*
X326000Y40524D01*
X326000Y39476D01*
X409260Y753856D02*
X409183Y752973D01*
X409029Y752099D01*
X408799Y751242D01*
X408496Y750408D01*
X408121Y749604D01*
X407677Y748836D01*
X407168Y748109D01*
X406598Y747429D01*
X405971Y746802D01*
X405291Y746232D01*
X404564Y745723D01*
X403796Y745279D01*
X402992Y744904D01*
X402158Y744601D01*
X401301Y744371D01*
X400427Y744217D01*
X399544Y744140D01*
X398656Y744140D01*
X397773Y744217D01*
X396899Y744371D01*
X396042Y744601D01*
X395208Y744904D01*
X394404Y745279D01*
X393636Y745723D01*
X392909Y746232D01*
X392229Y746802D01*
X391602Y747429D01*
X391032Y748109D01*
X390523Y748836D01*
X390079Y749604D01*
X389704Y750408D01*
X389401Y751242D01*
X389171Y752099D01*
X389017Y752973D01*
X388940Y753856D01*
X388940Y754744D01*
X389017Y755627D01*
X389171Y756501D01*
X389401Y757358D01*
X389704Y758192D01*
X390079Y758996D01*
X390523Y759764D01*
X391032Y760491D01*
X391602Y761171D01*
X392229Y761798D01*
X392909Y762368D01*
X393636Y762877D01*
X394404Y763321D01*
X395208Y763696D01*
X396042Y763999D01*
X396899Y764229D01*
X397773Y764383D01*
X398656Y764460D01*
X399544Y764460D01*
X400427Y764383D01*
X401301Y764229D01*
X402158Y763999D01*
X402992Y763696D01*
X403796Y763321D01*
X404564Y762877D01*
X405291Y762368D01*
X405971Y761798D01*
X406598Y761171D01*
X407168Y760491D01*
X407677Y759764D01*
X408121Y758996D01*
X408496Y758192D01*
X408799Y757358D01*
X409029Y756501D01*
X409183Y755627D01*
X409260Y754744D01*
X409260Y753856D01*
X841060Y753856D02*
X840983Y752973D01*
X840829Y752099D01*
X840599Y751242D01*
X840296Y750408D01*
X839921Y749604D01*
X839477Y748836D01*
X838968Y748109D01*
X838398Y747429D01*
X837771Y746802D01*
X837091Y746232D01*
X836364Y745723D01*
X835596Y745279D01*
X834792Y744904D01*
X833958Y744601D01*
X833101Y744371D01*
X832227Y744217D01*
X831344Y744140D01*
X830456Y744140D01*
X829573Y744217D01*
X828699Y744371D01*
X827842Y744601D01*
X827008Y744904D01*
X826204Y745279D01*
X825436Y745723D01*
X824709Y746232D01*
X824029Y746802D01*
X823402Y747429D01*
X822832Y748109D01*
X822323Y748836D01*
X821879Y749604D01*
X821504Y750408D01*
X821201Y751242D01*
X820971Y752099D01*
X820817Y752973D01*
X820740Y753856D01*
X820740Y754744D01*
X820817Y755627D01*
X820971Y756501D01*
X821201Y757358D01*
X821504Y758192D01*
X821879Y758996D01*
X822323Y759764D01*
X822832Y760491D01*
X823402Y761171D01*
X824029Y761798D01*
X824709Y762368D01*
X825436Y762877D01*
X826204Y763321D01*
X827008Y763696D01*
X827842Y763999D01*
X828699Y764229D01*
X829573Y764383D01*
X830456Y764460D01*
X831344Y764460D01*
X832227Y764383D01*
X833101Y764229D01*
X833958Y763999D01*
X834792Y763696D01*
X835596Y763321D01*
X836364Y762877D01*
X837091Y762368D01*
X837771Y761798D01*
X838398Y761171D01*
X838968Y760491D01*
X839477Y759764D01*
X839921Y758996D01*
X840296Y758192D01*
X840599Y757358D01*
X840829Y756501D01*
X840983Y755627D01*
X841060Y754744D01*
X841060Y753856D01*
X409260Y525256D02*
X409183Y524373D01*
X409029Y523499D01*
X408799Y522642D01*
X408496Y521808D01*
X408121Y521004D01*
X407677Y520236D01*
X407168Y519509D01*
X406598Y518829D01*
X405971Y518202D01*
X405291Y517632D01*
X404564Y517123D01*
X403796Y516679D01*
X402992Y516304D01*
X402158Y516001D01*
X401301Y515771D01*
X400427Y515617D01*
X399544Y515540D01*
X398656Y515540D01*
X397773Y515617D01*
X396899Y515771D01*
X396042Y516001D01*
X395208Y516304D01*
X394404Y516679D01*
X393636Y517123D01*
X392909Y517632D01*
X392229Y518202D01*
X391602Y518829D01*
X391032Y519509D01*
X390523Y520236D01*
X390079Y521004D01*
X389704Y521808D01*
X389401Y522642D01*
X389171Y523499D01*
X389017Y524373D01*
X388940Y525256D01*
X388940Y526144D01*
X389017Y527027D01*
X389171Y527901D01*
X389401Y528758D01*
X389704Y529592D01*
X390079Y530396D01*
X390523Y531164D01*
X391032Y531891D01*
X391602Y532571D01*
X392229Y533198D01*
X392909Y533768D01*
X393636Y534277D01*
X394404Y534721D01*
X395208Y535096D01*
X396042Y535399D01*
X396899Y535629D01*
X397773Y535783D01*
X398656Y535860D01*
X399544Y535860D01*
X400427Y535783D01*
X401301Y535629D01*
X402158Y535399D01*
X402992Y535096D01*
X403796Y534721D01*
X404564Y534277D01*
X405291Y533768D01*
X405971Y533198D01*
X406598Y532571D01*
X407168Y531891D01*
X407677Y531164D01*
X408121Y530396D01*
X408496Y529592D01*
X408799Y528758D01*
X409029Y527901D01*
X409183Y527027D01*
X409260Y526144D01*
X409260Y525256D01*
X841060Y525256D02*
X840983Y524373D01*
X840829Y523499D01*
X840599Y522642D01*
X840296Y521808D01*
X839921Y521004D01*
X839477Y520236D01*
X838968Y519509D01*
X838398Y518829D01*
X837771Y518202D01*
X837091Y517632D01*
X836364Y517123D01*
X835596Y516679D01*
X834792Y516304D01*
X833958Y516001D01*
X833101Y515771D01*
X832227Y515617D01*
X831344Y515540D01*
X830456Y515540D01*
X829573Y515617D01*
X828699Y515771D01*
X827842Y516001D01*
X827008Y516304D01*
X826204Y516679D01*
X825436Y517123D01*
X824709Y517632D01*
X824029Y518202D01*
X823402Y518829D01*
X822832Y519509D01*
X822323Y520236D01*
X821879Y521004D01*
X821504Y521808D01*
X821201Y522642D01*
X820971Y523499D01*
X820817Y524373D01*
X820740Y525256D01*
X820740Y526144D01*
X820817Y527027D01*
X820971Y527901D01*
X821201Y528758D01*
X821504Y529592D01*
X821879Y530396D01*
X822323Y531164D01*
X822832Y531891D01*
X823402Y532571D01*
X824029Y533198D01*
X824709Y533768D01*
X825436Y534277D01*
X826204Y534721D01*
X827008Y535096D01*
X827842Y535399D01*
X828699Y535629D01*
X829573Y535783D01*
X830456Y535860D01*
X831344Y535860D01*
X832227Y535783D01*
X833101Y535629D01*
X833958Y535399D01*
X834792Y535096D01*
X835596Y534721D01*
X836364Y534277D01*
X837091Y533768D01*
X837771Y533198D01*
X838398Y532571D01*
X838968Y531891D01*
X839477Y531164D01*
X839921Y530396D01*
X840296Y529592D01*
X840599Y528758D01*
X840829Y527901D01*
X840983Y527027D01*
X841060Y526144D01*
X841060Y525256D01*
M02*
