G04 EAGLE Gerber RS-274X export*
G75*
%MOMM*%
%FSLAX34Y34*%
%LPD*%
%IN*%
%IPPOS*%
%AMOC8*
5,1,8,0,0,1.08239X$1,22.5*%
G01*
%ADD10C,0.000000*%


D10*
X175000Y0D02*
X515000Y0D01*
X715000Y0D02*
X1055000Y0D01*
X1230000Y85000D02*
X1230000Y780000D01*
X0Y780000D01*
X0Y85000D01*
X175000Y85000D01*
X175000Y0D01*
X1055000Y0D02*
X1055000Y85000D01*
X1230000Y85000D01*
X515000Y60000D02*
X515000Y0D01*
X515000Y60000D02*
X715000Y60000D01*
X715000Y0D01*
X294000Y40000D02*
X294005Y40393D01*
X294019Y40785D01*
X294043Y41177D01*
X294077Y41568D01*
X294120Y41959D01*
X294173Y42348D01*
X294236Y42735D01*
X294307Y43121D01*
X294389Y43506D01*
X294479Y43888D01*
X294580Y44267D01*
X294689Y44645D01*
X294808Y45019D01*
X294935Y45390D01*
X295072Y45758D01*
X295218Y46123D01*
X295373Y46484D01*
X295536Y46841D01*
X295708Y47194D01*
X295889Y47542D01*
X296079Y47886D01*
X296276Y48226D01*
X296482Y48560D01*
X296696Y48889D01*
X296919Y49213D01*
X297149Y49531D01*
X297386Y49844D01*
X297632Y50150D01*
X297885Y50451D01*
X298145Y50745D01*
X298412Y51033D01*
X298686Y51314D01*
X298967Y51588D01*
X299255Y51855D01*
X299549Y52115D01*
X299850Y52368D01*
X300156Y52614D01*
X300469Y52851D01*
X300787Y53081D01*
X301111Y53304D01*
X301440Y53518D01*
X301774Y53724D01*
X302114Y53921D01*
X302458Y54111D01*
X302806Y54292D01*
X303159Y54464D01*
X303516Y54627D01*
X303877Y54782D01*
X304242Y54928D01*
X304610Y55065D01*
X304981Y55192D01*
X305355Y55311D01*
X305733Y55420D01*
X306112Y55521D01*
X306494Y55611D01*
X306879Y55693D01*
X307265Y55764D01*
X307652Y55827D01*
X308041Y55880D01*
X308432Y55923D01*
X308823Y55957D01*
X309215Y55981D01*
X309607Y55995D01*
X310000Y56000D01*
X310393Y55995D01*
X310785Y55981D01*
X311177Y55957D01*
X311568Y55923D01*
X311959Y55880D01*
X312348Y55827D01*
X312735Y55764D01*
X313121Y55693D01*
X313506Y55611D01*
X313888Y55521D01*
X314267Y55420D01*
X314645Y55311D01*
X315019Y55192D01*
X315390Y55065D01*
X315758Y54928D01*
X316123Y54782D01*
X316484Y54627D01*
X316841Y54464D01*
X317194Y54292D01*
X317542Y54111D01*
X317886Y53921D01*
X318226Y53724D01*
X318560Y53518D01*
X318889Y53304D01*
X319213Y53081D01*
X319531Y52851D01*
X319844Y52614D01*
X320150Y52368D01*
X320451Y52115D01*
X320745Y51855D01*
X321033Y51588D01*
X321314Y51314D01*
X321588Y51033D01*
X321855Y50745D01*
X322115Y50451D01*
X322368Y50150D01*
X322614Y49844D01*
X322851Y49531D01*
X323081Y49213D01*
X323304Y48889D01*
X323518Y48560D01*
X323724Y48226D01*
X323921Y47886D01*
X324111Y47542D01*
X324292Y47194D01*
X324464Y46841D01*
X324627Y46484D01*
X324782Y46123D01*
X324928Y45758D01*
X325065Y45390D01*
X325192Y45019D01*
X325311Y44645D01*
X325420Y44267D01*
X325521Y43888D01*
X325611Y43506D01*
X325693Y43121D01*
X325764Y42735D01*
X325827Y42348D01*
X325880Y41959D01*
X325923Y41568D01*
X325957Y41177D01*
X325981Y40785D01*
X325995Y40393D01*
X326000Y40000D01*
X325995Y39607D01*
X325981Y39215D01*
X325957Y38823D01*
X325923Y38432D01*
X325880Y38041D01*
X325827Y37652D01*
X325764Y37265D01*
X325693Y36879D01*
X325611Y36494D01*
X325521Y36112D01*
X325420Y35733D01*
X325311Y35355D01*
X325192Y34981D01*
X325065Y34610D01*
X324928Y34242D01*
X324782Y33877D01*
X324627Y33516D01*
X324464Y33159D01*
X324292Y32806D01*
X324111Y32458D01*
X323921Y32114D01*
X323724Y31774D01*
X323518Y31440D01*
X323304Y31111D01*
X323081Y30787D01*
X322851Y30469D01*
X322614Y30156D01*
X322368Y29850D01*
X322115Y29549D01*
X321855Y29255D01*
X321588Y28967D01*
X321314Y28686D01*
X321033Y28412D01*
X320745Y28145D01*
X320451Y27885D01*
X320150Y27632D01*
X319844Y27386D01*
X319531Y27149D01*
X319213Y26919D01*
X318889Y26696D01*
X318560Y26482D01*
X318226Y26276D01*
X317886Y26079D01*
X317542Y25889D01*
X317194Y25708D01*
X316841Y25536D01*
X316484Y25373D01*
X316123Y25218D01*
X315758Y25072D01*
X315390Y24935D01*
X315019Y24808D01*
X314645Y24689D01*
X314267Y24580D01*
X313888Y24479D01*
X313506Y24389D01*
X313121Y24307D01*
X312735Y24236D01*
X312348Y24173D01*
X311959Y24120D01*
X311568Y24077D01*
X311177Y24043D01*
X310785Y24019D01*
X310393Y24005D01*
X310000Y24000D01*
X309607Y24005D01*
X309215Y24019D01*
X308823Y24043D01*
X308432Y24077D01*
X308041Y24120D01*
X307652Y24173D01*
X307265Y24236D01*
X306879Y24307D01*
X306494Y24389D01*
X306112Y24479D01*
X305733Y24580D01*
X305355Y24689D01*
X304981Y24808D01*
X304610Y24935D01*
X304242Y25072D01*
X303877Y25218D01*
X303516Y25373D01*
X303159Y25536D01*
X302806Y25708D01*
X302458Y25889D01*
X302114Y26079D01*
X301774Y26276D01*
X301440Y26482D01*
X301111Y26696D01*
X300787Y26919D01*
X300469Y27149D01*
X300156Y27386D01*
X299850Y27632D01*
X299549Y27885D01*
X299255Y28145D01*
X298967Y28412D01*
X298686Y28686D01*
X298412Y28967D01*
X298145Y29255D01*
X297885Y29549D01*
X297632Y29850D01*
X297386Y30156D01*
X297149Y30469D01*
X296919Y30787D01*
X296696Y31111D01*
X296482Y31440D01*
X296276Y31774D01*
X296079Y32114D01*
X295889Y32458D01*
X295708Y32806D01*
X295536Y33159D01*
X295373Y33516D01*
X295218Y33877D01*
X295072Y34242D01*
X294935Y34610D01*
X294808Y34981D01*
X294689Y35355D01*
X294580Y35733D01*
X294479Y36112D01*
X294389Y36494D01*
X294307Y36879D01*
X294236Y37265D01*
X294173Y37652D01*
X294120Y38041D01*
X294077Y38432D01*
X294043Y38823D01*
X294019Y39215D01*
X294005Y39607D01*
X294000Y40000D01*
X1290000Y0D02*
X1790000Y0D01*
X1790725Y9D01*
X1791449Y35D01*
X1792173Y79D01*
X1792895Y140D01*
X1793616Y219D01*
X1794335Y315D01*
X1795051Y428D01*
X1795764Y559D01*
X1796474Y707D01*
X1797179Y872D01*
X1797881Y1054D01*
X1798578Y1253D01*
X1799271Y1468D01*
X1799957Y1701D01*
X1800638Y1950D01*
X1801313Y2215D01*
X1801981Y2496D01*
X1802642Y2794D01*
X1803296Y3107D01*
X1803942Y3436D01*
X1804580Y3781D01*
X1805209Y4141D01*
X1805829Y4516D01*
X1806440Y4906D01*
X1807042Y5310D01*
X1807634Y5729D01*
X1808215Y6163D01*
X1808786Y6610D01*
X1809345Y7071D01*
X1809894Y7545D01*
X1810430Y8032D01*
X1810955Y8532D01*
X1811468Y9045D01*
X1811968Y9570D01*
X1812455Y10106D01*
X1812929Y10655D01*
X1813390Y11214D01*
X1813837Y11785D01*
X1814271Y12366D01*
X1814690Y12958D01*
X1815094Y13560D01*
X1815484Y14171D01*
X1815859Y14791D01*
X1816219Y15420D01*
X1816564Y16058D01*
X1816893Y16704D01*
X1817206Y17358D01*
X1817504Y18019D01*
X1817785Y18687D01*
X1818050Y19362D01*
X1818299Y20043D01*
X1818532Y20729D01*
X1818747Y21422D01*
X1818946Y22119D01*
X1819128Y22821D01*
X1819293Y23526D01*
X1819441Y24236D01*
X1819572Y24949D01*
X1819685Y25665D01*
X1819781Y26384D01*
X1819860Y27105D01*
X1819921Y27827D01*
X1819965Y28551D01*
X1819991Y29275D01*
X1820000Y30000D01*
X1820000Y620000D01*
X1819991Y620725D01*
X1819965Y621449D01*
X1819921Y622173D01*
X1819860Y622895D01*
X1819781Y623616D01*
X1819685Y624335D01*
X1819572Y625051D01*
X1819441Y625764D01*
X1819293Y626474D01*
X1819128Y627179D01*
X1818946Y627881D01*
X1818747Y628578D01*
X1818532Y629271D01*
X1818299Y629957D01*
X1818050Y630638D01*
X1817785Y631313D01*
X1817504Y631981D01*
X1817206Y632642D01*
X1816893Y633296D01*
X1816564Y633942D01*
X1816219Y634580D01*
X1815859Y635209D01*
X1815484Y635829D01*
X1815094Y636440D01*
X1814690Y637042D01*
X1814271Y637634D01*
X1813837Y638215D01*
X1813390Y638786D01*
X1812929Y639345D01*
X1812455Y639894D01*
X1811968Y640430D01*
X1811468Y640955D01*
X1810955Y641468D01*
X1810430Y641968D01*
X1809894Y642455D01*
X1809345Y642929D01*
X1808786Y643390D01*
X1808215Y643837D01*
X1807634Y644271D01*
X1807042Y644690D01*
X1806440Y645094D01*
X1805829Y645484D01*
X1805209Y645859D01*
X1804580Y646219D01*
X1803942Y646564D01*
X1803296Y646893D01*
X1802642Y647206D01*
X1801981Y647504D01*
X1801313Y647785D01*
X1800638Y648050D01*
X1799957Y648299D01*
X1799271Y648532D01*
X1798578Y648747D01*
X1797881Y648946D01*
X1797179Y649128D01*
X1796474Y649293D01*
X1795764Y649441D01*
X1795051Y649572D01*
X1794335Y649685D01*
X1793616Y649781D01*
X1792895Y649860D01*
X1792173Y649921D01*
X1791449Y649965D01*
X1790725Y649991D01*
X1790000Y650000D01*
X1290000Y650000D01*
X1289275Y649991D01*
X1288551Y649965D01*
X1287827Y649921D01*
X1287105Y649860D01*
X1286384Y649781D01*
X1285665Y649685D01*
X1284949Y649572D01*
X1284236Y649441D01*
X1283526Y649293D01*
X1282821Y649128D01*
X1282119Y648946D01*
X1281422Y648747D01*
X1280729Y648532D01*
X1280043Y648299D01*
X1279362Y648050D01*
X1278687Y647785D01*
X1278019Y647504D01*
X1277358Y647206D01*
X1276704Y646893D01*
X1276058Y646564D01*
X1275420Y646219D01*
X1274791Y645859D01*
X1274171Y645484D01*
X1273560Y645094D01*
X1272958Y644690D01*
X1272366Y644271D01*
X1271785Y643837D01*
X1271214Y643390D01*
X1270655Y642929D01*
X1270106Y642455D01*
X1269570Y641968D01*
X1269045Y641468D01*
X1268532Y640955D01*
X1268032Y640430D01*
X1267545Y639894D01*
X1267071Y639345D01*
X1266610Y638786D01*
X1266163Y638215D01*
X1265729Y637634D01*
X1265310Y637042D01*
X1264906Y636440D01*
X1264516Y635829D01*
X1264141Y635209D01*
X1263781Y634580D01*
X1263436Y633942D01*
X1263107Y633296D01*
X1262794Y632642D01*
X1262496Y631981D01*
X1262215Y631313D01*
X1261950Y630638D01*
X1261701Y629957D01*
X1261468Y629271D01*
X1261253Y628578D01*
X1261054Y627881D01*
X1260872Y627179D01*
X1260707Y626474D01*
X1260559Y625764D01*
X1260428Y625051D01*
X1260315Y624335D01*
X1260219Y623616D01*
X1260140Y622895D01*
X1260079Y622173D01*
X1260035Y621449D01*
X1260009Y620725D01*
X1260000Y620000D01*
X1260000Y30000D01*
X1260009Y29275D01*
X1260035Y28551D01*
X1260079Y27827D01*
X1260140Y27105D01*
X1260219Y26384D01*
X1260315Y25665D01*
X1260428Y24949D01*
X1260559Y24236D01*
X1260707Y23526D01*
X1260872Y22821D01*
X1261054Y22119D01*
X1261253Y21422D01*
X1261468Y20729D01*
X1261701Y20043D01*
X1261950Y19362D01*
X1262215Y18687D01*
X1262496Y18019D01*
X1262794Y17358D01*
X1263107Y16704D01*
X1263436Y16058D01*
X1263781Y15420D01*
X1264141Y14791D01*
X1264516Y14171D01*
X1264906Y13560D01*
X1265310Y12958D01*
X1265729Y12366D01*
X1266163Y11785D01*
X1266610Y11214D01*
X1267071Y10655D01*
X1267545Y10106D01*
X1268032Y9570D01*
X1268532Y9045D01*
X1269045Y8532D01*
X1269570Y8032D01*
X1270106Y7545D01*
X1270655Y7071D01*
X1271214Y6610D01*
X1271785Y6163D01*
X1272366Y5729D01*
X1272958Y5310D01*
X1273560Y4906D01*
X1274171Y4516D01*
X1274791Y4141D01*
X1275420Y3781D01*
X1276058Y3436D01*
X1276704Y3107D01*
X1277358Y2794D01*
X1278019Y2496D01*
X1278687Y2215D01*
X1279362Y1950D01*
X1280043Y1701D01*
X1280729Y1468D01*
X1281422Y1253D01*
X1282119Y1054D01*
X1282821Y872D01*
X1283526Y707D01*
X1284236Y559D01*
X1284949Y428D01*
X1285665Y315D01*
X1286384Y219D01*
X1287105Y140D01*
X1287827Y79D01*
X1288551Y35D01*
X1289275Y9D01*
X1290000Y0D01*
X388940Y754300D02*
X388943Y754549D01*
X388952Y754799D01*
X388968Y755047D01*
X388989Y755296D01*
X389016Y755544D01*
X389050Y755791D01*
X389090Y756037D01*
X389135Y756282D01*
X389187Y756526D01*
X389244Y756769D01*
X389308Y757010D01*
X389377Y757249D01*
X389453Y757487D01*
X389534Y757723D01*
X389621Y757957D01*
X389713Y758188D01*
X389812Y758417D01*
X389915Y758644D01*
X390025Y758868D01*
X390140Y759089D01*
X390260Y759308D01*
X390385Y759523D01*
X390516Y759736D01*
X390652Y759945D01*
X390793Y760150D01*
X390939Y760352D01*
X391090Y760551D01*
X391246Y760745D01*
X391407Y760936D01*
X391572Y761123D01*
X391742Y761306D01*
X391916Y761484D01*
X392094Y761658D01*
X392277Y761828D01*
X392464Y761993D01*
X392655Y762154D01*
X392849Y762310D01*
X393048Y762461D01*
X393250Y762607D01*
X393455Y762748D01*
X393664Y762884D01*
X393877Y763015D01*
X394092Y763140D01*
X394311Y763260D01*
X394532Y763375D01*
X394756Y763485D01*
X394983Y763588D01*
X395212Y763687D01*
X395443Y763779D01*
X395677Y763866D01*
X395913Y763947D01*
X396151Y764023D01*
X396390Y764092D01*
X396631Y764156D01*
X396874Y764213D01*
X397118Y764265D01*
X397363Y764310D01*
X397609Y764350D01*
X397856Y764384D01*
X398104Y764411D01*
X398353Y764432D01*
X398601Y764448D01*
X398851Y764457D01*
X399100Y764460D01*
X399349Y764457D01*
X399599Y764448D01*
X399847Y764432D01*
X400096Y764411D01*
X400344Y764384D01*
X400591Y764350D01*
X400837Y764310D01*
X401082Y764265D01*
X401326Y764213D01*
X401569Y764156D01*
X401810Y764092D01*
X402049Y764023D01*
X402287Y763947D01*
X402523Y763866D01*
X402757Y763779D01*
X402988Y763687D01*
X403217Y763588D01*
X403444Y763485D01*
X403668Y763375D01*
X403889Y763260D01*
X404108Y763140D01*
X404323Y763015D01*
X404536Y762884D01*
X404745Y762748D01*
X404950Y762607D01*
X405152Y762461D01*
X405351Y762310D01*
X405545Y762154D01*
X405736Y761993D01*
X405923Y761828D01*
X406106Y761658D01*
X406284Y761484D01*
X406458Y761306D01*
X406628Y761123D01*
X406793Y760936D01*
X406954Y760745D01*
X407110Y760551D01*
X407261Y760352D01*
X407407Y760150D01*
X407548Y759945D01*
X407684Y759736D01*
X407815Y759523D01*
X407940Y759308D01*
X408060Y759089D01*
X408175Y758868D01*
X408285Y758644D01*
X408388Y758417D01*
X408487Y758188D01*
X408579Y757957D01*
X408666Y757723D01*
X408747Y757487D01*
X408823Y757249D01*
X408892Y757010D01*
X408956Y756769D01*
X409013Y756526D01*
X409065Y756282D01*
X409110Y756037D01*
X409150Y755791D01*
X409184Y755544D01*
X409211Y755296D01*
X409232Y755047D01*
X409248Y754799D01*
X409257Y754549D01*
X409260Y754300D01*
X409257Y754051D01*
X409248Y753801D01*
X409232Y753553D01*
X409211Y753304D01*
X409184Y753056D01*
X409150Y752809D01*
X409110Y752563D01*
X409065Y752318D01*
X409013Y752074D01*
X408956Y751831D01*
X408892Y751590D01*
X408823Y751351D01*
X408747Y751113D01*
X408666Y750877D01*
X408579Y750643D01*
X408487Y750412D01*
X408388Y750183D01*
X408285Y749956D01*
X408175Y749732D01*
X408060Y749511D01*
X407940Y749292D01*
X407815Y749077D01*
X407684Y748864D01*
X407548Y748655D01*
X407407Y748450D01*
X407261Y748248D01*
X407110Y748049D01*
X406954Y747855D01*
X406793Y747664D01*
X406628Y747477D01*
X406458Y747294D01*
X406284Y747116D01*
X406106Y746942D01*
X405923Y746772D01*
X405736Y746607D01*
X405545Y746446D01*
X405351Y746290D01*
X405152Y746139D01*
X404950Y745993D01*
X404745Y745852D01*
X404536Y745716D01*
X404323Y745585D01*
X404108Y745460D01*
X403889Y745340D01*
X403668Y745225D01*
X403444Y745115D01*
X403217Y745012D01*
X402988Y744913D01*
X402757Y744821D01*
X402523Y744734D01*
X402287Y744653D01*
X402049Y744577D01*
X401810Y744508D01*
X401569Y744444D01*
X401326Y744387D01*
X401082Y744335D01*
X400837Y744290D01*
X400591Y744250D01*
X400344Y744216D01*
X400096Y744189D01*
X399847Y744168D01*
X399599Y744152D01*
X399349Y744143D01*
X399100Y744140D01*
X398851Y744143D01*
X398601Y744152D01*
X398353Y744168D01*
X398104Y744189D01*
X397856Y744216D01*
X397609Y744250D01*
X397363Y744290D01*
X397118Y744335D01*
X396874Y744387D01*
X396631Y744444D01*
X396390Y744508D01*
X396151Y744577D01*
X395913Y744653D01*
X395677Y744734D01*
X395443Y744821D01*
X395212Y744913D01*
X394983Y745012D01*
X394756Y745115D01*
X394532Y745225D01*
X394311Y745340D01*
X394092Y745460D01*
X393877Y745585D01*
X393664Y745716D01*
X393455Y745852D01*
X393250Y745993D01*
X393048Y746139D01*
X392849Y746290D01*
X392655Y746446D01*
X392464Y746607D01*
X392277Y746772D01*
X392094Y746942D01*
X391916Y747116D01*
X391742Y747294D01*
X391572Y747477D01*
X391407Y747664D01*
X391246Y747855D01*
X391090Y748049D01*
X390939Y748248D01*
X390793Y748450D01*
X390652Y748655D01*
X390516Y748864D01*
X390385Y749077D01*
X390260Y749292D01*
X390140Y749511D01*
X390025Y749732D01*
X389915Y749956D01*
X389812Y750183D01*
X389713Y750412D01*
X389621Y750643D01*
X389534Y750877D01*
X389453Y751113D01*
X389377Y751351D01*
X389308Y751590D01*
X389244Y751831D01*
X389187Y752074D01*
X389135Y752318D01*
X389090Y752563D01*
X389050Y752809D01*
X389016Y753056D01*
X388989Y753304D01*
X388968Y753553D01*
X388952Y753801D01*
X388943Y754051D01*
X388940Y754300D01*
X820740Y754300D02*
X820743Y754549D01*
X820752Y754799D01*
X820768Y755047D01*
X820789Y755296D01*
X820816Y755544D01*
X820850Y755791D01*
X820890Y756037D01*
X820935Y756282D01*
X820987Y756526D01*
X821044Y756769D01*
X821108Y757010D01*
X821177Y757249D01*
X821253Y757487D01*
X821334Y757723D01*
X821421Y757957D01*
X821513Y758188D01*
X821612Y758417D01*
X821715Y758644D01*
X821825Y758868D01*
X821940Y759089D01*
X822060Y759308D01*
X822185Y759523D01*
X822316Y759736D01*
X822452Y759945D01*
X822593Y760150D01*
X822739Y760352D01*
X822890Y760551D01*
X823046Y760745D01*
X823207Y760936D01*
X823372Y761123D01*
X823542Y761306D01*
X823716Y761484D01*
X823894Y761658D01*
X824077Y761828D01*
X824264Y761993D01*
X824455Y762154D01*
X824649Y762310D01*
X824848Y762461D01*
X825050Y762607D01*
X825255Y762748D01*
X825464Y762884D01*
X825677Y763015D01*
X825892Y763140D01*
X826111Y763260D01*
X826332Y763375D01*
X826556Y763485D01*
X826783Y763588D01*
X827012Y763687D01*
X827243Y763779D01*
X827477Y763866D01*
X827713Y763947D01*
X827951Y764023D01*
X828190Y764092D01*
X828431Y764156D01*
X828674Y764213D01*
X828918Y764265D01*
X829163Y764310D01*
X829409Y764350D01*
X829656Y764384D01*
X829904Y764411D01*
X830153Y764432D01*
X830401Y764448D01*
X830651Y764457D01*
X830900Y764460D01*
X831149Y764457D01*
X831399Y764448D01*
X831647Y764432D01*
X831896Y764411D01*
X832144Y764384D01*
X832391Y764350D01*
X832637Y764310D01*
X832882Y764265D01*
X833126Y764213D01*
X833369Y764156D01*
X833610Y764092D01*
X833849Y764023D01*
X834087Y763947D01*
X834323Y763866D01*
X834557Y763779D01*
X834788Y763687D01*
X835017Y763588D01*
X835244Y763485D01*
X835468Y763375D01*
X835689Y763260D01*
X835908Y763140D01*
X836123Y763015D01*
X836336Y762884D01*
X836545Y762748D01*
X836750Y762607D01*
X836952Y762461D01*
X837151Y762310D01*
X837345Y762154D01*
X837536Y761993D01*
X837723Y761828D01*
X837906Y761658D01*
X838084Y761484D01*
X838258Y761306D01*
X838428Y761123D01*
X838593Y760936D01*
X838754Y760745D01*
X838910Y760551D01*
X839061Y760352D01*
X839207Y760150D01*
X839348Y759945D01*
X839484Y759736D01*
X839615Y759523D01*
X839740Y759308D01*
X839860Y759089D01*
X839975Y758868D01*
X840085Y758644D01*
X840188Y758417D01*
X840287Y758188D01*
X840379Y757957D01*
X840466Y757723D01*
X840547Y757487D01*
X840623Y757249D01*
X840692Y757010D01*
X840756Y756769D01*
X840813Y756526D01*
X840865Y756282D01*
X840910Y756037D01*
X840950Y755791D01*
X840984Y755544D01*
X841011Y755296D01*
X841032Y755047D01*
X841048Y754799D01*
X841057Y754549D01*
X841060Y754300D01*
X841057Y754051D01*
X841048Y753801D01*
X841032Y753553D01*
X841011Y753304D01*
X840984Y753056D01*
X840950Y752809D01*
X840910Y752563D01*
X840865Y752318D01*
X840813Y752074D01*
X840756Y751831D01*
X840692Y751590D01*
X840623Y751351D01*
X840547Y751113D01*
X840466Y750877D01*
X840379Y750643D01*
X840287Y750412D01*
X840188Y750183D01*
X840085Y749956D01*
X839975Y749732D01*
X839860Y749511D01*
X839740Y749292D01*
X839615Y749077D01*
X839484Y748864D01*
X839348Y748655D01*
X839207Y748450D01*
X839061Y748248D01*
X838910Y748049D01*
X838754Y747855D01*
X838593Y747664D01*
X838428Y747477D01*
X838258Y747294D01*
X838084Y747116D01*
X837906Y746942D01*
X837723Y746772D01*
X837536Y746607D01*
X837345Y746446D01*
X837151Y746290D01*
X836952Y746139D01*
X836750Y745993D01*
X836545Y745852D01*
X836336Y745716D01*
X836123Y745585D01*
X835908Y745460D01*
X835689Y745340D01*
X835468Y745225D01*
X835244Y745115D01*
X835017Y745012D01*
X834788Y744913D01*
X834557Y744821D01*
X834323Y744734D01*
X834087Y744653D01*
X833849Y744577D01*
X833610Y744508D01*
X833369Y744444D01*
X833126Y744387D01*
X832882Y744335D01*
X832637Y744290D01*
X832391Y744250D01*
X832144Y744216D01*
X831896Y744189D01*
X831647Y744168D01*
X831399Y744152D01*
X831149Y744143D01*
X830900Y744140D01*
X830651Y744143D01*
X830401Y744152D01*
X830153Y744168D01*
X829904Y744189D01*
X829656Y744216D01*
X829409Y744250D01*
X829163Y744290D01*
X828918Y744335D01*
X828674Y744387D01*
X828431Y744444D01*
X828190Y744508D01*
X827951Y744577D01*
X827713Y744653D01*
X827477Y744734D01*
X827243Y744821D01*
X827012Y744913D01*
X826783Y745012D01*
X826556Y745115D01*
X826332Y745225D01*
X826111Y745340D01*
X825892Y745460D01*
X825677Y745585D01*
X825464Y745716D01*
X825255Y745852D01*
X825050Y745993D01*
X824848Y746139D01*
X824649Y746290D01*
X824455Y746446D01*
X824264Y746607D01*
X824077Y746772D01*
X823894Y746942D01*
X823716Y747116D01*
X823542Y747294D01*
X823372Y747477D01*
X823207Y747664D01*
X823046Y747855D01*
X822890Y748049D01*
X822739Y748248D01*
X822593Y748450D01*
X822452Y748655D01*
X822316Y748864D01*
X822185Y749077D01*
X822060Y749292D01*
X821940Y749511D01*
X821825Y749732D01*
X821715Y749956D01*
X821612Y750183D01*
X821513Y750412D01*
X821421Y750643D01*
X821334Y750877D01*
X821253Y751113D01*
X821177Y751351D01*
X821108Y751590D01*
X821044Y751831D01*
X820987Y752074D01*
X820935Y752318D01*
X820890Y752563D01*
X820850Y752809D01*
X820816Y753056D01*
X820789Y753304D01*
X820768Y753553D01*
X820752Y753801D01*
X820743Y754051D01*
X820740Y754300D01*
X388940Y525700D02*
X388943Y525949D01*
X388952Y526199D01*
X388968Y526447D01*
X388989Y526696D01*
X389016Y526944D01*
X389050Y527191D01*
X389090Y527437D01*
X389135Y527682D01*
X389187Y527926D01*
X389244Y528169D01*
X389308Y528410D01*
X389377Y528649D01*
X389453Y528887D01*
X389534Y529123D01*
X389621Y529357D01*
X389713Y529588D01*
X389812Y529817D01*
X389915Y530044D01*
X390025Y530268D01*
X390140Y530489D01*
X390260Y530708D01*
X390385Y530923D01*
X390516Y531136D01*
X390652Y531345D01*
X390793Y531550D01*
X390939Y531752D01*
X391090Y531951D01*
X391246Y532145D01*
X391407Y532336D01*
X391572Y532523D01*
X391742Y532706D01*
X391916Y532884D01*
X392094Y533058D01*
X392277Y533228D01*
X392464Y533393D01*
X392655Y533554D01*
X392849Y533710D01*
X393048Y533861D01*
X393250Y534007D01*
X393455Y534148D01*
X393664Y534284D01*
X393877Y534415D01*
X394092Y534540D01*
X394311Y534660D01*
X394532Y534775D01*
X394756Y534885D01*
X394983Y534988D01*
X395212Y535087D01*
X395443Y535179D01*
X395677Y535266D01*
X395913Y535347D01*
X396151Y535423D01*
X396390Y535492D01*
X396631Y535556D01*
X396874Y535613D01*
X397118Y535665D01*
X397363Y535710D01*
X397609Y535750D01*
X397856Y535784D01*
X398104Y535811D01*
X398353Y535832D01*
X398601Y535848D01*
X398851Y535857D01*
X399100Y535860D01*
X399349Y535857D01*
X399599Y535848D01*
X399847Y535832D01*
X400096Y535811D01*
X400344Y535784D01*
X400591Y535750D01*
X400837Y535710D01*
X401082Y535665D01*
X401326Y535613D01*
X401569Y535556D01*
X401810Y535492D01*
X402049Y535423D01*
X402287Y535347D01*
X402523Y535266D01*
X402757Y535179D01*
X402988Y535087D01*
X403217Y534988D01*
X403444Y534885D01*
X403668Y534775D01*
X403889Y534660D01*
X404108Y534540D01*
X404323Y534415D01*
X404536Y534284D01*
X404745Y534148D01*
X404950Y534007D01*
X405152Y533861D01*
X405351Y533710D01*
X405545Y533554D01*
X405736Y533393D01*
X405923Y533228D01*
X406106Y533058D01*
X406284Y532884D01*
X406458Y532706D01*
X406628Y532523D01*
X406793Y532336D01*
X406954Y532145D01*
X407110Y531951D01*
X407261Y531752D01*
X407407Y531550D01*
X407548Y531345D01*
X407684Y531136D01*
X407815Y530923D01*
X407940Y530708D01*
X408060Y530489D01*
X408175Y530268D01*
X408285Y530044D01*
X408388Y529817D01*
X408487Y529588D01*
X408579Y529357D01*
X408666Y529123D01*
X408747Y528887D01*
X408823Y528649D01*
X408892Y528410D01*
X408956Y528169D01*
X409013Y527926D01*
X409065Y527682D01*
X409110Y527437D01*
X409150Y527191D01*
X409184Y526944D01*
X409211Y526696D01*
X409232Y526447D01*
X409248Y526199D01*
X409257Y525949D01*
X409260Y525700D01*
X409257Y525451D01*
X409248Y525201D01*
X409232Y524953D01*
X409211Y524704D01*
X409184Y524456D01*
X409150Y524209D01*
X409110Y523963D01*
X409065Y523718D01*
X409013Y523474D01*
X408956Y523231D01*
X408892Y522990D01*
X408823Y522751D01*
X408747Y522513D01*
X408666Y522277D01*
X408579Y522043D01*
X408487Y521812D01*
X408388Y521583D01*
X408285Y521356D01*
X408175Y521132D01*
X408060Y520911D01*
X407940Y520692D01*
X407815Y520477D01*
X407684Y520264D01*
X407548Y520055D01*
X407407Y519850D01*
X407261Y519648D01*
X407110Y519449D01*
X406954Y519255D01*
X406793Y519064D01*
X406628Y518877D01*
X406458Y518694D01*
X406284Y518516D01*
X406106Y518342D01*
X405923Y518172D01*
X405736Y518007D01*
X405545Y517846D01*
X405351Y517690D01*
X405152Y517539D01*
X404950Y517393D01*
X404745Y517252D01*
X404536Y517116D01*
X404323Y516985D01*
X404108Y516860D01*
X403889Y516740D01*
X403668Y516625D01*
X403444Y516515D01*
X403217Y516412D01*
X402988Y516313D01*
X402757Y516221D01*
X402523Y516134D01*
X402287Y516053D01*
X402049Y515977D01*
X401810Y515908D01*
X401569Y515844D01*
X401326Y515787D01*
X401082Y515735D01*
X400837Y515690D01*
X400591Y515650D01*
X400344Y515616D01*
X400096Y515589D01*
X399847Y515568D01*
X399599Y515552D01*
X399349Y515543D01*
X399100Y515540D01*
X398851Y515543D01*
X398601Y515552D01*
X398353Y515568D01*
X398104Y515589D01*
X397856Y515616D01*
X397609Y515650D01*
X397363Y515690D01*
X397118Y515735D01*
X396874Y515787D01*
X396631Y515844D01*
X396390Y515908D01*
X396151Y515977D01*
X395913Y516053D01*
X395677Y516134D01*
X395443Y516221D01*
X395212Y516313D01*
X394983Y516412D01*
X394756Y516515D01*
X394532Y516625D01*
X394311Y516740D01*
X394092Y516860D01*
X393877Y516985D01*
X393664Y517116D01*
X393455Y517252D01*
X393250Y517393D01*
X393048Y517539D01*
X392849Y517690D01*
X392655Y517846D01*
X392464Y518007D01*
X392277Y518172D01*
X392094Y518342D01*
X391916Y518516D01*
X391742Y518694D01*
X391572Y518877D01*
X391407Y519064D01*
X391246Y519255D01*
X391090Y519449D01*
X390939Y519648D01*
X390793Y519850D01*
X390652Y520055D01*
X390516Y520264D01*
X390385Y520477D01*
X390260Y520692D01*
X390140Y520911D01*
X390025Y521132D01*
X389915Y521356D01*
X389812Y521583D01*
X389713Y521812D01*
X389621Y522043D01*
X389534Y522277D01*
X389453Y522513D01*
X389377Y522751D01*
X389308Y522990D01*
X389244Y523231D01*
X389187Y523474D01*
X389135Y523718D01*
X389090Y523963D01*
X389050Y524209D01*
X389016Y524456D01*
X388989Y524704D01*
X388968Y524953D01*
X388952Y525201D01*
X388943Y525451D01*
X388940Y525700D01*
X820740Y525700D02*
X820743Y525949D01*
X820752Y526199D01*
X820768Y526447D01*
X820789Y526696D01*
X820816Y526944D01*
X820850Y527191D01*
X820890Y527437D01*
X820935Y527682D01*
X820987Y527926D01*
X821044Y528169D01*
X821108Y528410D01*
X821177Y528649D01*
X821253Y528887D01*
X821334Y529123D01*
X821421Y529357D01*
X821513Y529588D01*
X821612Y529817D01*
X821715Y530044D01*
X821825Y530268D01*
X821940Y530489D01*
X822060Y530708D01*
X822185Y530923D01*
X822316Y531136D01*
X822452Y531345D01*
X822593Y531550D01*
X822739Y531752D01*
X822890Y531951D01*
X823046Y532145D01*
X823207Y532336D01*
X823372Y532523D01*
X823542Y532706D01*
X823716Y532884D01*
X823894Y533058D01*
X824077Y533228D01*
X824264Y533393D01*
X824455Y533554D01*
X824649Y533710D01*
X824848Y533861D01*
X825050Y534007D01*
X825255Y534148D01*
X825464Y534284D01*
X825677Y534415D01*
X825892Y534540D01*
X826111Y534660D01*
X826332Y534775D01*
X826556Y534885D01*
X826783Y534988D01*
X827012Y535087D01*
X827243Y535179D01*
X827477Y535266D01*
X827713Y535347D01*
X827951Y535423D01*
X828190Y535492D01*
X828431Y535556D01*
X828674Y535613D01*
X828918Y535665D01*
X829163Y535710D01*
X829409Y535750D01*
X829656Y535784D01*
X829904Y535811D01*
X830153Y535832D01*
X830401Y535848D01*
X830651Y535857D01*
X830900Y535860D01*
X831149Y535857D01*
X831399Y535848D01*
X831647Y535832D01*
X831896Y535811D01*
X832144Y535784D01*
X832391Y535750D01*
X832637Y535710D01*
X832882Y535665D01*
X833126Y535613D01*
X833369Y535556D01*
X833610Y535492D01*
X833849Y535423D01*
X834087Y535347D01*
X834323Y535266D01*
X834557Y535179D01*
X834788Y535087D01*
X835017Y534988D01*
X835244Y534885D01*
X835468Y534775D01*
X835689Y534660D01*
X835908Y534540D01*
X836123Y534415D01*
X836336Y534284D01*
X836545Y534148D01*
X836750Y534007D01*
X836952Y533861D01*
X837151Y533710D01*
X837345Y533554D01*
X837536Y533393D01*
X837723Y533228D01*
X837906Y533058D01*
X838084Y532884D01*
X838258Y532706D01*
X838428Y532523D01*
X838593Y532336D01*
X838754Y532145D01*
X838910Y531951D01*
X839061Y531752D01*
X839207Y531550D01*
X839348Y531345D01*
X839484Y531136D01*
X839615Y530923D01*
X839740Y530708D01*
X839860Y530489D01*
X839975Y530268D01*
X840085Y530044D01*
X840188Y529817D01*
X840287Y529588D01*
X840379Y529357D01*
X840466Y529123D01*
X840547Y528887D01*
X840623Y528649D01*
X840692Y528410D01*
X840756Y528169D01*
X840813Y527926D01*
X840865Y527682D01*
X840910Y527437D01*
X840950Y527191D01*
X840984Y526944D01*
X841011Y526696D01*
X841032Y526447D01*
X841048Y526199D01*
X841057Y525949D01*
X841060Y525700D01*
X841057Y525451D01*
X841048Y525201D01*
X841032Y524953D01*
X841011Y524704D01*
X840984Y524456D01*
X840950Y524209D01*
X840910Y523963D01*
X840865Y523718D01*
X840813Y523474D01*
X840756Y523231D01*
X840692Y522990D01*
X840623Y522751D01*
X840547Y522513D01*
X840466Y522277D01*
X840379Y522043D01*
X840287Y521812D01*
X840188Y521583D01*
X840085Y521356D01*
X839975Y521132D01*
X839860Y520911D01*
X839740Y520692D01*
X839615Y520477D01*
X839484Y520264D01*
X839348Y520055D01*
X839207Y519850D01*
X839061Y519648D01*
X838910Y519449D01*
X838754Y519255D01*
X838593Y519064D01*
X838428Y518877D01*
X838258Y518694D01*
X838084Y518516D01*
X837906Y518342D01*
X837723Y518172D01*
X837536Y518007D01*
X837345Y517846D01*
X837151Y517690D01*
X836952Y517539D01*
X836750Y517393D01*
X836545Y517252D01*
X836336Y517116D01*
X836123Y516985D01*
X835908Y516860D01*
X835689Y516740D01*
X835468Y516625D01*
X835244Y516515D01*
X835017Y516412D01*
X834788Y516313D01*
X834557Y516221D01*
X834323Y516134D01*
X834087Y516053D01*
X833849Y515977D01*
X833610Y515908D01*
X833369Y515844D01*
X833126Y515787D01*
X832882Y515735D01*
X832637Y515690D01*
X832391Y515650D01*
X832144Y515616D01*
X831896Y515589D01*
X831647Y515568D01*
X831399Y515552D01*
X831149Y515543D01*
X830900Y515540D01*
X830651Y515543D01*
X830401Y515552D01*
X830153Y515568D01*
X829904Y515589D01*
X829656Y515616D01*
X829409Y515650D01*
X829163Y515690D01*
X828918Y515735D01*
X828674Y515787D01*
X828431Y515844D01*
X828190Y515908D01*
X827951Y515977D01*
X827713Y516053D01*
X827477Y516134D01*
X827243Y516221D01*
X827012Y516313D01*
X826783Y516412D01*
X826556Y516515D01*
X826332Y516625D01*
X826111Y516740D01*
X825892Y516860D01*
X825677Y516985D01*
X825464Y517116D01*
X825255Y517252D01*
X825050Y517393D01*
X824848Y517539D01*
X824649Y517690D01*
X824455Y517846D01*
X824264Y518007D01*
X824077Y518172D01*
X823894Y518342D01*
X823716Y518516D01*
X823542Y518694D01*
X823372Y518877D01*
X823207Y519064D01*
X823046Y519255D01*
X822890Y519449D01*
X822739Y519648D01*
X822593Y519850D01*
X822452Y520055D01*
X822316Y520264D01*
X822185Y520477D01*
X822060Y520692D01*
X821940Y520911D01*
X821825Y521132D01*
X821715Y521356D01*
X821612Y521583D01*
X821513Y521812D01*
X821421Y522043D01*
X821334Y522277D01*
X821253Y522513D01*
X821177Y522751D01*
X821108Y522990D01*
X821044Y523231D01*
X820987Y523474D01*
X820935Y523718D01*
X820890Y523963D01*
X820850Y524209D01*
X820816Y524456D01*
X820789Y524704D01*
X820768Y524953D01*
X820752Y525201D01*
X820743Y525451D01*
X820740Y525700D01*
M02*
