G04 EAGLE Gerber RS-274X export*
G75*
%MOMM*%
%FSLAX34Y34*%
%LPD*%
%INBottom Copper*%
%IPPOS*%
%AMOC8*
5,1,8,0,0,1.08239X$1,22.5*%
G01*
%ADD10C,1.422400*%
%ADD11P,1.539592X8X22.500000*%
%ADD12C,1.524000*%
%ADD13R,1.308000X1.308000*%
%ADD14C,1.308000*%
%ADD15C,1.676400*%
%ADD16P,1.732040X8X292.500000*%
%ADD17C,1.600200*%
%ADD18C,2.850000*%
%ADD19C,0.800000*%
%ADD20C,0.756400*%
%ADD21C,0.806400*%
%ADD22P,5.411950X8X22.500000*%
%ADD23C,0.300000*%

G36*
X620032Y3005D02*
X620032Y3005D01*
X620118Y3005D01*
X624107Y3319D01*
X624179Y3334D01*
X624253Y3338D01*
X624438Y3384D01*
X624446Y3386D01*
X624448Y3387D01*
X624452Y3388D01*
X632040Y5853D01*
X632160Y5909D01*
X632284Y5957D01*
X632331Y5987D01*
X632354Y5998D01*
X632380Y6018D01*
X632458Y6066D01*
X638912Y10756D01*
X639002Y10839D01*
X639009Y10843D01*
X639018Y10852D01*
X639112Y10930D01*
X639148Y10972D01*
X639167Y10990D01*
X639186Y11018D01*
X639244Y11088D01*
X643934Y17542D01*
X643999Y17658D01*
X644070Y17770D01*
X644091Y17821D01*
X644103Y17843D01*
X644112Y17875D01*
X644147Y17960D01*
X646612Y25548D01*
X646627Y25620D01*
X646651Y25690D01*
X646678Y25878D01*
X646680Y25887D01*
X646680Y25889D01*
X646681Y25893D01*
X646995Y29882D01*
X646993Y29915D01*
X646999Y30000D01*
X646999Y530000D01*
X646995Y530032D01*
X646995Y530118D01*
X646681Y534107D01*
X646666Y534179D01*
X646662Y534253D01*
X646616Y534438D01*
X646614Y534446D01*
X646613Y534448D01*
X646612Y534452D01*
X644147Y542040D01*
X644091Y542160D01*
X644043Y542284D01*
X644013Y542331D01*
X644002Y542354D01*
X643982Y542380D01*
X643934Y542458D01*
X639244Y548912D01*
X639154Y549010D01*
X639070Y549112D01*
X639028Y549148D01*
X639010Y549167D01*
X638982Y549186D01*
X638912Y549244D01*
X632458Y553934D01*
X632342Y553999D01*
X632230Y554070D01*
X632179Y554091D01*
X632157Y554103D01*
X632125Y554112D01*
X632040Y554147D01*
X624452Y556612D01*
X624380Y556627D01*
X624310Y556651D01*
X624122Y556678D01*
X624113Y556680D01*
X624111Y556680D01*
X624107Y556681D01*
X620118Y556995D01*
X620085Y556993D01*
X620000Y556999D01*
X30000Y556999D01*
X29968Y556995D01*
X29882Y556995D01*
X25893Y556681D01*
X25821Y556666D01*
X25747Y556662D01*
X25562Y556616D01*
X25554Y556614D01*
X25552Y556613D01*
X25548Y556612D01*
X17960Y554147D01*
X17840Y554091D01*
X17716Y554043D01*
X17669Y554013D01*
X17646Y554002D01*
X17620Y553982D01*
X17542Y553934D01*
X11088Y549244D01*
X10990Y549154D01*
X10888Y549070D01*
X10852Y549028D01*
X10833Y549010D01*
X10814Y548982D01*
X10756Y548912D01*
X6066Y542458D01*
X6001Y542342D01*
X5930Y542230D01*
X5909Y542179D01*
X5897Y542157D01*
X5888Y542125D01*
X5853Y542040D01*
X3388Y534452D01*
X3373Y534380D01*
X3349Y534310D01*
X3322Y534122D01*
X3320Y534113D01*
X3320Y534111D01*
X3319Y534107D01*
X3005Y530118D01*
X3007Y530085D01*
X3001Y530000D01*
X3001Y485783D01*
X3015Y485657D01*
X3022Y485530D01*
X3035Y485485D01*
X3041Y485440D01*
X3084Y485320D01*
X3120Y485198D01*
X3142Y485158D01*
X3158Y485114D01*
X3228Y485008D01*
X3290Y484897D01*
X3322Y484863D01*
X3347Y484825D01*
X3439Y484737D01*
X3525Y484644D01*
X3564Y484618D01*
X3597Y484586D01*
X3707Y484522D01*
X3812Y484451D01*
X3856Y484435D01*
X3895Y484411D01*
X4017Y484374D01*
X4136Y484329D01*
X4181Y484323D01*
X4226Y484309D01*
X4353Y484300D01*
X4479Y484284D01*
X4525Y484289D01*
X4571Y484286D01*
X4696Y484306D01*
X4823Y484319D01*
X4866Y484334D01*
X4912Y484342D01*
X5029Y484390D01*
X5149Y484432D01*
X5189Y484457D01*
X5231Y484474D01*
X5334Y484548D01*
X5442Y484617D01*
X5474Y484649D01*
X5511Y484676D01*
X5595Y484773D01*
X5684Y484863D01*
X5719Y484916D01*
X5738Y484938D01*
X5753Y484966D01*
X5798Y485034D01*
X6009Y485399D01*
X7349Y487145D01*
X8905Y488701D01*
X10652Y490041D01*
X12558Y491141D01*
X14591Y491984D01*
X16717Y492553D01*
X17001Y492591D01*
X17001Y477550D01*
X17005Y477515D01*
X17002Y477480D01*
X17025Y477343D01*
X17041Y477207D01*
X17053Y477173D01*
X17058Y477138D01*
X17111Y477011D01*
X17158Y476882D01*
X17178Y476852D01*
X17191Y476819D01*
X17272Y476707D01*
X17347Y476592D01*
X17373Y476567D01*
X17393Y476539D01*
X17498Y476448D01*
X17597Y476353D01*
X17628Y476335D01*
X17654Y476312D01*
X17777Y476248D01*
X17895Y476178D01*
X17929Y476168D01*
X17961Y476151D01*
X18094Y476117D01*
X18226Y476076D01*
X18261Y476074D01*
X18295Y476065D01*
X18500Y476051D01*
X20001Y476051D01*
X20001Y476049D01*
X18500Y476049D01*
X18465Y476045D01*
X18429Y476047D01*
X18293Y476025D01*
X18157Y476009D01*
X18123Y475997D01*
X18088Y475991D01*
X17961Y475939D01*
X17831Y475892D01*
X17802Y475872D01*
X17769Y475859D01*
X17657Y475778D01*
X17542Y475703D01*
X17517Y475677D01*
X17489Y475657D01*
X17398Y475552D01*
X17303Y475453D01*
X17285Y475422D01*
X17262Y475395D01*
X17198Y475273D01*
X17128Y475155D01*
X17118Y475121D01*
X17101Y475089D01*
X17067Y474956D01*
X17026Y474824D01*
X17024Y474789D01*
X17015Y474755D01*
X17001Y474550D01*
X17001Y459509D01*
X16717Y459547D01*
X14591Y460116D01*
X12558Y460959D01*
X10652Y462059D01*
X8905Y463399D01*
X7349Y464955D01*
X6009Y466701D01*
X5798Y467066D01*
X5722Y467169D01*
X5653Y467275D01*
X5620Y467307D01*
X5592Y467344D01*
X5495Y467426D01*
X5403Y467514D01*
X5363Y467537D01*
X5328Y467567D01*
X5214Y467624D01*
X5105Y467689D01*
X5061Y467702D01*
X5020Y467723D01*
X4896Y467753D01*
X4774Y467791D01*
X4728Y467794D01*
X4684Y467805D01*
X4557Y467806D01*
X4429Y467814D01*
X4384Y467807D01*
X4338Y467807D01*
X4214Y467779D01*
X4088Y467758D01*
X4046Y467741D01*
X4001Y467731D01*
X3886Y467675D01*
X3769Y467626D01*
X3732Y467599D01*
X3690Y467579D01*
X3592Y467498D01*
X3489Y467424D01*
X3458Y467389D01*
X3423Y467360D01*
X3345Y467258D01*
X3262Y467162D01*
X3240Y467122D01*
X3212Y467085D01*
X3160Y466969D01*
X3101Y466856D01*
X3090Y466812D01*
X3071Y466770D01*
X3047Y466645D01*
X3015Y466522D01*
X3010Y466458D01*
X3005Y466430D01*
X3006Y466398D01*
X3001Y466317D01*
X3001Y353683D01*
X3015Y353557D01*
X3022Y353430D01*
X3035Y353385D01*
X3041Y353340D01*
X3084Y353220D01*
X3120Y353098D01*
X3142Y353058D01*
X3158Y353014D01*
X3228Y352908D01*
X3290Y352797D01*
X3322Y352763D01*
X3347Y352725D01*
X3439Y352637D01*
X3525Y352544D01*
X3564Y352518D01*
X3597Y352486D01*
X3707Y352422D01*
X3812Y352351D01*
X3856Y352335D01*
X3895Y352311D01*
X4017Y352274D01*
X4136Y352229D01*
X4181Y352223D01*
X4226Y352209D01*
X4353Y352200D01*
X4479Y352184D01*
X4525Y352189D01*
X4571Y352186D01*
X4696Y352206D01*
X4823Y352219D01*
X4866Y352234D01*
X4912Y352242D01*
X5029Y352290D01*
X5149Y352332D01*
X5189Y352357D01*
X5231Y352374D01*
X5334Y352448D01*
X5442Y352517D01*
X5474Y352549D01*
X5511Y352576D01*
X5595Y352673D01*
X5684Y352763D01*
X5719Y352816D01*
X5738Y352838D01*
X5753Y352866D01*
X5798Y352934D01*
X6009Y353299D01*
X7349Y355045D01*
X8905Y356601D01*
X10652Y357941D01*
X12558Y359041D01*
X14591Y359884D01*
X16717Y360453D01*
X17001Y360491D01*
X17001Y345450D01*
X17005Y345415D01*
X17002Y345380D01*
X17025Y345243D01*
X17041Y345107D01*
X17053Y345073D01*
X17058Y345038D01*
X17111Y344911D01*
X17158Y344782D01*
X17178Y344752D01*
X17191Y344719D01*
X17272Y344607D01*
X17347Y344492D01*
X17373Y344467D01*
X17393Y344439D01*
X17498Y344348D01*
X17597Y344253D01*
X17628Y344235D01*
X17654Y344212D01*
X17777Y344148D01*
X17895Y344078D01*
X17929Y344068D01*
X17961Y344051D01*
X18094Y344017D01*
X18226Y343976D01*
X18261Y343974D01*
X18295Y343965D01*
X18500Y343951D01*
X20001Y343951D01*
X20001Y343949D01*
X18500Y343949D01*
X18465Y343945D01*
X18429Y343947D01*
X18293Y343925D01*
X18157Y343909D01*
X18123Y343897D01*
X18088Y343891D01*
X17961Y343839D01*
X17831Y343792D01*
X17802Y343772D01*
X17769Y343759D01*
X17657Y343678D01*
X17542Y343603D01*
X17517Y343577D01*
X17489Y343557D01*
X17398Y343452D01*
X17303Y343353D01*
X17285Y343322D01*
X17262Y343295D01*
X17198Y343173D01*
X17128Y343055D01*
X17118Y343021D01*
X17101Y342989D01*
X17067Y342856D01*
X17026Y342724D01*
X17024Y342689D01*
X17015Y342655D01*
X17001Y342450D01*
X17001Y317550D01*
X17005Y317515D01*
X17002Y317480D01*
X17025Y317343D01*
X17041Y317207D01*
X17053Y317173D01*
X17058Y317138D01*
X17111Y317011D01*
X17158Y316882D01*
X17178Y316852D01*
X17191Y316819D01*
X17272Y316707D01*
X17347Y316592D01*
X17373Y316567D01*
X17393Y316539D01*
X17498Y316448D01*
X17597Y316353D01*
X17628Y316335D01*
X17654Y316312D01*
X17777Y316248D01*
X17895Y316178D01*
X17929Y316168D01*
X17961Y316151D01*
X18094Y316117D01*
X18226Y316076D01*
X18261Y316074D01*
X18295Y316065D01*
X18500Y316051D01*
X20001Y316051D01*
X20001Y316049D01*
X18500Y316049D01*
X18465Y316045D01*
X18429Y316047D01*
X18293Y316025D01*
X18157Y316009D01*
X18123Y315997D01*
X18088Y315991D01*
X17961Y315939D01*
X17831Y315892D01*
X17802Y315872D01*
X17769Y315859D01*
X17657Y315778D01*
X17542Y315703D01*
X17517Y315677D01*
X17489Y315657D01*
X17398Y315552D01*
X17303Y315453D01*
X17285Y315422D01*
X17262Y315395D01*
X17198Y315273D01*
X17128Y315155D01*
X17118Y315121D01*
X17101Y315089D01*
X17067Y314956D01*
X17026Y314824D01*
X17024Y314789D01*
X17015Y314755D01*
X17001Y314550D01*
X17001Y299509D01*
X16717Y299547D01*
X14591Y300116D01*
X12558Y300959D01*
X10652Y302059D01*
X8905Y303399D01*
X7349Y304955D01*
X6009Y306701D01*
X5798Y307066D01*
X5722Y307169D01*
X5653Y307275D01*
X5620Y307307D01*
X5592Y307344D01*
X5495Y307426D01*
X5403Y307514D01*
X5363Y307537D01*
X5328Y307567D01*
X5214Y307624D01*
X5105Y307689D01*
X5061Y307702D01*
X5020Y307723D01*
X4896Y307753D01*
X4774Y307791D01*
X4728Y307794D01*
X4684Y307805D01*
X4557Y307806D01*
X4429Y307814D01*
X4384Y307807D01*
X4338Y307807D01*
X4214Y307779D01*
X4088Y307758D01*
X4046Y307741D01*
X4001Y307731D01*
X3886Y307675D01*
X3769Y307626D01*
X3732Y307599D01*
X3690Y307579D01*
X3592Y307498D01*
X3489Y307424D01*
X3458Y307389D01*
X3423Y307360D01*
X3345Y307258D01*
X3262Y307162D01*
X3240Y307122D01*
X3212Y307085D01*
X3160Y306969D01*
X3101Y306856D01*
X3090Y306812D01*
X3071Y306770D01*
X3047Y306645D01*
X3015Y306522D01*
X3010Y306458D01*
X3005Y306430D01*
X3006Y306398D01*
X3001Y306317D01*
X3001Y193683D01*
X3015Y193557D01*
X3022Y193430D01*
X3035Y193385D01*
X3041Y193340D01*
X3084Y193220D01*
X3120Y193098D01*
X3142Y193058D01*
X3158Y193014D01*
X3228Y192908D01*
X3290Y192797D01*
X3322Y192763D01*
X3347Y192725D01*
X3439Y192637D01*
X3525Y192544D01*
X3564Y192518D01*
X3597Y192486D01*
X3707Y192422D01*
X3812Y192351D01*
X3856Y192335D01*
X3895Y192311D01*
X4017Y192274D01*
X4136Y192229D01*
X4181Y192223D01*
X4226Y192209D01*
X4353Y192200D01*
X4479Y192184D01*
X4525Y192189D01*
X4571Y192186D01*
X4696Y192206D01*
X4823Y192219D01*
X4866Y192234D01*
X4912Y192242D01*
X5029Y192290D01*
X5149Y192332D01*
X5189Y192357D01*
X5231Y192374D01*
X5334Y192448D01*
X5442Y192517D01*
X5474Y192549D01*
X5511Y192576D01*
X5595Y192673D01*
X5684Y192763D01*
X5719Y192816D01*
X5738Y192838D01*
X5753Y192866D01*
X5798Y192934D01*
X6009Y193299D01*
X7349Y195045D01*
X8905Y196601D01*
X10652Y197941D01*
X12558Y199041D01*
X14591Y199884D01*
X16717Y200453D01*
X17001Y200491D01*
X17001Y185450D01*
X17005Y185415D01*
X17002Y185380D01*
X17025Y185243D01*
X17041Y185107D01*
X17053Y185073D01*
X17058Y185038D01*
X17111Y184911D01*
X17158Y184782D01*
X17178Y184752D01*
X17191Y184719D01*
X17272Y184607D01*
X17347Y184492D01*
X17373Y184467D01*
X17393Y184439D01*
X17498Y184348D01*
X17597Y184253D01*
X17628Y184235D01*
X17654Y184212D01*
X17777Y184148D01*
X17895Y184078D01*
X17929Y184068D01*
X17961Y184051D01*
X18094Y184017D01*
X18226Y183976D01*
X18261Y183974D01*
X18295Y183965D01*
X18500Y183951D01*
X20001Y183951D01*
X20001Y183949D01*
X18500Y183949D01*
X18465Y183945D01*
X18429Y183947D01*
X18293Y183925D01*
X18157Y183909D01*
X18123Y183897D01*
X18088Y183891D01*
X17961Y183839D01*
X17831Y183792D01*
X17802Y183772D01*
X17769Y183759D01*
X17657Y183678D01*
X17542Y183603D01*
X17517Y183577D01*
X17489Y183557D01*
X17398Y183452D01*
X17303Y183353D01*
X17285Y183322D01*
X17262Y183295D01*
X17198Y183173D01*
X17128Y183055D01*
X17118Y183021D01*
X17101Y182989D01*
X17067Y182856D01*
X17026Y182724D01*
X17024Y182689D01*
X17015Y182655D01*
X17001Y182450D01*
X17001Y167409D01*
X16717Y167447D01*
X14591Y168016D01*
X12558Y168859D01*
X10652Y169959D01*
X8905Y171299D01*
X7349Y172855D01*
X6009Y174601D01*
X5798Y174966D01*
X5722Y175069D01*
X5653Y175175D01*
X5620Y175207D01*
X5592Y175244D01*
X5495Y175326D01*
X5403Y175414D01*
X5363Y175437D01*
X5328Y175467D01*
X5214Y175524D01*
X5105Y175589D01*
X5061Y175602D01*
X5020Y175623D01*
X4896Y175653D01*
X4774Y175691D01*
X4728Y175694D01*
X4684Y175705D01*
X4557Y175706D01*
X4429Y175714D01*
X4384Y175707D01*
X4338Y175707D01*
X4214Y175679D01*
X4088Y175658D01*
X4046Y175641D01*
X4001Y175631D01*
X3886Y175575D01*
X3769Y175526D01*
X3732Y175499D01*
X3690Y175479D01*
X3592Y175398D01*
X3489Y175324D01*
X3458Y175289D01*
X3423Y175260D01*
X3345Y175158D01*
X3262Y175062D01*
X3240Y175022D01*
X3212Y174985D01*
X3160Y174869D01*
X3101Y174756D01*
X3090Y174712D01*
X3071Y174670D01*
X3047Y174545D01*
X3015Y174422D01*
X3010Y174358D01*
X3005Y174330D01*
X3006Y174298D01*
X3001Y174217D01*
X3001Y30000D01*
X3005Y29968D01*
X3005Y29937D01*
X3003Y29917D01*
X3005Y29906D01*
X3005Y29882D01*
X3319Y25893D01*
X3334Y25821D01*
X3338Y25747D01*
X3384Y25562D01*
X3386Y25554D01*
X3387Y25552D01*
X3388Y25548D01*
X5853Y17960D01*
X5909Y17840D01*
X5957Y17716D01*
X5987Y17669D01*
X5998Y17646D01*
X6018Y17620D01*
X6066Y17542D01*
X10756Y11088D01*
X10812Y11026D01*
X10842Y10985D01*
X10870Y10961D01*
X10930Y10888D01*
X10972Y10852D01*
X10990Y10833D01*
X11018Y10814D01*
X11088Y10756D01*
X17542Y6066D01*
X17658Y6001D01*
X17770Y5930D01*
X17821Y5909D01*
X17843Y5897D01*
X17875Y5888D01*
X17960Y5853D01*
X25548Y3388D01*
X25620Y3373D01*
X25690Y3349D01*
X25878Y3322D01*
X25887Y3320D01*
X25889Y3320D01*
X25893Y3319D01*
X29882Y3005D01*
X29915Y3007D01*
X30000Y3001D01*
X620000Y3001D01*
X620032Y3005D01*
G37*
%LPC*%
G36*
X315586Y8159D02*
X315586Y8159D01*
X312050Y9624D01*
X309344Y12330D01*
X307879Y15866D01*
X307879Y34934D01*
X309344Y38470D01*
X310814Y39940D01*
X310879Y40022D01*
X310951Y40097D01*
X310986Y40157D01*
X311029Y40211D01*
X311073Y40305D01*
X311126Y40395D01*
X311146Y40461D01*
X311176Y40524D01*
X311197Y40626D01*
X311228Y40726D01*
X311233Y40795D01*
X311247Y40862D01*
X311244Y40966D01*
X311252Y41071D01*
X311240Y41139D01*
X311239Y41208D01*
X311212Y41309D01*
X311196Y41412D01*
X311169Y41476D01*
X311152Y41542D01*
X311103Y41635D01*
X311063Y41731D01*
X311023Y41787D01*
X310990Y41848D01*
X310922Y41927D01*
X310861Y42011D01*
X310808Y42057D01*
X310763Y42109D01*
X310679Y42170D01*
X310600Y42238D01*
X310538Y42270D01*
X310482Y42311D01*
X310386Y42350D01*
X310293Y42399D01*
X310226Y42416D01*
X310163Y42442D01*
X310060Y42459D01*
X309959Y42485D01*
X309855Y42492D01*
X309821Y42498D01*
X309799Y42496D01*
X309754Y42499D01*
X288550Y42499D01*
X286060Y44989D01*
X274560Y56489D01*
X274478Y56554D01*
X274403Y56626D01*
X274343Y56661D01*
X274289Y56704D01*
X274195Y56748D01*
X274105Y56801D01*
X274039Y56821D01*
X273976Y56851D01*
X273874Y56872D01*
X273774Y56903D01*
X273705Y56908D01*
X273638Y56922D01*
X273534Y56919D01*
X273429Y56927D01*
X273361Y56915D01*
X273292Y56914D01*
X273191Y56887D01*
X273088Y56871D01*
X273024Y56844D01*
X272958Y56827D01*
X272865Y56778D01*
X272769Y56738D01*
X272713Y56697D01*
X272652Y56665D01*
X272573Y56597D01*
X272489Y56536D01*
X272443Y56483D01*
X272391Y56438D01*
X272330Y56353D01*
X272262Y56275D01*
X272230Y56213D01*
X272189Y56157D01*
X272150Y56061D01*
X272101Y55968D01*
X272084Y55902D01*
X272057Y55838D01*
X272041Y55735D01*
X272015Y55634D01*
X272008Y55530D01*
X272002Y55496D01*
X272004Y55474D01*
X272001Y55429D01*
X272001Y36206D01*
X271087Y34001D01*
X262980Y25894D01*
X262893Y25784D01*
X262802Y25679D01*
X262786Y25649D01*
X262765Y25622D01*
X262706Y25496D01*
X262641Y25373D01*
X262633Y25340D01*
X262618Y25309D01*
X262590Y25173D01*
X262555Y25038D01*
X262552Y24993D01*
X262547Y24971D01*
X262548Y24937D01*
X262541Y24833D01*
X262541Y23701D01*
X261240Y20562D01*
X258838Y18160D01*
X255699Y16859D01*
X252301Y16859D01*
X249162Y18160D01*
X246760Y20562D01*
X245459Y23701D01*
X245459Y27099D01*
X246760Y30238D01*
X249162Y32640D01*
X252301Y33941D01*
X253433Y33941D01*
X253572Y33957D01*
X253711Y33967D01*
X253743Y33977D01*
X253777Y33981D01*
X253908Y34028D01*
X254041Y34069D01*
X254070Y34087D01*
X254102Y34098D01*
X254219Y34174D01*
X254339Y34245D01*
X254373Y34275D01*
X254392Y34287D01*
X254415Y34311D01*
X254494Y34380D01*
X259560Y39446D01*
X259630Y39535D01*
X259672Y39579D01*
X259683Y39598D01*
X259738Y39661D01*
X259754Y39691D01*
X259775Y39718D01*
X259834Y39844D01*
X259899Y39967D01*
X259907Y40000D01*
X259922Y40031D01*
X259950Y40167D01*
X259985Y40302D01*
X259988Y40347D01*
X259993Y40369D01*
X259992Y40403D01*
X259999Y40507D01*
X259999Y216296D01*
X259987Y216400D01*
X259985Y216504D01*
X259967Y216571D01*
X259959Y216640D01*
X259924Y216738D01*
X259898Y216839D01*
X259865Y216900D01*
X259842Y216965D01*
X259785Y217052D01*
X259736Y217145D01*
X259691Y217197D01*
X259653Y217255D01*
X259578Y217327D01*
X259509Y217405D01*
X259453Y217446D01*
X259403Y217493D01*
X259313Y217546D01*
X259228Y217607D01*
X259164Y217633D01*
X259105Y217668D01*
X259005Y217699D01*
X258909Y217739D01*
X258840Y217750D01*
X258774Y217770D01*
X258670Y217777D01*
X258567Y217794D01*
X258498Y217789D01*
X258429Y217794D01*
X258327Y217777D01*
X258222Y217770D01*
X258156Y217749D01*
X258088Y217738D01*
X257992Y217698D01*
X257892Y217667D01*
X257833Y217632D01*
X257769Y217605D01*
X257685Y217544D01*
X257595Y217491D01*
X257516Y217423D01*
X257489Y217403D01*
X257474Y217386D01*
X257440Y217357D01*
X255881Y215798D01*
X252065Y214217D01*
X247935Y214217D01*
X244119Y215798D01*
X241198Y218719D01*
X239617Y222535D01*
X239617Y226665D01*
X241198Y230481D01*
X244119Y233402D01*
X247935Y234983D01*
X252065Y234983D01*
X255881Y233402D01*
X257440Y231843D01*
X257522Y231779D01*
X257597Y231707D01*
X257657Y231672D01*
X257711Y231629D01*
X257805Y231584D01*
X257895Y231532D01*
X257961Y231511D01*
X258024Y231482D01*
X258126Y231460D01*
X258226Y231430D01*
X258295Y231425D01*
X258362Y231411D01*
X258466Y231413D01*
X258571Y231406D01*
X258639Y231417D01*
X258708Y231419D01*
X258809Y231445D01*
X258912Y231462D01*
X258976Y231489D01*
X259042Y231506D01*
X259135Y231555D01*
X259231Y231595D01*
X259287Y231635D01*
X259348Y231667D01*
X259427Y231736D01*
X259511Y231797D01*
X259557Y231849D01*
X259609Y231895D01*
X259670Y231979D01*
X259738Y232058D01*
X259770Y232119D01*
X259811Y232175D01*
X259850Y232272D01*
X259899Y232364D01*
X259916Y232431D01*
X259942Y232495D01*
X259959Y232598D01*
X259985Y232699D01*
X259992Y232803D01*
X259998Y232836D01*
X259996Y232859D01*
X259999Y232904D01*
X259999Y240933D01*
X259987Y241036D01*
X259985Y241141D01*
X259967Y241208D01*
X259959Y241276D01*
X259924Y241374D01*
X259898Y241475D01*
X259865Y241536D01*
X259842Y241601D01*
X259785Y241689D01*
X259736Y241781D01*
X259691Y241833D01*
X259653Y241891D01*
X259578Y241963D01*
X259509Y242042D01*
X259453Y242082D01*
X259403Y242130D01*
X259313Y242182D01*
X259228Y242243D01*
X259164Y242270D01*
X259105Y242305D01*
X259005Y242335D01*
X258909Y242375D01*
X258840Y242386D01*
X258774Y242407D01*
X258670Y242414D01*
X258567Y242430D01*
X258498Y242426D01*
X258429Y242430D01*
X258326Y242413D01*
X258222Y242406D01*
X258156Y242385D01*
X258088Y242374D01*
X257992Y242334D01*
X257892Y242303D01*
X257833Y242268D01*
X257769Y242242D01*
X257684Y242181D01*
X257594Y242128D01*
X257516Y242059D01*
X257489Y242039D01*
X257474Y242022D01*
X257440Y241993D01*
X257116Y241669D01*
X255725Y240658D01*
X254193Y239878D01*
X252558Y239346D01*
X252499Y239337D01*
X252499Y249000D01*
X252495Y249035D01*
X252498Y249070D01*
X252475Y249206D01*
X252459Y249343D01*
X252447Y249377D01*
X252442Y249412D01*
X252389Y249539D01*
X252342Y249668D01*
X252323Y249698D01*
X252309Y249731D01*
X252228Y249843D01*
X252153Y249958D01*
X252127Y249982D01*
X252110Y250006D01*
X252197Y250097D01*
X252215Y250128D01*
X252238Y250155D01*
X252302Y250277D01*
X252372Y250395D01*
X252382Y250429D01*
X252399Y250461D01*
X252433Y250594D01*
X252474Y250726D01*
X252476Y250761D01*
X252485Y250796D01*
X252499Y251000D01*
X252499Y260663D01*
X252558Y260654D01*
X254193Y260122D01*
X255725Y259342D01*
X257116Y258331D01*
X257440Y258007D01*
X257522Y257942D01*
X257597Y257870D01*
X257657Y257835D01*
X257711Y257793D01*
X257805Y257748D01*
X257895Y257695D01*
X257961Y257675D01*
X258024Y257646D01*
X258126Y257624D01*
X258226Y257593D01*
X258295Y257589D01*
X258362Y257574D01*
X258466Y257577D01*
X258571Y257570D01*
X258639Y257581D01*
X258708Y257583D01*
X258809Y257609D01*
X258912Y257626D01*
X258975Y257652D01*
X259042Y257670D01*
X259135Y257718D01*
X259231Y257758D01*
X259287Y257799D01*
X259348Y257831D01*
X259427Y257900D01*
X259511Y257961D01*
X259557Y258013D01*
X259609Y258058D01*
X259670Y258143D01*
X259738Y258222D01*
X259770Y258283D01*
X259811Y258339D01*
X259850Y258435D01*
X259899Y258528D01*
X259916Y258595D01*
X259942Y258659D01*
X259959Y258762D01*
X259985Y258863D01*
X259992Y258966D01*
X259998Y259000D01*
X259996Y259022D01*
X259999Y259067D01*
X259999Y267096D01*
X259987Y267200D01*
X259985Y267304D01*
X259967Y267371D01*
X259959Y267440D01*
X259924Y267538D01*
X259898Y267639D01*
X259865Y267700D01*
X259842Y267765D01*
X259785Y267852D01*
X259736Y267945D01*
X259691Y267997D01*
X259653Y268055D01*
X259578Y268127D01*
X259509Y268205D01*
X259453Y268246D01*
X259403Y268293D01*
X259313Y268346D01*
X259228Y268407D01*
X259164Y268433D01*
X259105Y268468D01*
X259005Y268499D01*
X258909Y268539D01*
X258840Y268550D01*
X258774Y268570D01*
X258670Y268577D01*
X258567Y268594D01*
X258498Y268589D01*
X258429Y268594D01*
X258327Y268577D01*
X258222Y268570D01*
X258156Y268549D01*
X258088Y268538D01*
X257992Y268498D01*
X257892Y268467D01*
X257833Y268432D01*
X257769Y268405D01*
X257685Y268344D01*
X257595Y268291D01*
X257516Y268223D01*
X257489Y268203D01*
X257474Y268186D01*
X257440Y268157D01*
X255881Y266598D01*
X252065Y265017D01*
X247935Y265017D01*
X244119Y266598D01*
X241198Y269519D01*
X239617Y273335D01*
X239617Y276675D01*
X239601Y276814D01*
X239591Y276953D01*
X239581Y276985D01*
X239577Y277019D01*
X239530Y277150D01*
X239489Y277283D01*
X239471Y277312D01*
X239460Y277344D01*
X239384Y277461D01*
X239313Y277581D01*
X239283Y277615D01*
X239271Y277634D01*
X239247Y277657D01*
X239178Y277736D01*
X193354Y323560D01*
X193244Y323647D01*
X193139Y323738D01*
X193109Y323754D01*
X193082Y323775D01*
X192956Y323834D01*
X192833Y323899D01*
X192800Y323907D01*
X192769Y323922D01*
X192633Y323950D01*
X192498Y323985D01*
X192453Y323988D01*
X192431Y323993D01*
X192397Y323992D01*
X192293Y323999D01*
X173575Y323999D01*
X173557Y323997D01*
X173539Y323999D01*
X173386Y323977D01*
X173300Y323967D01*
X170710Y323967D01*
X170666Y323980D01*
X170647Y323981D01*
X170629Y323985D01*
X170425Y323999D01*
X94806Y323999D01*
X92601Y324913D01*
X64913Y352601D01*
X63999Y354806D01*
X63999Y525194D01*
X64913Y527399D01*
X74148Y536634D01*
X74235Y536744D01*
X74326Y536849D01*
X74342Y536879D01*
X74363Y536906D01*
X74422Y537032D01*
X74487Y537155D01*
X74495Y537188D01*
X74510Y537219D01*
X74538Y537355D01*
X74573Y537490D01*
X74576Y537535D01*
X74581Y537557D01*
X74580Y537591D01*
X74587Y537695D01*
X74587Y541475D01*
X79925Y546813D01*
X87475Y546813D01*
X90147Y544140D01*
X90257Y544053D01*
X90362Y543962D01*
X90392Y543946D01*
X90418Y543925D01*
X90544Y543866D01*
X90668Y543801D01*
X90701Y543793D01*
X90731Y543778D01*
X90868Y543750D01*
X91003Y543715D01*
X91048Y543712D01*
X91070Y543707D01*
X91103Y543708D01*
X91208Y543701D01*
X101592Y543701D01*
X101731Y543717D01*
X101870Y543727D01*
X101902Y543737D01*
X101936Y543741D01*
X102067Y543788D01*
X102200Y543829D01*
X102229Y543847D01*
X102261Y543858D01*
X102378Y543934D01*
X102498Y544005D01*
X102532Y544035D01*
X102551Y544047D01*
X102574Y544071D01*
X102653Y544140D01*
X105325Y546813D01*
X112875Y546813D01*
X118213Y541475D01*
X118213Y533925D01*
X112875Y528587D01*
X105325Y528587D01*
X102653Y531260D01*
X102543Y531347D01*
X102438Y531438D01*
X102408Y531454D01*
X102382Y531475D01*
X102256Y531534D01*
X102132Y531599D01*
X102099Y531607D01*
X102069Y531622D01*
X101932Y531650D01*
X101797Y531685D01*
X101752Y531688D01*
X101730Y531693D01*
X101697Y531692D01*
X101592Y531699D01*
X91208Y531699D01*
X91069Y531683D01*
X90930Y531673D01*
X90898Y531663D01*
X90864Y531659D01*
X90733Y531612D01*
X90600Y531571D01*
X90571Y531553D01*
X90539Y531542D01*
X90422Y531466D01*
X90302Y531395D01*
X90268Y531365D01*
X90249Y531353D01*
X90226Y531329D01*
X90147Y531260D01*
X87475Y528587D01*
X83695Y528587D01*
X83556Y528571D01*
X83417Y528561D01*
X83385Y528551D01*
X83351Y528547D01*
X83220Y528500D01*
X83087Y528459D01*
X83058Y528441D01*
X83026Y528430D01*
X82909Y528354D01*
X82789Y528283D01*
X82755Y528253D01*
X82736Y528241D01*
X82713Y528217D01*
X82634Y528148D01*
X76994Y522508D01*
X76962Y522467D01*
X76923Y522432D01*
X76855Y522332D01*
X76780Y522237D01*
X76757Y522190D01*
X76728Y522146D01*
X76684Y522033D01*
X76633Y521924D01*
X76622Y521873D01*
X76603Y521824D01*
X76586Y521704D01*
X76562Y521586D01*
X76563Y521533D01*
X76556Y521482D01*
X76567Y521361D01*
X76570Y521240D01*
X76583Y521189D01*
X76588Y521137D01*
X76626Y521023D01*
X76657Y520905D01*
X76681Y520859D01*
X76698Y520810D01*
X76762Y520706D01*
X76818Y520600D01*
X76853Y520560D01*
X76880Y520516D01*
X76966Y520430D01*
X77045Y520339D01*
X77088Y520309D01*
X77125Y520272D01*
X77228Y520208D01*
X77326Y520137D01*
X77375Y520117D01*
X77419Y520090D01*
X77534Y520052D01*
X77646Y520005D01*
X77697Y519997D01*
X77747Y519980D01*
X77867Y519969D01*
X77987Y519950D01*
X78039Y519954D01*
X78091Y519949D01*
X78211Y519966D01*
X78332Y519975D01*
X78382Y519990D01*
X78434Y519997D01*
X78628Y520063D01*
X81887Y521413D01*
X85513Y521413D01*
X88862Y520025D01*
X91425Y517462D01*
X92813Y514113D01*
X92813Y510487D01*
X91425Y507138D01*
X88862Y504575D01*
X85513Y503187D01*
X81887Y503187D01*
X78526Y504580D01*
X78478Y504617D01*
X78403Y504689D01*
X78343Y504724D01*
X78289Y504767D01*
X78195Y504812D01*
X78105Y504864D01*
X78039Y504885D01*
X77976Y504914D01*
X77874Y504936D01*
X77774Y504966D01*
X77705Y504971D01*
X77638Y504985D01*
X77534Y504983D01*
X77429Y504990D01*
X77361Y504979D01*
X77292Y504977D01*
X77191Y504951D01*
X77088Y504934D01*
X77025Y504908D01*
X76958Y504890D01*
X76865Y504841D01*
X76769Y504801D01*
X76713Y504761D01*
X76652Y504729D01*
X76573Y504660D01*
X76489Y504599D01*
X76443Y504547D01*
X76391Y504502D01*
X76330Y504417D01*
X76262Y504338D01*
X76230Y504277D01*
X76190Y504221D01*
X76150Y504124D01*
X76101Y504032D01*
X76084Y503965D01*
X76058Y503901D01*
X76041Y503798D01*
X76015Y503697D01*
X76008Y503593D01*
X76002Y503560D01*
X76004Y503538D01*
X76001Y503492D01*
X76001Y359107D01*
X76017Y358968D01*
X76027Y358829D01*
X76037Y358797D01*
X76041Y358763D01*
X76088Y358632D01*
X76129Y358499D01*
X76147Y358470D01*
X76158Y358438D01*
X76234Y358321D01*
X76305Y358201D01*
X76335Y358167D01*
X76347Y358148D01*
X76371Y358125D01*
X76440Y358046D01*
X98046Y336440D01*
X98156Y336353D01*
X98261Y336262D01*
X98291Y336246D01*
X98318Y336225D01*
X98444Y336166D01*
X98567Y336101D01*
X98600Y336093D01*
X98631Y336078D01*
X98767Y336050D01*
X98902Y336015D01*
X98947Y336012D01*
X98969Y336007D01*
X99003Y336008D01*
X99107Y336001D01*
X170425Y336001D01*
X170443Y336003D01*
X170461Y336001D01*
X170614Y336023D01*
X170700Y336033D01*
X173290Y336033D01*
X173334Y336020D01*
X173353Y336019D01*
X173371Y336015D01*
X173575Y336001D01*
X196594Y336001D01*
X198799Y335087D01*
X247664Y286222D01*
X247774Y286135D01*
X247879Y286044D01*
X247909Y286028D01*
X247936Y286007D01*
X248062Y285948D01*
X248185Y285883D01*
X248218Y285875D01*
X248249Y285860D01*
X248385Y285832D01*
X248520Y285797D01*
X248565Y285794D01*
X248587Y285789D01*
X248621Y285790D01*
X248725Y285783D01*
X252065Y285783D01*
X255881Y284202D01*
X257440Y282643D01*
X257522Y282579D01*
X257597Y282507D01*
X257657Y282472D01*
X257711Y282429D01*
X257805Y282384D01*
X257895Y282332D01*
X257961Y282311D01*
X258024Y282282D01*
X258126Y282260D01*
X258226Y282230D01*
X258295Y282225D01*
X258362Y282211D01*
X258466Y282213D01*
X258571Y282206D01*
X258639Y282217D01*
X258708Y282219D01*
X258809Y282245D01*
X258912Y282262D01*
X258976Y282289D01*
X259042Y282306D01*
X259135Y282355D01*
X259231Y282395D01*
X259287Y282435D01*
X259348Y282467D01*
X259427Y282536D01*
X259511Y282597D01*
X259557Y282649D01*
X259609Y282695D01*
X259670Y282779D01*
X259738Y282858D01*
X259770Y282919D01*
X259811Y282975D01*
X259850Y283072D01*
X259899Y283164D01*
X259916Y283231D01*
X259942Y283295D01*
X259959Y283398D01*
X259985Y283499D01*
X259992Y283603D01*
X259998Y283636D01*
X259996Y283659D01*
X259999Y283704D01*
X259999Y376296D01*
X259987Y376400D01*
X259985Y376504D01*
X259967Y376571D01*
X259959Y376640D01*
X259924Y376738D01*
X259898Y376839D01*
X259865Y376900D01*
X259842Y376965D01*
X259785Y377052D01*
X259736Y377145D01*
X259691Y377197D01*
X259653Y377255D01*
X259578Y377327D01*
X259509Y377405D01*
X259453Y377446D01*
X259403Y377493D01*
X259313Y377546D01*
X259228Y377607D01*
X259164Y377633D01*
X259105Y377668D01*
X259005Y377699D01*
X258909Y377739D01*
X258840Y377750D01*
X258774Y377770D01*
X258670Y377777D01*
X258567Y377794D01*
X258498Y377789D01*
X258429Y377794D01*
X258327Y377777D01*
X258222Y377770D01*
X258156Y377749D01*
X258088Y377738D01*
X257992Y377698D01*
X257892Y377667D01*
X257833Y377632D01*
X257769Y377605D01*
X257685Y377544D01*
X257595Y377491D01*
X257516Y377423D01*
X257489Y377403D01*
X257474Y377386D01*
X257440Y377357D01*
X255881Y375798D01*
X252065Y374217D01*
X247935Y374217D01*
X244119Y375798D01*
X241198Y378719D01*
X239617Y382535D01*
X239617Y386665D01*
X241198Y390481D01*
X244119Y393402D01*
X247935Y394983D01*
X252065Y394983D01*
X255881Y393402D01*
X257440Y391843D01*
X257522Y391779D01*
X257597Y391707D01*
X257657Y391672D01*
X257711Y391629D01*
X257805Y391584D01*
X257895Y391532D01*
X257961Y391511D01*
X258024Y391482D01*
X258126Y391460D01*
X258226Y391430D01*
X258295Y391425D01*
X258362Y391411D01*
X258466Y391413D01*
X258571Y391406D01*
X258639Y391417D01*
X258708Y391419D01*
X258809Y391445D01*
X258912Y391462D01*
X258976Y391489D01*
X259042Y391506D01*
X259135Y391555D01*
X259231Y391595D01*
X259287Y391635D01*
X259348Y391667D01*
X259427Y391736D01*
X259511Y391797D01*
X259557Y391849D01*
X259609Y391895D01*
X259670Y391979D01*
X259738Y392058D01*
X259770Y392119D01*
X259811Y392175D01*
X259850Y392272D01*
X259899Y392364D01*
X259916Y392431D01*
X259942Y392495D01*
X259959Y392598D01*
X259985Y392699D01*
X259992Y392803D01*
X259998Y392836D01*
X259996Y392859D01*
X259999Y392904D01*
X259999Y400933D01*
X259987Y401036D01*
X259985Y401141D01*
X259967Y401208D01*
X259959Y401276D01*
X259924Y401374D01*
X259898Y401475D01*
X259865Y401536D01*
X259842Y401601D01*
X259785Y401689D01*
X259736Y401781D01*
X259691Y401833D01*
X259653Y401891D01*
X259578Y401963D01*
X259509Y402042D01*
X259453Y402082D01*
X259403Y402130D01*
X259313Y402182D01*
X259228Y402243D01*
X259164Y402270D01*
X259105Y402305D01*
X259005Y402335D01*
X258909Y402375D01*
X258840Y402386D01*
X258774Y402407D01*
X258670Y402414D01*
X258567Y402430D01*
X258498Y402426D01*
X258429Y402430D01*
X258326Y402413D01*
X258222Y402406D01*
X258156Y402385D01*
X258088Y402374D01*
X257992Y402334D01*
X257892Y402303D01*
X257833Y402268D01*
X257769Y402242D01*
X257684Y402181D01*
X257594Y402128D01*
X257516Y402059D01*
X257489Y402039D01*
X257474Y402022D01*
X257440Y401993D01*
X257116Y401669D01*
X255725Y400658D01*
X254193Y399878D01*
X252558Y399346D01*
X252499Y399337D01*
X252499Y409000D01*
X252495Y409035D01*
X252498Y409070D01*
X252475Y409206D01*
X252459Y409343D01*
X252447Y409377D01*
X252442Y409412D01*
X252389Y409539D01*
X252342Y409668D01*
X252323Y409698D01*
X252309Y409731D01*
X252228Y409843D01*
X252153Y409958D01*
X252127Y409982D01*
X252110Y410006D01*
X252197Y410097D01*
X252215Y410128D01*
X252238Y410155D01*
X252302Y410277D01*
X252372Y410395D01*
X252382Y410429D01*
X252399Y410461D01*
X252433Y410594D01*
X252474Y410726D01*
X252476Y410761D01*
X252485Y410796D01*
X252499Y411000D01*
X252499Y420667D01*
X252620Y420670D01*
X252745Y420665D01*
X252793Y420674D01*
X252842Y420675D01*
X252962Y420706D01*
X253084Y420730D01*
X253129Y420750D01*
X253176Y420762D01*
X253286Y420820D01*
X253400Y420871D01*
X253439Y420901D01*
X253482Y420923D01*
X253576Y421005D01*
X253675Y421081D01*
X253706Y421118D01*
X253743Y421151D01*
X253815Y421252D01*
X253894Y421348D01*
X253916Y421392D01*
X253944Y421431D01*
X253992Y421546D01*
X254047Y421658D01*
X254058Y421706D01*
X254076Y421751D01*
X254096Y421874D01*
X254124Y421995D01*
X254124Y422044D01*
X254132Y422092D01*
X254123Y422217D01*
X254122Y422341D01*
X254111Y422388D01*
X254107Y422437D01*
X254070Y422556D01*
X254041Y422677D01*
X254019Y422721D01*
X254004Y422767D01*
X253941Y422874D01*
X253885Y422986D01*
X253854Y423023D01*
X253829Y423065D01*
X253694Y423220D01*
X252336Y424578D01*
X252226Y424665D01*
X252121Y424756D01*
X252091Y424772D01*
X252064Y424793D01*
X251938Y424852D01*
X251815Y424917D01*
X251782Y424925D01*
X251751Y424940D01*
X251615Y424968D01*
X251480Y425003D01*
X251435Y425006D01*
X251413Y425011D01*
X251380Y425010D01*
X251275Y425017D01*
X247935Y425017D01*
X244119Y426598D01*
X241198Y429519D01*
X239617Y433335D01*
X239617Y437465D01*
X240220Y438920D01*
X240244Y439004D01*
X240277Y439085D01*
X240291Y439170D01*
X240315Y439253D01*
X240319Y439340D01*
X240333Y439427D01*
X240327Y439513D01*
X240330Y439598D01*
X240314Y439684D01*
X240308Y439772D01*
X240283Y439854D01*
X240267Y439938D01*
X240231Y440018D01*
X240205Y440102D01*
X240162Y440176D01*
X240127Y440254D01*
X240074Y440324D01*
X240030Y440400D01*
X239935Y440508D01*
X239919Y440530D01*
X239909Y440538D01*
X239895Y440554D01*
X226389Y454060D01*
X226280Y454147D01*
X226174Y454238D01*
X226144Y454254D01*
X226118Y454275D01*
X225992Y454334D01*
X225868Y454399D01*
X225836Y454407D01*
X225805Y454422D01*
X225669Y454450D01*
X225534Y454485D01*
X225488Y454488D01*
X225467Y454493D01*
X225433Y454492D01*
X225329Y454499D01*
X185298Y454499D01*
X185160Y454483D01*
X185021Y454473D01*
X184988Y454463D01*
X184955Y454459D01*
X184824Y454412D01*
X184691Y454371D01*
X184661Y454353D01*
X184630Y454342D01*
X184513Y454266D01*
X184393Y454195D01*
X184359Y454165D01*
X184340Y454153D01*
X184317Y454129D01*
X184238Y454060D01*
X183276Y453098D01*
X181150Y452217D01*
X178850Y452217D01*
X176724Y453098D01*
X175098Y454724D01*
X174217Y456850D01*
X174217Y459150D01*
X175098Y461276D01*
X176724Y462902D01*
X178850Y463783D01*
X181150Y463783D01*
X183276Y462902D01*
X184238Y461940D01*
X184347Y461853D01*
X184453Y461762D01*
X184483Y461746D01*
X184509Y461725D01*
X184635Y461666D01*
X184759Y461601D01*
X184792Y461593D01*
X184822Y461578D01*
X184958Y461550D01*
X185094Y461515D01*
X185139Y461512D01*
X185161Y461507D01*
X185194Y461508D01*
X185298Y461501D01*
X228850Y461501D01*
X244846Y445505D01*
X244914Y445451D01*
X244976Y445389D01*
X245050Y445344D01*
X245117Y445290D01*
X245196Y445253D01*
X245271Y445207D01*
X245352Y445180D01*
X245430Y445143D01*
X245515Y445125D01*
X245599Y445098D01*
X245684Y445090D01*
X245768Y445072D01*
X245856Y445074D01*
X245943Y445066D01*
X246028Y445078D01*
X246114Y445080D01*
X246199Y445102D01*
X246285Y445115D01*
X246422Y445161D01*
X246448Y445167D01*
X246459Y445173D01*
X246480Y445180D01*
X247935Y445783D01*
X249647Y445783D01*
X249750Y445795D01*
X249855Y445797D01*
X249922Y445815D01*
X249990Y445823D01*
X250089Y445858D01*
X250189Y445884D01*
X250250Y445917D01*
X250316Y445940D01*
X250403Y445997D01*
X250495Y446046D01*
X250547Y446091D01*
X250605Y446129D01*
X250677Y446204D01*
X250756Y446273D01*
X250796Y446329D01*
X250844Y446379D01*
X250897Y446469D01*
X250958Y446554D01*
X250984Y446618D01*
X251019Y446677D01*
X251050Y446777D01*
X251089Y446873D01*
X251101Y446942D01*
X251121Y447008D01*
X251128Y447112D01*
X251145Y447215D01*
X251140Y447284D01*
X251145Y447353D01*
X251128Y447455D01*
X251120Y447560D01*
X251100Y447626D01*
X251089Y447694D01*
X251049Y447790D01*
X251018Y447890D01*
X250982Y447949D01*
X250956Y448013D01*
X250895Y448098D01*
X250842Y448187D01*
X250773Y448266D01*
X250754Y448293D01*
X250737Y448308D01*
X250707Y448342D01*
X216989Y482060D01*
X216880Y482147D01*
X216774Y482238D01*
X216744Y482254D01*
X216718Y482275D01*
X216592Y482334D01*
X216468Y482399D01*
X216436Y482407D01*
X216405Y482422D01*
X216269Y482450D01*
X216134Y482485D01*
X216088Y482488D01*
X216067Y482493D01*
X216033Y482492D01*
X215929Y482499D01*
X133950Y482499D01*
X113701Y502748D01*
X113592Y502835D01*
X113486Y502926D01*
X113456Y502942D01*
X113430Y502963D01*
X113304Y503022D01*
X113180Y503087D01*
X113148Y503095D01*
X113117Y503110D01*
X112981Y503138D01*
X112846Y503173D01*
X112800Y503176D01*
X112779Y503181D01*
X112745Y503180D01*
X112641Y503187D01*
X105325Y503187D01*
X99987Y508525D01*
X99987Y516075D01*
X105325Y521413D01*
X112875Y521413D01*
X118213Y516075D01*
X118213Y508759D01*
X118229Y508621D01*
X118239Y508482D01*
X118249Y508449D01*
X118253Y508416D01*
X118300Y508285D01*
X118341Y508151D01*
X118359Y508122D01*
X118370Y508090D01*
X118446Y507974D01*
X118517Y507854D01*
X118547Y507820D01*
X118559Y507801D01*
X118583Y507778D01*
X118652Y507699D01*
X136411Y489940D01*
X136520Y489853D01*
X136626Y489762D01*
X136656Y489746D01*
X136682Y489725D01*
X136808Y489666D01*
X136932Y489601D01*
X136964Y489593D01*
X136995Y489578D01*
X137131Y489550D01*
X137266Y489515D01*
X137312Y489512D01*
X137333Y489507D01*
X137367Y489508D01*
X137471Y489501D01*
X148729Y489501D01*
X148832Y489513D01*
X148937Y489515D01*
X149004Y489533D01*
X149072Y489541D01*
X149171Y489576D01*
X149271Y489602D01*
X149332Y489635D01*
X149398Y489658D01*
X149485Y489715D01*
X149577Y489764D01*
X149629Y489809D01*
X149687Y489847D01*
X149759Y489922D01*
X149838Y489991D01*
X149878Y490047D01*
X149926Y490097D01*
X149979Y490187D01*
X150040Y490272D01*
X150066Y490336D01*
X150101Y490395D01*
X150132Y490495D01*
X150171Y490591D01*
X150183Y490660D01*
X150203Y490726D01*
X150210Y490830D01*
X150227Y490933D01*
X150222Y491002D01*
X150227Y491071D01*
X150210Y491173D01*
X150202Y491278D01*
X150182Y491344D01*
X150171Y491412D01*
X150131Y491508D01*
X150100Y491608D01*
X150064Y491667D01*
X150038Y491731D01*
X149977Y491816D01*
X149924Y491905D01*
X149855Y491984D01*
X149836Y492011D01*
X149819Y492026D01*
X149789Y492060D01*
X139101Y502748D01*
X138992Y502835D01*
X138886Y502926D01*
X138856Y502942D01*
X138830Y502963D01*
X138704Y503022D01*
X138580Y503087D01*
X138548Y503095D01*
X138517Y503110D01*
X138381Y503138D01*
X138246Y503173D01*
X138200Y503176D01*
X138179Y503181D01*
X138145Y503180D01*
X138041Y503187D01*
X130725Y503187D01*
X125387Y508525D01*
X125387Y516075D01*
X130725Y521413D01*
X138275Y521413D01*
X143613Y516075D01*
X143613Y508759D01*
X143629Y508621D01*
X143639Y508482D01*
X143649Y508449D01*
X143653Y508416D01*
X143700Y508285D01*
X143741Y508151D01*
X143759Y508122D01*
X143770Y508090D01*
X143846Y507974D01*
X143917Y507854D01*
X143947Y507820D01*
X143959Y507801D01*
X143983Y507778D01*
X144052Y507699D01*
X156811Y494940D01*
X156920Y494853D01*
X157026Y494762D01*
X157056Y494746D01*
X157082Y494725D01*
X157208Y494666D01*
X157332Y494601D01*
X157364Y494593D01*
X157395Y494578D01*
X157531Y494550D01*
X157666Y494515D01*
X157712Y494512D01*
X157733Y494507D01*
X157767Y494508D01*
X157871Y494501D01*
X176929Y494501D01*
X177032Y494513D01*
X177137Y494515D01*
X177204Y494533D01*
X177272Y494541D01*
X177371Y494576D01*
X177471Y494602D01*
X177532Y494635D01*
X177598Y494658D01*
X177685Y494715D01*
X177777Y494764D01*
X177829Y494809D01*
X177887Y494847D01*
X177959Y494922D01*
X178038Y494991D01*
X178078Y495047D01*
X178126Y495097D01*
X178179Y495187D01*
X178240Y495272D01*
X178266Y495336D01*
X178301Y495395D01*
X178332Y495495D01*
X178371Y495591D01*
X178383Y495660D01*
X178403Y495726D01*
X178410Y495830D01*
X178427Y495933D01*
X178422Y496002D01*
X178427Y496071D01*
X178410Y496173D01*
X178402Y496278D01*
X178382Y496344D01*
X178371Y496412D01*
X178331Y496508D01*
X178300Y496608D01*
X178264Y496667D01*
X178238Y496731D01*
X178177Y496816D01*
X178124Y496905D01*
X178055Y496984D01*
X178036Y497011D01*
X178019Y497026D01*
X177989Y497060D01*
X172989Y502060D01*
X170499Y504550D01*
X170499Y506392D01*
X170487Y506496D01*
X170485Y506600D01*
X170467Y506667D01*
X170459Y506736D01*
X170424Y506834D01*
X170398Y506935D01*
X170365Y506996D01*
X170342Y507061D01*
X170285Y507149D01*
X170236Y507241D01*
X170191Y507293D01*
X170153Y507351D01*
X170078Y507423D01*
X170009Y507501D01*
X169953Y507542D01*
X169903Y507589D01*
X169813Y507642D01*
X169728Y507703D01*
X169664Y507729D01*
X169605Y507764D01*
X169505Y507795D01*
X169409Y507835D01*
X169340Y507846D01*
X169274Y507866D01*
X169170Y507874D01*
X169067Y507890D01*
X168998Y507885D01*
X168929Y507890D01*
X168827Y507873D01*
X168722Y507866D01*
X168656Y507845D01*
X168588Y507834D01*
X168492Y507794D01*
X168392Y507763D01*
X168333Y507728D01*
X168269Y507701D01*
X168184Y507640D01*
X168095Y507587D01*
X168016Y507519D01*
X167989Y507499D01*
X167974Y507482D01*
X167940Y507453D01*
X163675Y503187D01*
X156125Y503187D01*
X150787Y508525D01*
X150787Y516075D01*
X156125Y521413D01*
X163675Y521413D01*
X167940Y517147D01*
X168022Y517083D01*
X168097Y517011D01*
X168157Y516976D01*
X168211Y516933D01*
X168305Y516888D01*
X168395Y516836D01*
X168461Y516815D01*
X168524Y516786D01*
X168626Y516764D01*
X168726Y516734D01*
X168795Y516729D01*
X168862Y516715D01*
X168966Y516717D01*
X169071Y516710D01*
X169139Y516721D01*
X169208Y516723D01*
X169309Y516749D01*
X169412Y516766D01*
X169476Y516792D01*
X169542Y516810D01*
X169635Y516859D01*
X169731Y516899D01*
X169787Y516939D01*
X169848Y516971D01*
X169927Y517040D01*
X170011Y517101D01*
X170057Y517153D01*
X170109Y517198D01*
X170170Y517283D01*
X170238Y517362D01*
X170270Y517423D01*
X170311Y517479D01*
X170350Y517576D01*
X170399Y517668D01*
X170416Y517735D01*
X170442Y517799D01*
X170459Y517902D01*
X170485Y518003D01*
X170492Y518107D01*
X170498Y518140D01*
X170496Y518163D01*
X170499Y518208D01*
X170499Y521529D01*
X170483Y521667D01*
X170473Y521806D01*
X170463Y521839D01*
X170459Y521872D01*
X170412Y522003D01*
X170371Y522137D01*
X170353Y522166D01*
X170342Y522198D01*
X170266Y522314D01*
X170195Y522434D01*
X170165Y522468D01*
X170153Y522487D01*
X170129Y522510D01*
X170060Y522589D01*
X164501Y528148D01*
X164392Y528235D01*
X164286Y528326D01*
X164256Y528342D01*
X164230Y528363D01*
X164104Y528422D01*
X163980Y528487D01*
X163948Y528495D01*
X163917Y528510D01*
X163781Y528538D01*
X163646Y528573D01*
X163600Y528576D01*
X163579Y528581D01*
X163545Y528580D01*
X163441Y528587D01*
X156125Y528587D01*
X150787Y533925D01*
X150787Y541475D01*
X156125Y546813D01*
X163675Y546813D01*
X169013Y541475D01*
X169013Y534159D01*
X169029Y534021D01*
X169039Y533882D01*
X169049Y533849D01*
X169053Y533816D01*
X169100Y533685D01*
X169141Y533551D01*
X169159Y533522D01*
X169170Y533490D01*
X169246Y533374D01*
X169317Y533254D01*
X169347Y533220D01*
X169359Y533201D01*
X169383Y533178D01*
X169452Y533099D01*
X177501Y525050D01*
X177501Y521771D01*
X177513Y521668D01*
X177515Y521563D01*
X177533Y521496D01*
X177541Y521428D01*
X177576Y521329D01*
X177602Y521229D01*
X177635Y521168D01*
X177658Y521103D01*
X177715Y521015D01*
X177764Y520923D01*
X177809Y520871D01*
X177847Y520813D01*
X177922Y520741D01*
X177991Y520662D01*
X178047Y520622D01*
X178097Y520574D01*
X178187Y520522D01*
X178272Y520461D01*
X178336Y520434D01*
X178395Y520399D01*
X178495Y520369D01*
X178591Y520329D01*
X178660Y520318D01*
X178726Y520297D01*
X178830Y520290D01*
X178933Y520273D01*
X179002Y520278D01*
X179071Y520274D01*
X179173Y520291D01*
X179278Y520298D01*
X179344Y520318D01*
X179412Y520330D01*
X179508Y520370D01*
X179608Y520401D01*
X179667Y520436D01*
X179731Y520462D01*
X179815Y520523D01*
X179905Y520576D01*
X179984Y520645D01*
X180011Y520665D01*
X180026Y520681D01*
X180060Y520711D01*
X181302Y521953D01*
X183015Y521953D01*
X183015Y513086D01*
X183019Y513051D01*
X183016Y513016D01*
X183039Y512880D01*
X183055Y512743D01*
X183067Y512709D01*
X183072Y512674D01*
X183125Y512547D01*
X183172Y512418D01*
X183191Y512388D01*
X183205Y512355D01*
X183245Y512300D01*
X183212Y512237D01*
X183142Y512119D01*
X183132Y512085D01*
X183115Y512053D01*
X183081Y511920D01*
X183040Y511788D01*
X183038Y511753D01*
X183029Y511718D01*
X183015Y511514D01*
X183015Y502557D01*
X183031Y502419D01*
X183041Y502280D01*
X183051Y502247D01*
X183055Y502214D01*
X183102Y502083D01*
X183143Y501949D01*
X183161Y501920D01*
X183172Y501888D01*
X183248Y501772D01*
X183319Y501652D01*
X183349Y501618D01*
X183361Y501599D01*
X183385Y501576D01*
X183454Y501497D01*
X185011Y499940D01*
X185120Y499853D01*
X185226Y499762D01*
X185256Y499746D01*
X185282Y499725D01*
X185408Y499666D01*
X185532Y499601D01*
X185564Y499593D01*
X185595Y499578D01*
X185731Y499550D01*
X185866Y499515D01*
X185912Y499512D01*
X185933Y499507D01*
X185967Y499508D01*
X186071Y499501D01*
X198929Y499501D01*
X199032Y499513D01*
X199137Y499515D01*
X199204Y499533D01*
X199272Y499541D01*
X199371Y499576D01*
X199471Y499602D01*
X199532Y499635D01*
X199598Y499658D01*
X199685Y499715D01*
X199777Y499764D01*
X199829Y499809D01*
X199887Y499847D01*
X199959Y499922D01*
X200038Y499991D01*
X200078Y500047D01*
X200126Y500097D01*
X200179Y500187D01*
X200240Y500272D01*
X200266Y500336D01*
X200301Y500395D01*
X200332Y500495D01*
X200371Y500591D01*
X200383Y500660D01*
X200403Y500726D01*
X200410Y500830D01*
X200427Y500933D01*
X200422Y501002D01*
X200427Y501071D01*
X200410Y501173D01*
X200402Y501278D01*
X200382Y501344D01*
X200371Y501412D01*
X200331Y501508D01*
X200300Y501608D01*
X200264Y501667D01*
X200238Y501731D01*
X200177Y501816D01*
X200124Y501905D01*
X200055Y501984D01*
X200036Y502011D01*
X200019Y502026D01*
X199989Y502060D01*
X196989Y505060D01*
X195410Y506639D01*
X195383Y506661D01*
X195359Y506688D01*
X195247Y506768D01*
X195139Y506854D01*
X195107Y506869D01*
X195078Y506889D01*
X194951Y506942D01*
X194826Y507001D01*
X194792Y507008D01*
X194759Y507021D01*
X194623Y507043D01*
X194488Y507072D01*
X194453Y507071D01*
X194417Y507077D01*
X194280Y507067D01*
X194142Y507064D01*
X194108Y507055D01*
X194073Y507052D01*
X193941Y507011D01*
X193808Y506977D01*
X193776Y506960D01*
X193742Y506949D01*
X193624Y506880D01*
X193502Y506815D01*
X193475Y506792D01*
X193445Y506774D01*
X193290Y506639D01*
X189298Y502647D01*
X187585Y502647D01*
X187585Y511514D01*
X187581Y511549D01*
X187584Y511584D01*
X187561Y511720D01*
X187545Y511857D01*
X187533Y511891D01*
X187528Y511926D01*
X187475Y512053D01*
X187428Y512182D01*
X187409Y512212D01*
X187395Y512245D01*
X187355Y512300D01*
X187388Y512363D01*
X187458Y512481D01*
X187468Y512515D01*
X187485Y512547D01*
X187519Y512680D01*
X187560Y512812D01*
X187562Y512847D01*
X187571Y512882D01*
X187585Y513086D01*
X187585Y521953D01*
X189298Y521953D01*
X191940Y519311D01*
X192022Y519246D01*
X192097Y519174D01*
X192157Y519139D01*
X192211Y519096D01*
X192305Y519052D01*
X192395Y518999D01*
X192461Y518979D01*
X192524Y518950D01*
X192626Y518928D01*
X192726Y518897D01*
X192795Y518893D01*
X192862Y518878D01*
X192966Y518881D01*
X193071Y518874D01*
X193139Y518885D01*
X193208Y518886D01*
X193309Y518913D01*
X193412Y518930D01*
X193476Y518956D01*
X193542Y518974D01*
X193635Y519022D01*
X193731Y519062D01*
X193787Y519103D01*
X193848Y519135D01*
X193927Y519204D01*
X194011Y519265D01*
X194057Y519317D01*
X194109Y519362D01*
X194170Y519447D01*
X194238Y519526D01*
X194270Y519587D01*
X194311Y519643D01*
X194350Y519739D01*
X194399Y519832D01*
X194416Y519899D01*
X194442Y519963D01*
X194459Y520065D01*
X194485Y520167D01*
X194492Y520271D01*
X194498Y520304D01*
X194496Y520326D01*
X194499Y520371D01*
X194499Y522929D01*
X194483Y523067D01*
X194473Y523206D01*
X194463Y523239D01*
X194459Y523272D01*
X194412Y523403D01*
X194371Y523537D01*
X194353Y523566D01*
X194342Y523598D01*
X194266Y523714D01*
X194195Y523834D01*
X194165Y523868D01*
X194153Y523887D01*
X194129Y523910D01*
X194060Y523989D01*
X189901Y528148D01*
X189792Y528235D01*
X189687Y528326D01*
X189657Y528342D01*
X189630Y528363D01*
X189504Y528422D01*
X189380Y528487D01*
X189348Y528495D01*
X189317Y528510D01*
X189181Y528538D01*
X189046Y528573D01*
X189001Y528576D01*
X188979Y528581D01*
X188945Y528580D01*
X188841Y528587D01*
X181525Y528587D01*
X176187Y533925D01*
X176187Y541475D01*
X181525Y546813D01*
X189075Y546813D01*
X194413Y541475D01*
X194413Y534159D01*
X194429Y534021D01*
X194439Y533881D01*
X194449Y533849D01*
X194453Y533816D01*
X194500Y533685D01*
X194541Y533551D01*
X194559Y533522D01*
X194570Y533490D01*
X194646Y533374D01*
X194717Y533254D01*
X194747Y533220D01*
X194759Y533201D01*
X194783Y533178D01*
X194852Y533099D01*
X199011Y528940D01*
X201501Y526450D01*
X201501Y519608D01*
X201513Y519504D01*
X201515Y519400D01*
X201533Y519333D01*
X201541Y519264D01*
X201576Y519166D01*
X201602Y519065D01*
X201635Y519004D01*
X201658Y518939D01*
X201715Y518851D01*
X201764Y518759D01*
X201809Y518707D01*
X201847Y518649D01*
X201922Y518577D01*
X201991Y518499D01*
X202047Y518458D01*
X202097Y518411D01*
X202187Y518358D01*
X202272Y518297D01*
X202336Y518271D01*
X202395Y518236D01*
X202495Y518205D01*
X202591Y518165D01*
X202660Y518154D01*
X202726Y518134D01*
X202830Y518126D01*
X202933Y518110D01*
X203002Y518115D01*
X203071Y518110D01*
X203173Y518127D01*
X203278Y518134D01*
X203344Y518155D01*
X203412Y518166D01*
X203508Y518206D01*
X203608Y518237D01*
X203667Y518272D01*
X203731Y518299D01*
X203816Y518360D01*
X203905Y518413D01*
X203984Y518481D01*
X204011Y518501D01*
X204026Y518518D01*
X204060Y518547D01*
X206925Y521413D01*
X214475Y521413D01*
X219813Y516075D01*
X219813Y508525D01*
X218347Y507060D01*
X218283Y506978D01*
X218211Y506903D01*
X218176Y506843D01*
X218133Y506789D01*
X218088Y506695D01*
X218036Y506605D01*
X218015Y506539D01*
X217986Y506476D01*
X217964Y506374D01*
X217934Y506274D01*
X217929Y506205D01*
X217915Y506138D01*
X217917Y506034D01*
X217910Y505929D01*
X217921Y505861D01*
X217923Y505792D01*
X217949Y505691D01*
X217966Y505588D01*
X217992Y505524D01*
X218010Y505458D01*
X218059Y505365D01*
X218099Y505269D01*
X218139Y505213D01*
X218171Y505152D01*
X218240Y505073D01*
X218301Y504989D01*
X218353Y504943D01*
X218398Y504891D01*
X218483Y504830D01*
X218562Y504762D01*
X218623Y504730D01*
X218679Y504689D01*
X218776Y504650D01*
X218868Y504601D01*
X218935Y504584D01*
X218999Y504558D01*
X219102Y504541D01*
X219203Y504515D01*
X219307Y504508D01*
X219340Y504502D01*
X219363Y504504D01*
X219408Y504501D01*
X225663Y504501D01*
X289511Y440653D01*
X292001Y438163D01*
X292001Y109104D01*
X292019Y108949D01*
X292033Y108793D01*
X292039Y108777D01*
X292041Y108760D01*
X292094Y108613D01*
X292143Y108465D01*
X292152Y108451D01*
X292158Y108435D01*
X292243Y108304D01*
X292326Y108172D01*
X292338Y108160D01*
X292347Y108146D01*
X292460Y108038D01*
X292570Y107927D01*
X292585Y107919D01*
X292597Y107907D01*
X292732Y107828D01*
X292865Y107746D01*
X292881Y107740D01*
X292895Y107732D01*
X293044Y107686D01*
X293193Y107636D01*
X293209Y107635D01*
X293226Y107630D01*
X293382Y107619D01*
X293537Y107605D01*
X293554Y107607D01*
X293571Y107606D01*
X293725Y107632D01*
X293879Y107653D01*
X293900Y107660D01*
X293912Y107662D01*
X293937Y107673D01*
X294074Y107719D01*
X294832Y108033D01*
X297232Y108033D01*
X299449Y107114D01*
X301146Y105417D01*
X302065Y103200D01*
X302065Y100800D01*
X301214Y98746D01*
X301190Y98662D01*
X301156Y98581D01*
X301143Y98496D01*
X301119Y98413D01*
X301115Y98326D01*
X301101Y98239D01*
X301107Y98154D01*
X301103Y98068D01*
X301119Y97982D01*
X301126Y97895D01*
X301151Y97813D01*
X301167Y97728D01*
X301202Y97648D01*
X301228Y97564D01*
X301272Y97490D01*
X301307Y97412D01*
X301360Y97342D01*
X301404Y97267D01*
X301499Y97158D01*
X301515Y97136D01*
X301525Y97128D01*
X301539Y97112D01*
X308302Y90348D01*
X308330Y90326D01*
X308353Y90300D01*
X308466Y90219D01*
X308573Y90134D01*
X308605Y90119D01*
X308634Y90098D01*
X308762Y90045D01*
X308886Y89987D01*
X308921Y89980D01*
X308954Y89966D01*
X309090Y89944D01*
X309225Y89916D01*
X309260Y89916D01*
X309295Y89911D01*
X309433Y89921D01*
X309570Y89924D01*
X309605Y89933D01*
X309640Y89935D01*
X309772Y89976D01*
X309905Y90011D01*
X309936Y90027D01*
X309970Y90038D01*
X310089Y90108D01*
X310211Y90172D01*
X310237Y90196D01*
X310268Y90214D01*
X310423Y90348D01*
X312050Y91976D01*
X315586Y93441D01*
X319414Y93441D01*
X322950Y91976D01*
X325656Y89270D01*
X327121Y85734D01*
X327121Y66666D01*
X325656Y63130D01*
X322950Y60424D01*
X319414Y58959D01*
X315586Y58959D01*
X312050Y60424D01*
X309344Y63130D01*
X307879Y66666D01*
X307879Y80249D01*
X307863Y80387D01*
X307853Y80526D01*
X307843Y80559D01*
X307839Y80592D01*
X307792Y80723D01*
X307751Y80857D01*
X307733Y80886D01*
X307722Y80918D01*
X307646Y81034D01*
X307575Y81154D01*
X307545Y81188D01*
X307533Y81207D01*
X307509Y81230D01*
X307440Y81309D01*
X295021Y93728D01*
X294560Y94189D01*
X294478Y94254D01*
X294403Y94326D01*
X294343Y94361D01*
X294289Y94404D01*
X294195Y94448D01*
X294105Y94501D01*
X294039Y94521D01*
X293976Y94551D01*
X293874Y94572D01*
X293774Y94603D01*
X293705Y94608D01*
X293638Y94622D01*
X293534Y94619D01*
X293429Y94627D01*
X293361Y94615D01*
X293292Y94614D01*
X293191Y94587D01*
X293088Y94571D01*
X293025Y94544D01*
X292958Y94527D01*
X292865Y94478D01*
X292769Y94438D01*
X292713Y94398D01*
X292652Y94365D01*
X292573Y94297D01*
X292489Y94236D01*
X292443Y94183D01*
X292391Y94138D01*
X292330Y94053D01*
X292262Y93975D01*
X292230Y93913D01*
X292189Y93857D01*
X292150Y93761D01*
X292101Y93668D01*
X292084Y93601D01*
X292058Y93538D01*
X292041Y93435D01*
X292015Y93334D01*
X292008Y93230D01*
X292002Y93196D01*
X292004Y93174D01*
X292001Y93129D01*
X292001Y77571D01*
X292017Y77433D01*
X292027Y77293D01*
X292037Y77261D01*
X292041Y77228D01*
X292088Y77097D01*
X292129Y76963D01*
X292147Y76934D01*
X292158Y76902D01*
X292234Y76786D01*
X292305Y76666D01*
X292335Y76632D01*
X292347Y76613D01*
X292371Y76590D01*
X292440Y76511D01*
X292729Y76222D01*
X292838Y76135D01*
X292944Y76044D01*
X292973Y76028D01*
X293000Y76007D01*
X293126Y75948D01*
X293250Y75883D01*
X293282Y75875D01*
X293313Y75860D01*
X293449Y75832D01*
X293584Y75797D01*
X293630Y75794D01*
X293651Y75789D01*
X293685Y75790D01*
X293789Y75783D01*
X295150Y75783D01*
X297276Y74902D01*
X298902Y73276D01*
X299783Y71150D01*
X299783Y68850D01*
X298902Y66724D01*
X297828Y65650D01*
X297731Y65527D01*
X297631Y65407D01*
X297624Y65392D01*
X297613Y65379D01*
X297547Y65237D01*
X297477Y65097D01*
X297474Y65081D01*
X297466Y65066D01*
X297434Y64912D01*
X297399Y64761D01*
X297399Y64744D01*
X297395Y64727D01*
X297399Y64570D01*
X297399Y64415D01*
X297403Y64399D01*
X297403Y64382D01*
X297442Y64231D01*
X297478Y64079D01*
X297486Y64063D01*
X297490Y64047D01*
X297563Y63909D01*
X297633Y63769D01*
X297644Y63756D01*
X297652Y63741D01*
X297754Y63624D01*
X297854Y63504D01*
X297868Y63494D01*
X297879Y63481D01*
X298005Y63390D01*
X298131Y63296D01*
X298150Y63286D01*
X298160Y63279D01*
X298185Y63269D01*
X298314Y63205D01*
X298363Y63184D01*
X299990Y61558D01*
X300870Y59432D01*
X300870Y57132D01*
X300639Y56574D01*
X300596Y56423D01*
X300550Y56274D01*
X300549Y56257D01*
X300544Y56241D01*
X300537Y56086D01*
X300527Y55929D01*
X300529Y55913D01*
X300529Y55896D01*
X300557Y55742D01*
X300583Y55588D01*
X300589Y55573D01*
X300592Y55556D01*
X300655Y55413D01*
X300715Y55269D01*
X300725Y55255D01*
X300732Y55240D01*
X300826Y55115D01*
X300917Y54989D01*
X300930Y54977D01*
X300940Y54964D01*
X301060Y54864D01*
X301179Y54762D01*
X301194Y54754D01*
X301207Y54743D01*
X301346Y54674D01*
X301485Y54601D01*
X301501Y54597D01*
X301516Y54589D01*
X301668Y54554D01*
X301819Y54515D01*
X301841Y54513D01*
X301853Y54511D01*
X301881Y54511D01*
X302024Y54501D01*
X326887Y54501D01*
X327025Y54517D01*
X327164Y54527D01*
X327197Y54537D01*
X327230Y54541D01*
X327361Y54588D01*
X327494Y54629D01*
X327523Y54647D01*
X327555Y54658D01*
X327672Y54734D01*
X327792Y54805D01*
X327826Y54835D01*
X327845Y54847D01*
X327868Y54871D01*
X327947Y54940D01*
X330648Y57641D01*
X336632Y57641D01*
X336685Y57647D01*
X336738Y57644D01*
X336856Y57667D01*
X336976Y57681D01*
X337026Y57699D01*
X337078Y57708D01*
X337188Y57757D01*
X337301Y57798D01*
X337345Y57827D01*
X337394Y57848D01*
X337490Y57921D01*
X337591Y57987D01*
X337627Y58025D01*
X337669Y58057D01*
X337746Y58150D01*
X337829Y58237D01*
X337856Y58283D01*
X337890Y58324D01*
X337943Y58432D01*
X338004Y58535D01*
X338020Y58586D01*
X338043Y58633D01*
X338071Y58751D01*
X338106Y58866D01*
X338110Y58918D01*
X338122Y58970D01*
X338122Y59090D01*
X338130Y59211D01*
X338121Y59263D01*
X338121Y59316D01*
X338093Y59433D01*
X338074Y59552D01*
X338054Y59601D01*
X338041Y59652D01*
X337987Y59760D01*
X337941Y59871D01*
X337910Y59914D01*
X337887Y59961D01*
X337809Y60054D01*
X337739Y60151D01*
X337699Y60186D01*
X337665Y60227D01*
X337594Y60280D01*
X334744Y63130D01*
X333279Y66666D01*
X333279Y85734D01*
X334744Y89270D01*
X337450Y91976D01*
X340986Y93441D01*
X344814Y93441D01*
X348350Y91976D01*
X351056Y89270D01*
X352521Y85734D01*
X352521Y66666D01*
X351056Y63130D01*
X348236Y60311D01*
X348209Y60293D01*
X348126Y60206D01*
X348037Y60125D01*
X348007Y60081D01*
X347971Y60043D01*
X347910Y59939D01*
X347842Y59840D01*
X347823Y59790D01*
X347796Y59745D01*
X347760Y59630D01*
X347717Y59517D01*
X347709Y59465D01*
X347694Y59414D01*
X347685Y59294D01*
X347669Y59175D01*
X347674Y59122D01*
X347670Y59069D01*
X347690Y58951D01*
X347701Y58831D01*
X347718Y58780D01*
X347726Y58728D01*
X347772Y58617D01*
X347811Y58503D01*
X347838Y58458D01*
X347859Y58409D01*
X347929Y58311D01*
X347993Y58209D01*
X348030Y58172D01*
X348061Y58129D01*
X348152Y58050D01*
X348237Y57965D01*
X348282Y57937D01*
X348322Y57902D01*
X348429Y57846D01*
X348531Y57783D01*
X348581Y57766D01*
X348628Y57741D01*
X348745Y57711D01*
X348859Y57673D01*
X348912Y57668D01*
X348963Y57655D01*
X349168Y57641D01*
X374732Y57641D01*
X374785Y57647D01*
X374837Y57644D01*
X374956Y57667D01*
X375076Y57681D01*
X375125Y57698D01*
X375177Y57708D01*
X375287Y57757D01*
X375401Y57798D01*
X375445Y57827D01*
X375493Y57848D01*
X375589Y57921D01*
X375691Y57987D01*
X375727Y58025D01*
X375769Y58057D01*
X375846Y58150D01*
X375929Y58237D01*
X375956Y58283D01*
X375989Y58323D01*
X376043Y58431D01*
X376104Y58535D01*
X376120Y58586D01*
X376143Y58633D01*
X376171Y58750D01*
X376206Y58866D01*
X376210Y58918D01*
X376222Y58970D01*
X376222Y59090D01*
X376230Y59211D01*
X376221Y59263D01*
X376221Y59315D01*
X376193Y59433D01*
X376174Y59552D01*
X376154Y59600D01*
X376142Y59652D01*
X376088Y59760D01*
X376041Y59871D01*
X376010Y59914D01*
X375987Y59961D01*
X375910Y60054D01*
X375839Y60151D01*
X375799Y60186D01*
X375765Y60226D01*
X375694Y60280D01*
X372844Y63130D01*
X371379Y66666D01*
X371379Y85734D01*
X372844Y89270D01*
X375550Y91976D01*
X379086Y93441D01*
X382914Y93441D01*
X386450Y91976D01*
X389156Y89270D01*
X390621Y85734D01*
X390621Y66666D01*
X389156Y63130D01*
X386336Y60311D01*
X386309Y60293D01*
X386226Y60206D01*
X386137Y60124D01*
X386107Y60081D01*
X386071Y60043D01*
X386010Y59939D01*
X385942Y59839D01*
X385923Y59790D01*
X385896Y59745D01*
X385860Y59629D01*
X385817Y59517D01*
X385809Y59465D01*
X385794Y59414D01*
X385785Y59294D01*
X385769Y59174D01*
X385774Y59122D01*
X385770Y59069D01*
X385790Y58950D01*
X385801Y58830D01*
X385818Y58780D01*
X385826Y58728D01*
X385872Y58617D01*
X385911Y58502D01*
X385939Y58458D01*
X385959Y58409D01*
X386029Y58311D01*
X386093Y58209D01*
X386130Y58171D01*
X386161Y58129D01*
X386252Y58049D01*
X386338Y57964D01*
X386382Y57936D01*
X386422Y57902D01*
X386529Y57846D01*
X386632Y57782D01*
X386682Y57766D01*
X386728Y57741D01*
X386845Y57711D01*
X386960Y57673D01*
X387012Y57668D01*
X387063Y57655D01*
X387268Y57641D01*
X399556Y57641D01*
X399605Y57646D01*
X399653Y57644D01*
X399776Y57666D01*
X399899Y57681D01*
X399945Y57697D01*
X399994Y57706D01*
X400108Y57756D01*
X400225Y57798D01*
X400266Y57825D01*
X400310Y57844D01*
X400410Y57919D01*
X400514Y57987D01*
X400548Y58022D01*
X400587Y58052D01*
X400667Y58147D01*
X400753Y58237D01*
X400778Y58279D01*
X400809Y58317D01*
X400865Y58428D01*
X400928Y58535D01*
X400942Y58582D01*
X400964Y58626D01*
X400993Y58747D01*
X401030Y58866D01*
X401033Y58914D01*
X401045Y58962D01*
X401045Y59086D01*
X401054Y59211D01*
X401046Y59259D01*
X401046Y59308D01*
X401018Y59429D01*
X400998Y59552D01*
X400979Y59597D01*
X400968Y59645D01*
X400913Y59756D01*
X400865Y59871D01*
X400836Y59911D01*
X400815Y59955D01*
X400736Y60050D01*
X400663Y60151D01*
X400626Y60184D01*
X400594Y60221D01*
X400437Y60353D01*
X399781Y60830D01*
X398650Y61961D01*
X397710Y63255D01*
X396984Y64680D01*
X396489Y66201D01*
X396239Y67780D01*
X396239Y73661D01*
X405360Y73661D01*
X405395Y73665D01*
X405430Y73662D01*
X405566Y73685D01*
X405703Y73701D01*
X405737Y73713D01*
X405772Y73718D01*
X405899Y73771D01*
X406028Y73818D01*
X406058Y73837D01*
X406091Y73851D01*
X406203Y73932D01*
X406318Y74007D01*
X406342Y74033D01*
X406371Y74053D01*
X406402Y74089D01*
X406438Y74058D01*
X406537Y73963D01*
X406568Y73945D01*
X406595Y73922D01*
X406717Y73858D01*
X406835Y73788D01*
X406869Y73778D01*
X406901Y73761D01*
X407034Y73727D01*
X407166Y73686D01*
X407201Y73684D01*
X407236Y73675D01*
X407440Y73661D01*
X416561Y73661D01*
X416561Y67780D01*
X416311Y66201D01*
X415816Y64680D01*
X415090Y63255D01*
X414150Y61961D01*
X413019Y60830D01*
X412363Y60353D01*
X412327Y60320D01*
X412286Y60293D01*
X412200Y60203D01*
X412108Y60119D01*
X412081Y60078D01*
X412047Y60043D01*
X411984Y59936D01*
X411914Y59833D01*
X411897Y59787D01*
X411872Y59745D01*
X411835Y59626D01*
X411791Y59510D01*
X411785Y59461D01*
X411770Y59414D01*
X411762Y59290D01*
X411745Y59167D01*
X411750Y59118D01*
X411746Y59069D01*
X411767Y58947D01*
X411779Y58823D01*
X411795Y58777D01*
X411802Y58728D01*
X411850Y58614D01*
X411890Y58496D01*
X411916Y58454D01*
X411935Y58409D01*
X412008Y58308D01*
X412074Y58203D01*
X412109Y58168D01*
X412137Y58129D01*
X412231Y58047D01*
X412320Y57960D01*
X412362Y57934D01*
X412399Y57902D01*
X412509Y57844D01*
X412615Y57779D01*
X412661Y57764D01*
X412705Y57741D01*
X412825Y57710D01*
X412943Y57671D01*
X412992Y57667D01*
X413039Y57655D01*
X413244Y57641D01*
X425532Y57641D01*
X425585Y57647D01*
X425637Y57644D01*
X425756Y57667D01*
X425876Y57681D01*
X425925Y57698D01*
X425977Y57708D01*
X426087Y57757D01*
X426201Y57798D01*
X426245Y57827D01*
X426293Y57848D01*
X426389Y57921D01*
X426491Y57987D01*
X426527Y58025D01*
X426569Y58057D01*
X426646Y58150D01*
X426729Y58237D01*
X426756Y58283D01*
X426789Y58323D01*
X426843Y58431D01*
X426904Y58535D01*
X426920Y58586D01*
X426943Y58633D01*
X426971Y58750D01*
X427006Y58866D01*
X427010Y58918D01*
X427022Y58970D01*
X427022Y59090D01*
X427030Y59211D01*
X427021Y59263D01*
X427021Y59315D01*
X426993Y59433D01*
X426974Y59552D01*
X426954Y59600D01*
X426942Y59652D01*
X426888Y59760D01*
X426841Y59871D01*
X426810Y59914D01*
X426787Y59961D01*
X426710Y60054D01*
X426639Y60151D01*
X426599Y60186D01*
X426565Y60226D01*
X426494Y60280D01*
X423644Y63130D01*
X422179Y66666D01*
X422179Y85734D01*
X423644Y89270D01*
X426350Y91976D01*
X427374Y92400D01*
X427450Y92443D01*
X427531Y92476D01*
X427601Y92526D01*
X427676Y92568D01*
X427740Y92627D01*
X427811Y92678D01*
X427868Y92743D01*
X427931Y92801D01*
X427981Y92873D01*
X428038Y92940D01*
X428078Y93016D01*
X428127Y93087D01*
X428158Y93168D01*
X428199Y93246D01*
X428220Y93329D01*
X428251Y93409D01*
X428263Y93496D01*
X428285Y93580D01*
X428295Y93724D01*
X428299Y93751D01*
X428298Y93763D01*
X428299Y93785D01*
X428299Y126129D01*
X428283Y126267D01*
X428273Y126406D01*
X428263Y126439D01*
X428259Y126472D01*
X428212Y126603D01*
X428171Y126737D01*
X428153Y126766D01*
X428142Y126798D01*
X428066Y126914D01*
X427995Y127034D01*
X427965Y127068D01*
X427953Y127087D01*
X427929Y127110D01*
X427860Y127189D01*
X352499Y202550D01*
X352499Y236192D01*
X352487Y236295D01*
X352485Y236399D01*
X352467Y236466D01*
X352459Y236535D01*
X352424Y236633D01*
X352398Y236734D01*
X352365Y236795D01*
X352342Y236860D01*
X352285Y236948D01*
X352236Y237040D01*
X352191Y237092D01*
X352153Y237150D01*
X352078Y237222D01*
X352009Y237300D01*
X351953Y237341D01*
X351903Y237388D01*
X351813Y237441D01*
X351728Y237502D01*
X351664Y237528D01*
X351605Y237563D01*
X351505Y237594D01*
X351409Y237634D01*
X351340Y237645D01*
X351274Y237665D01*
X351170Y237673D01*
X351067Y237689D01*
X350998Y237684D01*
X350929Y237689D01*
X350827Y237672D01*
X350722Y237665D01*
X350656Y237644D01*
X350588Y237633D01*
X350492Y237593D01*
X350392Y237562D01*
X350333Y237527D01*
X350269Y237500D01*
X350184Y237439D01*
X350095Y237386D01*
X350016Y237318D01*
X349989Y237298D01*
X349974Y237281D01*
X349940Y237252D01*
X344367Y231678D01*
X342031Y231678D01*
X342031Y241688D01*
X342027Y241723D01*
X342030Y241758D01*
X342007Y241894D01*
X341991Y242031D01*
X341979Y242065D01*
X341974Y242100D01*
X341928Y242208D01*
X341931Y242213D01*
X341965Y242346D01*
X342006Y242478D01*
X342008Y242513D01*
X342017Y242548D01*
X342031Y242752D01*
X342031Y252762D01*
X344367Y252762D01*
X349940Y247188D01*
X350022Y247124D01*
X350097Y247052D01*
X350157Y247017D01*
X350211Y246974D01*
X350305Y246929D01*
X350395Y246877D01*
X350461Y246856D01*
X350524Y246827D01*
X350626Y246805D01*
X350726Y246775D01*
X350795Y246770D01*
X350862Y246756D01*
X350966Y246758D01*
X351071Y246751D01*
X351139Y246762D01*
X351208Y246764D01*
X351309Y246790D01*
X351412Y246807D01*
X351476Y246833D01*
X351542Y246851D01*
X351635Y246900D01*
X351731Y246940D01*
X351787Y246980D01*
X351848Y247012D01*
X351927Y247081D01*
X352011Y247142D01*
X352057Y247194D01*
X352109Y247239D01*
X352170Y247324D01*
X352238Y247403D01*
X352270Y247464D01*
X352311Y247520D01*
X352350Y247617D01*
X352399Y247709D01*
X352416Y247776D01*
X352442Y247840D01*
X352459Y247943D01*
X352485Y248044D01*
X352492Y248148D01*
X352498Y248181D01*
X352496Y248204D01*
X352499Y248248D01*
X352499Y274283D01*
X352493Y274335D01*
X352496Y274387D01*
X352473Y274506D01*
X352459Y274626D01*
X352442Y274676D01*
X352432Y274727D01*
X352383Y274838D01*
X352342Y274952D01*
X352313Y274995D01*
X352292Y275043D01*
X352219Y275140D01*
X352153Y275241D01*
X352115Y275277D01*
X352084Y275319D01*
X351990Y275396D01*
X351903Y275480D01*
X351858Y275506D01*
X351818Y275540D01*
X351709Y275594D01*
X351605Y275655D01*
X351555Y275670D01*
X351508Y275693D01*
X351390Y275721D01*
X351274Y275757D01*
X351222Y275760D01*
X351171Y275772D01*
X351050Y275772D01*
X350929Y275780D01*
X350878Y275772D01*
X350826Y275772D01*
X350708Y275744D01*
X350588Y275724D01*
X350540Y275704D01*
X350489Y275692D01*
X350381Y275638D01*
X350269Y275592D01*
X350227Y275561D01*
X350180Y275538D01*
X350087Y275460D01*
X349989Y275390D01*
X349954Y275350D01*
X349914Y275317D01*
X349841Y275220D01*
X349762Y275128D01*
X349738Y275082D01*
X349706Y275040D01*
X349615Y274857D01*
X348479Y272114D01*
X345666Y269301D01*
X341989Y267778D01*
X338011Y267778D01*
X334334Y269301D01*
X331521Y272114D01*
X329998Y275791D01*
X329998Y279769D01*
X331521Y283446D01*
X334334Y286259D01*
X338011Y287782D01*
X341989Y287782D01*
X345666Y286259D01*
X348479Y283446D01*
X349615Y280703D01*
X349640Y280658D01*
X349658Y280608D01*
X349724Y280507D01*
X349783Y280401D01*
X349818Y280363D01*
X349847Y280319D01*
X349934Y280235D01*
X350016Y280146D01*
X350059Y280116D01*
X350097Y280080D01*
X350201Y280019D01*
X350301Y279951D01*
X350350Y279932D01*
X350395Y279905D01*
X350511Y279870D01*
X350624Y279826D01*
X350676Y279819D01*
X350726Y279803D01*
X350846Y279795D01*
X350966Y279778D01*
X351018Y279783D01*
X351071Y279780D01*
X351190Y279799D01*
X351311Y279810D01*
X351360Y279827D01*
X351412Y279836D01*
X351524Y279882D01*
X351638Y279921D01*
X351683Y279948D01*
X351731Y279968D01*
X351829Y280039D01*
X351932Y280103D01*
X351969Y280140D01*
X352011Y280170D01*
X352091Y280262D01*
X352176Y280348D01*
X352204Y280392D01*
X352238Y280432D01*
X352294Y280539D01*
X352358Y280642D01*
X352375Y280691D01*
X352399Y280738D01*
X352429Y280855D01*
X352467Y280970D01*
X352472Y281022D01*
X352485Y281072D01*
X352499Y281277D01*
X352499Y396192D01*
X352487Y396295D01*
X352485Y396399D01*
X352467Y396466D01*
X352459Y396535D01*
X352424Y396633D01*
X352398Y396734D01*
X352365Y396795D01*
X352342Y396860D01*
X352285Y396948D01*
X352236Y397040D01*
X352191Y397092D01*
X352153Y397150D01*
X352078Y397222D01*
X352009Y397300D01*
X351953Y397341D01*
X351903Y397388D01*
X351813Y397441D01*
X351728Y397502D01*
X351664Y397528D01*
X351605Y397563D01*
X351505Y397594D01*
X351409Y397634D01*
X351340Y397645D01*
X351274Y397665D01*
X351170Y397673D01*
X351067Y397689D01*
X350998Y397684D01*
X350929Y397689D01*
X350827Y397672D01*
X350722Y397665D01*
X350656Y397644D01*
X350588Y397633D01*
X350492Y397593D01*
X350392Y397562D01*
X350333Y397527D01*
X350269Y397500D01*
X350184Y397439D01*
X350095Y397386D01*
X350016Y397318D01*
X349989Y397298D01*
X349974Y397281D01*
X349940Y397252D01*
X344367Y391678D01*
X342031Y391678D01*
X342031Y401688D01*
X342027Y401723D01*
X342030Y401758D01*
X342007Y401894D01*
X341991Y402031D01*
X341979Y402065D01*
X341974Y402100D01*
X341928Y402208D01*
X341931Y402213D01*
X341965Y402346D01*
X342006Y402478D01*
X342008Y402513D01*
X342017Y402548D01*
X342031Y402752D01*
X342031Y412762D01*
X344367Y412762D01*
X349940Y407188D01*
X350022Y407124D01*
X350097Y407052D01*
X350157Y407017D01*
X350211Y406974D01*
X350305Y406929D01*
X350395Y406877D01*
X350461Y406856D01*
X350524Y406827D01*
X350626Y406805D01*
X350726Y406775D01*
X350795Y406770D01*
X350862Y406756D01*
X350966Y406758D01*
X351071Y406751D01*
X351139Y406762D01*
X351208Y406764D01*
X351309Y406790D01*
X351412Y406807D01*
X351476Y406833D01*
X351542Y406851D01*
X351635Y406900D01*
X351731Y406940D01*
X351787Y406980D01*
X351848Y407012D01*
X351927Y407081D01*
X352011Y407142D01*
X352057Y407194D01*
X352109Y407239D01*
X352170Y407324D01*
X352238Y407403D01*
X352270Y407464D01*
X352311Y407520D01*
X352350Y407617D01*
X352399Y407709D01*
X352416Y407776D01*
X352442Y407840D01*
X352459Y407943D01*
X352485Y408044D01*
X352492Y408148D01*
X352498Y408181D01*
X352496Y408204D01*
X352499Y408248D01*
X352499Y434283D01*
X352493Y434335D01*
X352496Y434387D01*
X352473Y434506D01*
X352459Y434626D01*
X352442Y434676D01*
X352432Y434727D01*
X352383Y434838D01*
X352342Y434952D01*
X352313Y434995D01*
X352292Y435043D01*
X352219Y435140D01*
X352153Y435241D01*
X352115Y435277D01*
X352084Y435319D01*
X351990Y435396D01*
X351903Y435480D01*
X351858Y435506D01*
X351818Y435540D01*
X351709Y435594D01*
X351605Y435655D01*
X351555Y435670D01*
X351508Y435693D01*
X351390Y435721D01*
X351274Y435757D01*
X351222Y435760D01*
X351171Y435772D01*
X351050Y435772D01*
X350929Y435780D01*
X350878Y435772D01*
X350826Y435772D01*
X350708Y435744D01*
X350588Y435724D01*
X350540Y435704D01*
X350489Y435692D01*
X350381Y435638D01*
X350269Y435592D01*
X350227Y435561D01*
X350180Y435538D01*
X350087Y435460D01*
X349989Y435390D01*
X349954Y435350D01*
X349914Y435317D01*
X349841Y435220D01*
X349762Y435128D01*
X349738Y435082D01*
X349706Y435040D01*
X349615Y434857D01*
X348479Y432114D01*
X345666Y429301D01*
X341989Y427778D01*
X338011Y427778D01*
X334334Y429301D01*
X331521Y432114D01*
X329998Y435791D01*
X329998Y439769D01*
X331521Y443446D01*
X334334Y446259D01*
X338011Y447782D01*
X341989Y447782D01*
X345666Y446259D01*
X348479Y443446D01*
X349615Y440703D01*
X349640Y440658D01*
X349658Y440608D01*
X349724Y440507D01*
X349783Y440401D01*
X349818Y440363D01*
X349847Y440319D01*
X349934Y440235D01*
X350016Y440146D01*
X350059Y440116D01*
X350097Y440080D01*
X350201Y440019D01*
X350301Y439951D01*
X350350Y439932D01*
X350395Y439905D01*
X350511Y439870D01*
X350624Y439826D01*
X350676Y439819D01*
X350726Y439803D01*
X350846Y439795D01*
X350966Y439778D01*
X351018Y439783D01*
X351071Y439780D01*
X351190Y439799D01*
X351311Y439810D01*
X351360Y439827D01*
X351412Y439836D01*
X351524Y439882D01*
X351638Y439921D01*
X351683Y439948D01*
X351731Y439968D01*
X351829Y440039D01*
X351932Y440103D01*
X351969Y440140D01*
X352011Y440170D01*
X352091Y440262D01*
X352176Y440348D01*
X352204Y440392D01*
X352238Y440432D01*
X352294Y440539D01*
X352358Y440642D01*
X352375Y440691D01*
X352399Y440738D01*
X352429Y440855D01*
X352467Y440970D01*
X352472Y441022D01*
X352485Y441072D01*
X352499Y441277D01*
X352499Y466529D01*
X352483Y466667D01*
X352473Y466806D01*
X352463Y466839D01*
X352459Y466872D01*
X352412Y467003D01*
X352371Y467137D01*
X352353Y467166D01*
X352342Y467198D01*
X352266Y467314D01*
X352195Y467434D01*
X352165Y467468D01*
X352153Y467487D01*
X352129Y467510D01*
X352060Y467589D01*
X316901Y502748D01*
X316792Y502835D01*
X316686Y502926D01*
X316656Y502942D01*
X316630Y502963D01*
X316504Y503022D01*
X316380Y503087D01*
X316348Y503095D01*
X316317Y503110D01*
X316181Y503138D01*
X316046Y503173D01*
X316000Y503176D01*
X315979Y503181D01*
X315945Y503180D01*
X315841Y503187D01*
X308525Y503187D01*
X303187Y508525D01*
X303187Y516075D01*
X308525Y521413D01*
X316075Y521413D01*
X321413Y516075D01*
X321413Y508759D01*
X321429Y508621D01*
X321439Y508482D01*
X321449Y508449D01*
X321453Y508416D01*
X321500Y508285D01*
X321541Y508151D01*
X321559Y508122D01*
X321570Y508090D01*
X321646Y507974D01*
X321717Y507854D01*
X321747Y507820D01*
X321759Y507801D01*
X321783Y507778D01*
X321852Y507699D01*
X354940Y474611D01*
X355022Y474546D01*
X355097Y474474D01*
X355157Y474439D01*
X355211Y474396D01*
X355305Y474352D01*
X355395Y474299D01*
X355461Y474279D01*
X355524Y474249D01*
X355626Y474228D01*
X355726Y474197D01*
X355795Y474192D01*
X355862Y474178D01*
X355966Y474181D01*
X356071Y474173D01*
X356139Y474185D01*
X356208Y474186D01*
X356309Y474213D01*
X356412Y474229D01*
X356476Y474256D01*
X356542Y474273D01*
X356635Y474322D01*
X356731Y474362D01*
X356787Y474403D01*
X356848Y474435D01*
X356927Y474503D01*
X357011Y474564D01*
X357057Y474617D01*
X357109Y474662D01*
X357170Y474747D01*
X357238Y474825D01*
X357270Y474887D01*
X357311Y474943D01*
X357350Y475039D01*
X357399Y475132D01*
X357416Y475198D01*
X357443Y475262D01*
X357459Y475365D01*
X357485Y475466D01*
X357492Y475570D01*
X357498Y475604D01*
X357496Y475626D01*
X357499Y475671D01*
X357499Y486929D01*
X357483Y487067D01*
X357473Y487206D01*
X357463Y487239D01*
X357459Y487272D01*
X357412Y487403D01*
X357371Y487537D01*
X357353Y487566D01*
X357342Y487598D01*
X357266Y487714D01*
X357195Y487834D01*
X357165Y487868D01*
X357153Y487887D01*
X357129Y487910D01*
X357060Y487989D01*
X342301Y502748D01*
X342192Y502835D01*
X342087Y502926D01*
X342057Y502942D01*
X342030Y502963D01*
X341904Y503022D01*
X341780Y503087D01*
X341748Y503095D01*
X341717Y503110D01*
X341581Y503138D01*
X341446Y503173D01*
X341401Y503176D01*
X341379Y503181D01*
X341345Y503180D01*
X341241Y503187D01*
X333925Y503187D01*
X328587Y508525D01*
X328587Y516075D01*
X333925Y521413D01*
X341475Y521413D01*
X346813Y516075D01*
X346813Y508759D01*
X346829Y508621D01*
X346839Y508482D01*
X346849Y508449D01*
X346853Y508416D01*
X346900Y508285D01*
X346941Y508151D01*
X346959Y508122D01*
X346970Y508090D01*
X347046Y507974D01*
X347117Y507854D01*
X347147Y507820D01*
X347159Y507801D01*
X347183Y507778D01*
X347252Y507699D01*
X359940Y495011D01*
X360022Y494946D01*
X360097Y494874D01*
X360157Y494839D01*
X360211Y494796D01*
X360305Y494752D01*
X360395Y494699D01*
X360461Y494679D01*
X360524Y494649D01*
X360626Y494628D01*
X360726Y494597D01*
X360795Y494592D01*
X360862Y494578D01*
X360966Y494581D01*
X361071Y494573D01*
X361139Y494585D01*
X361208Y494586D01*
X361309Y494613D01*
X361412Y494629D01*
X361476Y494656D01*
X361542Y494673D01*
X361635Y494722D01*
X361731Y494762D01*
X361787Y494803D01*
X361848Y494835D01*
X361927Y494903D01*
X362011Y494964D01*
X362057Y495017D01*
X362109Y495062D01*
X362170Y495147D01*
X362238Y495225D01*
X362270Y495287D01*
X362311Y495343D01*
X362350Y495439D01*
X362399Y495532D01*
X362416Y495598D01*
X362443Y495662D01*
X362459Y495765D01*
X362485Y495866D01*
X362492Y495970D01*
X362498Y496004D01*
X362496Y496026D01*
X362499Y496071D01*
X362499Y501688D01*
X362495Y501723D01*
X362498Y501759D01*
X362475Y501895D01*
X362459Y502031D01*
X362447Y502065D01*
X362442Y502100D01*
X362389Y502227D01*
X362342Y502357D01*
X362323Y502386D01*
X362309Y502419D01*
X362228Y502531D01*
X362153Y502646D01*
X362127Y502671D01*
X362107Y502699D01*
X362003Y502790D01*
X361903Y502885D01*
X361872Y502903D01*
X361846Y502926D01*
X361723Y502990D01*
X361605Y503060D01*
X361571Y503070D01*
X361539Y503087D01*
X361406Y503121D01*
X361274Y503162D01*
X361239Y503164D01*
X361205Y503173D01*
X361000Y503187D01*
X359325Y503187D01*
X353987Y508525D01*
X353987Y516075D01*
X359325Y521413D01*
X366875Y521413D01*
X367652Y520635D01*
X367734Y520571D01*
X367809Y520499D01*
X367869Y520464D01*
X367923Y520421D01*
X368017Y520376D01*
X368107Y520324D01*
X368173Y520303D01*
X368236Y520274D01*
X368338Y520252D01*
X368438Y520222D01*
X368507Y520217D01*
X368574Y520203D01*
X368678Y520205D01*
X368783Y520198D01*
X368851Y520209D01*
X368920Y520211D01*
X369021Y520237D01*
X369124Y520254D01*
X369188Y520280D01*
X369254Y520298D01*
X369347Y520347D01*
X369443Y520387D01*
X369499Y520427D01*
X369560Y520459D01*
X369639Y520528D01*
X369723Y520589D01*
X369769Y520641D01*
X369821Y520686D01*
X369882Y520771D01*
X369950Y520850D01*
X369982Y520911D01*
X370023Y520967D01*
X370062Y521064D01*
X370111Y521156D01*
X370128Y521223D01*
X370154Y521287D01*
X370171Y521390D01*
X370197Y521491D01*
X370204Y521595D01*
X370210Y521628D01*
X370208Y521651D01*
X370211Y521696D01*
X370211Y525017D01*
X370195Y525155D01*
X370185Y525294D01*
X370175Y525327D01*
X370171Y525360D01*
X370124Y525491D01*
X370083Y525625D01*
X370065Y525654D01*
X370054Y525686D01*
X369978Y525802D01*
X369907Y525922D01*
X369877Y525956D01*
X369865Y525975D01*
X369841Y525998D01*
X369772Y526077D01*
X367701Y528148D01*
X367592Y528235D01*
X367486Y528326D01*
X367456Y528342D01*
X367430Y528363D01*
X367304Y528422D01*
X367180Y528487D01*
X367148Y528495D01*
X367117Y528510D01*
X366981Y528538D01*
X366846Y528573D01*
X366800Y528576D01*
X366779Y528581D01*
X366745Y528580D01*
X366641Y528587D01*
X359325Y528587D01*
X353987Y533925D01*
X353987Y541475D01*
X359325Y546813D01*
X366875Y546813D01*
X372213Y541475D01*
X372213Y534159D01*
X372229Y534021D01*
X372239Y533882D01*
X372249Y533849D01*
X372253Y533816D01*
X372300Y533685D01*
X372341Y533551D01*
X372359Y533522D01*
X372370Y533490D01*
X372446Y533374D01*
X372517Y533254D01*
X372547Y533220D01*
X372559Y533201D01*
X372583Y533178D01*
X372652Y533099D01*
X377213Y528538D01*
X377213Y518283D01*
X377225Y518180D01*
X377227Y518075D01*
X377245Y518008D01*
X377253Y517940D01*
X377288Y517842D01*
X377314Y517741D01*
X377347Y517680D01*
X377370Y517615D01*
X377427Y517527D01*
X377476Y517435D01*
X377521Y517383D01*
X377559Y517325D01*
X377634Y517253D01*
X377703Y517174D01*
X377759Y517134D01*
X377809Y517086D01*
X377899Y517034D01*
X377984Y516973D01*
X378048Y516946D01*
X378107Y516911D01*
X378207Y516881D01*
X378303Y516841D01*
X378372Y516830D01*
X378438Y516809D01*
X378542Y516802D01*
X378645Y516785D01*
X378714Y516790D01*
X378783Y516786D01*
X378885Y516803D01*
X378990Y516810D01*
X379056Y516830D01*
X379124Y516842D01*
X379220Y516882D01*
X379320Y516913D01*
X379379Y516948D01*
X379443Y516974D01*
X379528Y517035D01*
X379617Y517088D01*
X379696Y517157D01*
X379723Y517177D01*
X379738Y517193D01*
X379772Y517223D01*
X384502Y521953D01*
X385285Y521953D01*
X385388Y521965D01*
X385493Y521967D01*
X385559Y521985D01*
X385628Y521993D01*
X385726Y522028D01*
X385827Y522054D01*
X385888Y522087D01*
X385953Y522110D01*
X386041Y522167D01*
X386133Y522216D01*
X386185Y522261D01*
X386243Y522299D01*
X386315Y522374D01*
X386394Y522443D01*
X386434Y522499D01*
X386482Y522549D01*
X386534Y522639D01*
X386595Y522724D01*
X386622Y522788D01*
X386657Y522847D01*
X386687Y522947D01*
X386727Y523043D01*
X386738Y523112D01*
X386759Y523178D01*
X386766Y523282D01*
X386782Y523385D01*
X386778Y523454D01*
X386782Y523523D01*
X386765Y523625D01*
X386758Y523730D01*
X386737Y523796D01*
X386726Y523864D01*
X386686Y523960D01*
X386655Y524060D01*
X386620Y524119D01*
X386594Y524183D01*
X386533Y524267D01*
X386480Y524357D01*
X386411Y524436D01*
X386391Y524463D01*
X386374Y524478D01*
X386345Y524512D01*
X384999Y525858D01*
X384999Y527692D01*
X384983Y527831D01*
X384973Y527970D01*
X384963Y528002D01*
X384959Y528036D01*
X384912Y528167D01*
X384871Y528300D01*
X384853Y528329D01*
X384842Y528361D01*
X384766Y528478D01*
X384695Y528598D01*
X384665Y528632D01*
X384653Y528651D01*
X384629Y528674D01*
X384560Y528753D01*
X379387Y533925D01*
X379387Y541475D01*
X384725Y546813D01*
X392275Y546813D01*
X397613Y541475D01*
X397613Y533925D01*
X393283Y529596D01*
X393261Y529568D01*
X393234Y529545D01*
X393154Y529433D01*
X393068Y529325D01*
X393053Y529293D01*
X393033Y529264D01*
X392980Y529136D01*
X392921Y529012D01*
X392914Y528977D01*
X392901Y528944D01*
X392879Y528808D01*
X392850Y528673D01*
X392851Y528638D01*
X392845Y528603D01*
X392855Y528465D01*
X392858Y528328D01*
X392867Y528293D01*
X392870Y528258D01*
X392911Y528126D01*
X392945Y527993D01*
X392962Y527962D01*
X392973Y527928D01*
X393043Y527809D01*
X393107Y527687D01*
X393130Y527661D01*
X393148Y527630D01*
X393283Y527475D01*
X402613Y518146D01*
X402613Y517520D01*
X402625Y517416D01*
X402627Y517312D01*
X402645Y517245D01*
X402653Y517176D01*
X402688Y517078D01*
X402714Y516977D01*
X402747Y516916D01*
X402770Y516851D01*
X402827Y516763D01*
X402876Y516671D01*
X402921Y516619D01*
X402959Y516561D01*
X403034Y516489D01*
X403103Y516411D01*
X403159Y516370D01*
X403209Y516323D01*
X403299Y516270D01*
X403384Y516209D01*
X403448Y516183D01*
X403507Y516148D01*
X403607Y516117D01*
X403703Y516077D01*
X403772Y516066D01*
X403838Y516046D01*
X403942Y516038D01*
X404045Y516022D01*
X404114Y516027D01*
X404183Y516022D01*
X404285Y516039D01*
X404390Y516046D01*
X404456Y516067D01*
X404524Y516078D01*
X404620Y516118D01*
X404720Y516149D01*
X404779Y516184D01*
X404843Y516211D01*
X404928Y516272D01*
X405017Y516325D01*
X405096Y516393D01*
X405123Y516413D01*
X405138Y516430D01*
X405172Y516459D01*
X410125Y521413D01*
X417675Y521413D01*
X423013Y516075D01*
X423013Y508525D01*
X417675Y503187D01*
X410125Y503187D01*
X405172Y508141D01*
X405090Y508205D01*
X405015Y508277D01*
X404955Y508312D01*
X404901Y508355D01*
X404807Y508400D01*
X404717Y508452D01*
X404651Y508473D01*
X404588Y508502D01*
X404486Y508524D01*
X404386Y508554D01*
X404317Y508559D01*
X404250Y508573D01*
X404146Y508571D01*
X404041Y508578D01*
X403973Y508567D01*
X403904Y508565D01*
X403803Y508539D01*
X403700Y508522D01*
X403636Y508496D01*
X403570Y508478D01*
X403477Y508429D01*
X403381Y508389D01*
X403325Y508349D01*
X403264Y508317D01*
X403185Y508248D01*
X403101Y508187D01*
X403055Y508135D01*
X403003Y508090D01*
X402942Y508005D01*
X402874Y507926D01*
X402842Y507865D01*
X402801Y507809D01*
X402762Y507712D01*
X402713Y507620D01*
X402696Y507553D01*
X402670Y507489D01*
X402653Y507386D01*
X402627Y507285D01*
X402620Y507181D01*
X402614Y507148D01*
X402616Y507125D01*
X402613Y507080D01*
X402613Y506454D01*
X379940Y483781D01*
X379866Y483688D01*
X379843Y483664D01*
X379836Y483652D01*
X379762Y483567D01*
X379746Y483537D01*
X379725Y483510D01*
X379666Y483384D01*
X379601Y483261D01*
X379593Y483228D01*
X379578Y483197D01*
X379550Y483061D01*
X379515Y482926D01*
X379512Y482881D01*
X379507Y482859D01*
X379508Y482825D01*
X379501Y482721D01*
X379501Y461071D01*
X379513Y460968D01*
X379515Y460863D01*
X379533Y460796D01*
X379541Y460728D01*
X379576Y460629D01*
X379602Y460529D01*
X379635Y460468D01*
X379658Y460402D01*
X379715Y460315D01*
X379764Y460223D01*
X379809Y460171D01*
X379847Y460113D01*
X379922Y460041D01*
X379991Y459962D01*
X380047Y459922D01*
X380097Y459874D01*
X380187Y459821D01*
X380272Y459760D01*
X380336Y459734D01*
X380395Y459699D01*
X380495Y459668D01*
X380591Y459629D01*
X380660Y459617D01*
X380726Y459597D01*
X380830Y459590D01*
X380933Y459573D01*
X381002Y459578D01*
X381071Y459573D01*
X381173Y459590D01*
X381278Y459598D01*
X381344Y459618D01*
X381412Y459629D01*
X381508Y459669D01*
X381608Y459700D01*
X381667Y459736D01*
X381731Y459762D01*
X381816Y459823D01*
X381905Y459876D01*
X381984Y459945D01*
X382011Y459964D01*
X382026Y459981D01*
X382060Y460011D01*
X429748Y507699D01*
X429835Y507808D01*
X429926Y507914D01*
X429942Y507944D01*
X429963Y507970D01*
X430022Y508096D01*
X430087Y508220D01*
X430095Y508252D01*
X430110Y508283D01*
X430138Y508419D01*
X430173Y508554D01*
X430176Y508600D01*
X430181Y508621D01*
X430180Y508655D01*
X430187Y508759D01*
X430187Y516075D01*
X435525Y521413D01*
X443075Y521413D01*
X448413Y516075D01*
X448413Y508525D01*
X443075Y503187D01*
X435759Y503187D01*
X435621Y503171D01*
X435482Y503161D01*
X435449Y503151D01*
X435416Y503147D01*
X435285Y503100D01*
X435151Y503059D01*
X435122Y503041D01*
X435090Y503030D01*
X434974Y502954D01*
X434854Y502883D01*
X434820Y502853D01*
X434801Y502841D01*
X434778Y502817D01*
X434699Y502748D01*
X384940Y452989D01*
X384853Y452880D01*
X384762Y452774D01*
X384746Y452744D01*
X384725Y452718D01*
X384666Y452592D01*
X384601Y452468D01*
X384593Y452436D01*
X384578Y452405D01*
X384550Y452269D01*
X384515Y452134D01*
X384512Y452088D01*
X384507Y452067D01*
X384508Y452033D01*
X384501Y451929D01*
X384501Y440671D01*
X384513Y440568D01*
X384515Y440463D01*
X384533Y440396D01*
X384541Y440328D01*
X384576Y440229D01*
X384602Y440129D01*
X384635Y440068D01*
X384658Y440002D01*
X384715Y439915D01*
X384764Y439823D01*
X384809Y439771D01*
X384847Y439713D01*
X384922Y439641D01*
X384991Y439562D01*
X385047Y439522D01*
X385097Y439474D01*
X385187Y439421D01*
X385272Y439360D01*
X385336Y439334D01*
X385395Y439299D01*
X385495Y439268D01*
X385591Y439229D01*
X385660Y439217D01*
X385726Y439197D01*
X385830Y439190D01*
X385933Y439173D01*
X386002Y439178D01*
X386071Y439173D01*
X386173Y439190D01*
X386278Y439198D01*
X386344Y439218D01*
X386412Y439229D01*
X386508Y439269D01*
X386608Y439300D01*
X386667Y439336D01*
X386731Y439362D01*
X386816Y439423D01*
X386905Y439476D01*
X386984Y439545D01*
X387011Y439564D01*
X387026Y439581D01*
X387060Y439611D01*
X455148Y507699D01*
X455235Y507808D01*
X455326Y507914D01*
X455342Y507944D01*
X455363Y507970D01*
X455422Y508096D01*
X455487Y508220D01*
X455495Y508252D01*
X455510Y508283D01*
X455538Y508419D01*
X455573Y508554D01*
X455576Y508600D01*
X455581Y508621D01*
X455580Y508655D01*
X455587Y508759D01*
X455587Y516075D01*
X460925Y521413D01*
X462025Y521413D01*
X462128Y521425D01*
X462233Y521427D01*
X462300Y521445D01*
X462368Y521453D01*
X462466Y521488D01*
X462567Y521514D01*
X462628Y521547D01*
X462693Y521570D01*
X462781Y521627D01*
X462873Y521676D01*
X462925Y521721D01*
X462983Y521759D01*
X463055Y521834D01*
X463134Y521903D01*
X463174Y521959D01*
X463222Y522009D01*
X463274Y522099D01*
X463335Y522184D01*
X463362Y522248D01*
X463397Y522307D01*
X463427Y522407D01*
X463467Y522503D01*
X463478Y522572D01*
X463499Y522638D01*
X463506Y522742D01*
X463522Y522845D01*
X463518Y522914D01*
X463522Y522983D01*
X463505Y523085D01*
X463498Y523190D01*
X463477Y523256D01*
X463466Y523324D01*
X463426Y523420D01*
X463395Y523520D01*
X463360Y523579D01*
X463334Y523643D01*
X463273Y523728D01*
X463220Y523817D01*
X463151Y523896D01*
X463131Y523923D01*
X463114Y523938D01*
X463085Y523972D01*
X461199Y525858D01*
X461199Y527692D01*
X461183Y527831D01*
X461173Y527970D01*
X461163Y528002D01*
X461159Y528036D01*
X461112Y528167D01*
X461071Y528300D01*
X461053Y528329D01*
X461042Y528361D01*
X460966Y528478D01*
X460895Y528598D01*
X460865Y528632D01*
X460853Y528651D01*
X460829Y528674D01*
X460760Y528753D01*
X455587Y533925D01*
X455587Y541475D01*
X460925Y546813D01*
X468475Y546813D01*
X473813Y541475D01*
X473813Y533925D01*
X469483Y529596D01*
X469461Y529568D01*
X469434Y529545D01*
X469354Y529433D01*
X469268Y529325D01*
X469253Y529293D01*
X469233Y529264D01*
X469180Y529136D01*
X469121Y529012D01*
X469114Y528977D01*
X469101Y528944D01*
X469079Y528808D01*
X469050Y528673D01*
X469051Y528638D01*
X469045Y528603D01*
X469055Y528465D01*
X469058Y528328D01*
X469067Y528293D01*
X469070Y528258D01*
X469111Y528126D01*
X469145Y527993D01*
X469162Y527962D01*
X469173Y527928D01*
X469243Y527809D01*
X469307Y527687D01*
X469330Y527661D01*
X469348Y527630D01*
X469483Y527475D01*
X476323Y520636D01*
X476323Y520635D01*
X478813Y518146D01*
X478813Y517520D01*
X478825Y517416D01*
X478827Y517312D01*
X478845Y517245D01*
X478853Y517176D01*
X478888Y517078D01*
X478914Y516977D01*
X478947Y516916D01*
X478970Y516851D01*
X479027Y516763D01*
X479076Y516671D01*
X479121Y516619D01*
X479159Y516561D01*
X479234Y516489D01*
X479303Y516411D01*
X479359Y516370D01*
X479409Y516323D01*
X479499Y516270D01*
X479584Y516209D01*
X479648Y516183D01*
X479707Y516148D01*
X479807Y516117D01*
X479903Y516077D01*
X479972Y516066D01*
X480038Y516046D01*
X480142Y516038D01*
X480245Y516022D01*
X480314Y516027D01*
X480383Y516022D01*
X480485Y516039D01*
X480590Y516046D01*
X480656Y516067D01*
X480724Y516078D01*
X480820Y516118D01*
X480920Y516149D01*
X480979Y516184D01*
X481043Y516211D01*
X481128Y516272D01*
X481217Y516325D01*
X481296Y516393D01*
X481323Y516413D01*
X481338Y516430D01*
X481372Y516459D01*
X486325Y521413D01*
X493875Y521413D01*
X499213Y516075D01*
X499213Y508525D01*
X493875Y503187D01*
X486559Y503187D01*
X486421Y503171D01*
X486282Y503161D01*
X486249Y503151D01*
X486216Y503147D01*
X486085Y503100D01*
X485951Y503059D01*
X485922Y503041D01*
X485890Y503030D01*
X485774Y502954D01*
X485654Y502883D01*
X485620Y502853D01*
X485601Y502841D01*
X485578Y502817D01*
X485499Y502748D01*
X475938Y493187D01*
X465830Y493187D01*
X465692Y493171D01*
X465553Y493161D01*
X465520Y493151D01*
X465487Y493147D01*
X465356Y493100D01*
X465223Y493059D01*
X465193Y493041D01*
X465162Y493030D01*
X465045Y492954D01*
X464925Y492883D01*
X464891Y492853D01*
X464872Y492841D01*
X464849Y492817D01*
X464770Y492748D01*
X399940Y427918D01*
X399853Y427809D01*
X399762Y427703D01*
X399746Y427673D01*
X399725Y427647D01*
X399666Y427521D01*
X399601Y427397D01*
X399593Y427364D01*
X399578Y427334D01*
X399550Y427198D01*
X399515Y427062D01*
X399512Y427017D01*
X399507Y426996D01*
X399508Y426962D01*
X399501Y426858D01*
X399501Y222640D01*
X399517Y222502D01*
X399527Y222363D01*
X399537Y222330D01*
X399541Y222297D01*
X399588Y222166D01*
X399629Y222032D01*
X399647Y222003D01*
X399658Y221971D01*
X399734Y221855D01*
X399805Y221735D01*
X399835Y221701D01*
X399847Y221682D01*
X399871Y221659D01*
X399940Y221580D01*
X426516Y195004D01*
X426625Y194918D01*
X426730Y194826D01*
X426760Y194810D01*
X426787Y194789D01*
X426913Y194730D01*
X427036Y194665D01*
X427069Y194657D01*
X427100Y194643D01*
X427236Y194614D01*
X427371Y194579D01*
X427416Y194576D01*
X427438Y194571D01*
X427472Y194572D01*
X427576Y194565D01*
X434116Y194565D01*
X448617Y180064D01*
X448617Y159472D01*
X448633Y159333D01*
X448643Y159194D01*
X448653Y159162D01*
X448657Y159128D01*
X448705Y158997D01*
X448746Y158864D01*
X448763Y158835D01*
X448775Y158803D01*
X448851Y158686D01*
X448922Y158566D01*
X448951Y158532D01*
X448964Y158513D01*
X448988Y158490D01*
X449056Y158411D01*
X449815Y157653D01*
X450734Y155435D01*
X450734Y153035D01*
X449815Y150818D01*
X448118Y149121D01*
X447360Y148807D01*
X447223Y148731D01*
X447085Y148658D01*
X447073Y148647D01*
X447058Y148639D01*
X446943Y148534D01*
X446825Y148431D01*
X446815Y148417D01*
X446802Y148406D01*
X446715Y148278D01*
X446623Y148150D01*
X446617Y148134D01*
X446607Y148121D01*
X446551Y147976D01*
X446491Y147831D01*
X446488Y147814D01*
X446482Y147798D01*
X446461Y147644D01*
X446436Y147489D01*
X446437Y147472D01*
X446435Y147456D01*
X446449Y147301D01*
X446460Y147144D01*
X446465Y147128D01*
X446467Y147111D01*
X446516Y146964D01*
X446563Y146814D01*
X446572Y146800D01*
X446577Y146784D01*
X446659Y146651D01*
X446739Y146516D01*
X446753Y146500D01*
X446759Y146490D01*
X446779Y146470D01*
X446873Y146362D01*
X486295Y106940D01*
X486405Y106853D01*
X486510Y106762D01*
X486540Y106746D01*
X486566Y106725D01*
X486692Y106666D01*
X486816Y106601D01*
X486849Y106593D01*
X486879Y106578D01*
X487016Y106550D01*
X487151Y106515D01*
X487196Y106512D01*
X487218Y106507D01*
X487251Y106508D01*
X487356Y106501D01*
X505996Y106501D01*
X523175Y89321D01*
X523203Y89299D01*
X523226Y89273D01*
X523339Y89192D01*
X523446Y89107D01*
X523478Y89092D01*
X523507Y89071D01*
X523635Y89018D01*
X523759Y88960D01*
X523794Y88953D01*
X523827Y88939D01*
X523963Y88917D01*
X524098Y88889D01*
X524133Y88890D01*
X524168Y88884D01*
X524306Y88894D01*
X524443Y88897D01*
X524478Y88906D01*
X524513Y88908D01*
X524645Y88949D01*
X524778Y88984D01*
X524809Y89000D01*
X524843Y89011D01*
X524962Y89081D01*
X525084Y89145D01*
X525110Y89169D01*
X525141Y89187D01*
X525296Y89321D01*
X527950Y91976D01*
X531486Y93441D01*
X535314Y93441D01*
X538850Y91976D01*
X541556Y89270D01*
X543021Y85734D01*
X543021Y66666D01*
X541556Y63130D01*
X538850Y60424D01*
X535314Y58959D01*
X531486Y58959D01*
X527950Y60424D01*
X525244Y63130D01*
X523779Y66666D01*
X523779Y78195D01*
X523763Y78333D01*
X523753Y78473D01*
X523743Y78505D01*
X523739Y78538D01*
X523692Y78669D01*
X523651Y78803D01*
X523633Y78832D01*
X523622Y78864D01*
X523546Y78980D01*
X523475Y79100D01*
X523445Y79135D01*
X523433Y79153D01*
X523409Y79177D01*
X523340Y79255D01*
X520180Y82415D01*
X520098Y82480D01*
X520023Y82552D01*
X519963Y82587D01*
X519909Y82630D01*
X519815Y82674D01*
X519725Y82727D01*
X519659Y82747D01*
X519596Y82777D01*
X519494Y82798D01*
X519394Y82829D01*
X519325Y82834D01*
X519258Y82848D01*
X519154Y82846D01*
X519049Y82853D01*
X518981Y82841D01*
X518912Y82840D01*
X518811Y82814D01*
X518708Y82797D01*
X518644Y82770D01*
X518578Y82753D01*
X518485Y82704D01*
X518389Y82664D01*
X518333Y82624D01*
X518272Y82591D01*
X518193Y82523D01*
X518109Y82462D01*
X518063Y82409D01*
X518011Y82364D01*
X517950Y82279D01*
X517882Y82201D01*
X517850Y82139D01*
X517809Y82083D01*
X517770Y81987D01*
X517721Y81895D01*
X517704Y81828D01*
X517677Y81764D01*
X517661Y81661D01*
X517635Y81560D01*
X517628Y81456D01*
X517622Y81422D01*
X517624Y81400D01*
X517621Y81355D01*
X517621Y66666D01*
X516156Y63130D01*
X513450Y60424D01*
X509914Y58959D01*
X506086Y58959D01*
X502550Y60424D01*
X499844Y63130D01*
X498379Y66666D01*
X498379Y80249D01*
X498363Y80387D01*
X498353Y80526D01*
X498343Y80559D01*
X498339Y80592D01*
X498292Y80723D01*
X498251Y80857D01*
X498233Y80886D01*
X498222Y80918D01*
X498146Y81034D01*
X498075Y81154D01*
X498045Y81188D01*
X498033Y81207D01*
X498009Y81230D01*
X497940Y81309D01*
X494780Y84469D01*
X494698Y84534D01*
X494623Y84606D01*
X494563Y84641D01*
X494509Y84684D01*
X494415Y84728D01*
X494325Y84781D01*
X494259Y84801D01*
X494196Y84831D01*
X494094Y84852D01*
X493994Y84883D01*
X493925Y84888D01*
X493858Y84902D01*
X493754Y84899D01*
X493649Y84907D01*
X493581Y84895D01*
X493512Y84894D01*
X493411Y84867D01*
X493308Y84851D01*
X493244Y84824D01*
X493178Y84807D01*
X493085Y84758D01*
X492989Y84718D01*
X492933Y84677D01*
X492872Y84645D01*
X492793Y84577D01*
X492709Y84516D01*
X492663Y84463D01*
X492611Y84418D01*
X492550Y84333D01*
X492482Y84255D01*
X492450Y84193D01*
X492409Y84137D01*
X492370Y84041D01*
X492321Y83948D01*
X492304Y83882D01*
X492277Y83818D01*
X492261Y83715D01*
X492235Y83614D01*
X492228Y83510D01*
X492222Y83476D01*
X492224Y83454D01*
X492221Y83409D01*
X492221Y66666D01*
X490756Y63130D01*
X488050Y60424D01*
X484514Y58959D01*
X480686Y58959D01*
X477150Y60424D01*
X474444Y63130D01*
X472979Y66666D01*
X472979Y85734D01*
X474444Y89270D01*
X476123Y90949D01*
X476145Y90976D01*
X476171Y91000D01*
X476252Y91112D01*
X476337Y91220D01*
X476352Y91252D01*
X476373Y91280D01*
X476426Y91408D01*
X476484Y91533D01*
X476492Y91567D01*
X476505Y91600D01*
X476527Y91736D01*
X476555Y91871D01*
X476555Y91906D01*
X476560Y91941D01*
X476551Y92079D01*
X476547Y92217D01*
X476538Y92251D01*
X476536Y92286D01*
X476495Y92418D01*
X476460Y92551D01*
X476444Y92582D01*
X476433Y92616D01*
X476363Y92735D01*
X476299Y92857D01*
X476276Y92884D01*
X476258Y92914D01*
X476123Y93069D01*
X463260Y105931D01*
X463178Y105996D01*
X463103Y106068D01*
X463043Y106103D01*
X462989Y106146D01*
X462895Y106190D01*
X462805Y106243D01*
X462739Y106263D01*
X462676Y106293D01*
X462574Y106314D01*
X462474Y106345D01*
X462405Y106350D01*
X462338Y106364D01*
X462234Y106362D01*
X462129Y106369D01*
X462061Y106358D01*
X461992Y106356D01*
X461891Y106330D01*
X461788Y106313D01*
X461724Y106286D01*
X461658Y106269D01*
X461565Y106220D01*
X461469Y106180D01*
X461413Y106140D01*
X461352Y106107D01*
X461273Y106039D01*
X461189Y105978D01*
X461143Y105926D01*
X461091Y105880D01*
X461030Y105796D01*
X460962Y105717D01*
X460930Y105656D01*
X460889Y105599D01*
X460850Y105503D01*
X460801Y105411D01*
X460784Y105344D01*
X460757Y105280D01*
X460741Y105177D01*
X460715Y105076D01*
X460708Y104972D01*
X460702Y104939D01*
X460704Y104916D01*
X460701Y104871D01*
X460701Y93785D01*
X460711Y93698D01*
X460711Y93611D01*
X460731Y93527D01*
X460741Y93442D01*
X460770Y93359D01*
X460790Y93274D01*
X460829Y93197D01*
X460858Y93117D01*
X460906Y93043D01*
X460945Y92965D01*
X461000Y92899D01*
X461047Y92827D01*
X461110Y92767D01*
X461166Y92699D01*
X461235Y92648D01*
X461297Y92588D01*
X461373Y92544D01*
X461443Y92491D01*
X461572Y92427D01*
X461595Y92413D01*
X461607Y92410D01*
X461626Y92400D01*
X462650Y91976D01*
X465356Y89270D01*
X466821Y85734D01*
X466821Y66666D01*
X465356Y63130D01*
X462650Y60424D01*
X459114Y58959D01*
X455286Y58959D01*
X451750Y60424D01*
X449044Y63130D01*
X447579Y66666D01*
X447579Y85734D01*
X449044Y89270D01*
X451750Y91976D01*
X452774Y92400D01*
X452850Y92443D01*
X452931Y92476D01*
X453001Y92526D01*
X453076Y92568D01*
X453140Y92627D01*
X453211Y92678D01*
X453268Y92743D01*
X453331Y92801D01*
X453381Y92873D01*
X453438Y92940D01*
X453478Y93016D01*
X453527Y93087D01*
X453558Y93168D01*
X453599Y93246D01*
X453620Y93329D01*
X453651Y93409D01*
X453663Y93496D01*
X453685Y93580D01*
X453695Y93724D01*
X453699Y93751D01*
X453698Y93763D01*
X453699Y93785D01*
X453699Y107800D01*
X453683Y107938D01*
X453673Y108078D01*
X453663Y108110D01*
X453659Y108143D01*
X453612Y108274D01*
X453571Y108408D01*
X453553Y108437D01*
X453542Y108469D01*
X453466Y108585D01*
X453395Y108706D01*
X453365Y108740D01*
X453353Y108758D01*
X453329Y108782D01*
X453260Y108860D01*
X437860Y124260D01*
X437778Y124325D01*
X437703Y124397D01*
X437643Y124432D01*
X437589Y124475D01*
X437495Y124519D01*
X437405Y124572D01*
X437339Y124592D01*
X437276Y124622D01*
X437174Y124643D01*
X437074Y124674D01*
X437005Y124679D01*
X436938Y124693D01*
X436834Y124691D01*
X436729Y124698D01*
X436661Y124687D01*
X436592Y124685D01*
X436491Y124659D01*
X436388Y124642D01*
X436324Y124615D01*
X436258Y124598D01*
X436165Y124549D01*
X436069Y124509D01*
X436013Y124469D01*
X435952Y124436D01*
X435873Y124368D01*
X435789Y124307D01*
X435743Y124255D01*
X435691Y124209D01*
X435630Y124124D01*
X435562Y124046D01*
X435530Y123984D01*
X435489Y123928D01*
X435450Y123832D01*
X435401Y123740D01*
X435384Y123673D01*
X435357Y123609D01*
X435341Y123506D01*
X435315Y123405D01*
X435308Y123301D01*
X435302Y123267D01*
X435304Y123245D01*
X435301Y123200D01*
X435301Y93785D01*
X435311Y93698D01*
X435311Y93611D01*
X435331Y93527D01*
X435341Y93442D01*
X435370Y93359D01*
X435390Y93274D01*
X435429Y93197D01*
X435458Y93117D01*
X435506Y93043D01*
X435545Y92965D01*
X435600Y92899D01*
X435647Y92827D01*
X435710Y92767D01*
X435766Y92699D01*
X435835Y92648D01*
X435897Y92588D01*
X435973Y92544D01*
X436043Y92491D01*
X436172Y92427D01*
X436195Y92413D01*
X436207Y92410D01*
X436226Y92400D01*
X437250Y91976D01*
X439956Y89270D01*
X441421Y85734D01*
X441421Y66666D01*
X439956Y63130D01*
X437136Y60311D01*
X437109Y60293D01*
X437026Y60206D01*
X436937Y60124D01*
X436907Y60081D01*
X436871Y60043D01*
X436810Y59939D01*
X436742Y59839D01*
X436723Y59790D01*
X436696Y59745D01*
X436660Y59629D01*
X436617Y59517D01*
X436609Y59465D01*
X436594Y59414D01*
X436585Y59294D01*
X436569Y59174D01*
X436574Y59122D01*
X436570Y59069D01*
X436590Y58950D01*
X436601Y58830D01*
X436618Y58780D01*
X436626Y58728D01*
X436672Y58617D01*
X436711Y58502D01*
X436739Y58458D01*
X436759Y58409D01*
X436829Y58311D01*
X436893Y58209D01*
X436930Y58171D01*
X436961Y58129D01*
X437052Y58049D01*
X437138Y57964D01*
X437182Y57936D01*
X437222Y57902D01*
X437329Y57846D01*
X437432Y57782D01*
X437482Y57766D01*
X437528Y57741D01*
X437645Y57711D01*
X437760Y57673D01*
X437812Y57668D01*
X437863Y57655D01*
X438068Y57641D01*
X444052Y57641D01*
X446753Y54940D01*
X446862Y54853D01*
X446968Y54762D01*
X446998Y54746D01*
X447024Y54725D01*
X447150Y54666D01*
X447274Y54601D01*
X447307Y54593D01*
X447337Y54578D01*
X447473Y54550D01*
X447609Y54515D01*
X447654Y54512D01*
X447676Y54507D01*
X447709Y54508D01*
X447813Y54501D01*
X516450Y54501D01*
X528532Y42419D01*
X528601Y42365D01*
X528663Y42303D01*
X528708Y42275D01*
X528745Y42242D01*
X528774Y42227D01*
X528803Y42204D01*
X528882Y42167D01*
X528957Y42121D01*
X529010Y42103D01*
X529051Y42082D01*
X529080Y42074D01*
X529116Y42057D01*
X529202Y42039D01*
X529285Y42012D01*
X529344Y42006D01*
X529386Y41995D01*
X529422Y41993D01*
X529454Y41986D01*
X529504Y41987D01*
X529591Y41981D01*
X529596Y41981D01*
X529605Y41982D01*
X529629Y41980D01*
X529714Y41992D01*
X529800Y41994D01*
X529875Y42014D01*
X529939Y42021D01*
X529952Y42026D01*
X529971Y42028D01*
X530108Y42074D01*
X530135Y42081D01*
X530145Y42087D01*
X530166Y42094D01*
X531486Y42641D01*
X535314Y42641D01*
X538850Y41176D01*
X541556Y38470D01*
X543021Y34934D01*
X543021Y15866D01*
X541556Y12330D01*
X538850Y9624D01*
X535314Y8159D01*
X531486Y8159D01*
X527950Y9624D01*
X525244Y12330D01*
X523779Y15866D01*
X523779Y34934D01*
X524080Y35660D01*
X524104Y35744D01*
X524138Y35825D01*
X524151Y35910D01*
X524175Y35993D01*
X524179Y36080D01*
X524193Y36167D01*
X524187Y36252D01*
X524191Y36338D01*
X524175Y36424D01*
X524168Y36511D01*
X524143Y36593D01*
X524127Y36678D01*
X524092Y36758D01*
X524066Y36842D01*
X524022Y36916D01*
X523987Y36994D01*
X523934Y37064D01*
X523890Y37139D01*
X523795Y37248D01*
X523779Y37270D01*
X523769Y37278D01*
X523755Y37294D01*
X513989Y47060D01*
X513880Y47147D01*
X513774Y47238D01*
X513744Y47254D01*
X513718Y47275D01*
X513592Y47334D01*
X513468Y47399D01*
X513436Y47407D01*
X513405Y47422D01*
X513269Y47450D01*
X513134Y47485D01*
X513088Y47488D01*
X513067Y47493D01*
X513033Y47492D01*
X512929Y47499D01*
X501071Y47499D01*
X500968Y47487D01*
X500863Y47485D01*
X500796Y47467D01*
X500728Y47459D01*
X500629Y47424D01*
X500529Y47398D01*
X500468Y47365D01*
X500402Y47342D01*
X500315Y47285D01*
X500223Y47236D01*
X500171Y47191D01*
X500113Y47153D01*
X500041Y47078D01*
X499962Y47009D01*
X499922Y46953D01*
X499874Y46903D01*
X499821Y46813D01*
X499760Y46728D01*
X499734Y46664D01*
X499699Y46605D01*
X499668Y46505D01*
X499629Y46409D01*
X499617Y46340D01*
X499597Y46274D01*
X499590Y46170D01*
X499573Y46067D01*
X499578Y45998D01*
X499573Y45929D01*
X499590Y45827D01*
X499598Y45722D01*
X499618Y45656D01*
X499629Y45588D01*
X499669Y45492D01*
X499700Y45392D01*
X499736Y45333D01*
X499762Y45269D01*
X499823Y45184D01*
X499876Y45095D01*
X499945Y45016D01*
X499964Y44989D01*
X499981Y44974D01*
X500011Y44940D01*
X502708Y42243D01*
X502776Y42189D01*
X502838Y42127D01*
X502911Y42082D01*
X502979Y42028D01*
X503058Y41991D01*
X503132Y41945D01*
X503214Y41918D01*
X503292Y41882D01*
X503377Y41863D01*
X503460Y41836D01*
X503546Y41828D01*
X503630Y41810D01*
X503718Y41812D01*
X503805Y41804D01*
X503890Y41816D01*
X503976Y41818D01*
X504061Y41840D01*
X504147Y41853D01*
X504284Y41899D01*
X504310Y41906D01*
X504321Y41911D01*
X504342Y41918D01*
X506086Y42641D01*
X509914Y42641D01*
X513450Y41176D01*
X516156Y38470D01*
X517621Y34934D01*
X517621Y15866D01*
X516156Y12330D01*
X513450Y9624D01*
X509914Y8159D01*
X506086Y8159D01*
X502550Y9624D01*
X499844Y12330D01*
X498379Y15866D01*
X498379Y34934D01*
X498504Y35236D01*
X498528Y35320D01*
X498562Y35401D01*
X498576Y35486D01*
X498599Y35568D01*
X498603Y35656D01*
X498617Y35742D01*
X498611Y35828D01*
X498615Y35914D01*
X498599Y36000D01*
X498593Y36087D01*
X498567Y36169D01*
X498551Y36254D01*
X498516Y36334D01*
X498490Y36417D01*
X498446Y36491D01*
X498412Y36570D01*
X498359Y36640D01*
X498314Y36715D01*
X498220Y36824D01*
X498203Y36846D01*
X498194Y36853D01*
X498179Y36870D01*
X492989Y42060D01*
X492880Y42147D01*
X492775Y42238D01*
X492745Y42254D01*
X492718Y42275D01*
X492592Y42334D01*
X492468Y42399D01*
X492436Y42407D01*
X492405Y42422D01*
X492269Y42450D01*
X492134Y42485D01*
X492089Y42488D01*
X492067Y42493D01*
X492033Y42492D01*
X491929Y42499D01*
X491110Y42499D01*
X491006Y42487D01*
X490902Y42485D01*
X490835Y42467D01*
X490766Y42459D01*
X490668Y42424D01*
X490567Y42398D01*
X490506Y42365D01*
X490441Y42342D01*
X490354Y42285D01*
X490261Y42236D01*
X490209Y42191D01*
X490151Y42153D01*
X490079Y42078D01*
X490001Y42009D01*
X489960Y41953D01*
X489913Y41903D01*
X489860Y41813D01*
X489799Y41728D01*
X489773Y41664D01*
X489738Y41605D01*
X489707Y41505D01*
X489667Y41409D01*
X489656Y41340D01*
X489636Y41274D01*
X489629Y41170D01*
X489612Y41067D01*
X489617Y40998D01*
X489612Y40929D01*
X489629Y40826D01*
X489636Y40722D01*
X489657Y40656D01*
X489668Y40588D01*
X489708Y40492D01*
X489739Y40392D01*
X489774Y40333D01*
X489801Y40269D01*
X489862Y40184D01*
X489915Y40094D01*
X489983Y40016D01*
X490003Y39989D01*
X490020Y39974D01*
X490050Y39940D01*
X490350Y39639D01*
X491290Y38345D01*
X492016Y36920D01*
X492511Y35399D01*
X492761Y33820D01*
X492761Y27939D01*
X483640Y27939D01*
X483605Y27935D01*
X483570Y27938D01*
X483434Y27915D01*
X483297Y27899D01*
X483263Y27887D01*
X483228Y27882D01*
X483101Y27829D01*
X482972Y27782D01*
X482942Y27763D01*
X482909Y27749D01*
X482797Y27668D01*
X482682Y27593D01*
X482658Y27567D01*
X482629Y27547D01*
X482598Y27511D01*
X482562Y27542D01*
X482463Y27637D01*
X482432Y27655D01*
X482405Y27678D01*
X482283Y27742D01*
X482165Y27812D01*
X482131Y27822D01*
X482099Y27839D01*
X481966Y27873D01*
X481834Y27914D01*
X481799Y27916D01*
X481764Y27925D01*
X481560Y27939D01*
X472439Y27939D01*
X472439Y33820D01*
X472689Y35399D01*
X473184Y36920D01*
X473910Y38345D01*
X474850Y39639D01*
X475150Y39940D01*
X475215Y40022D01*
X475287Y40097D01*
X475322Y40157D01*
X475365Y40211D01*
X475409Y40305D01*
X475462Y40395D01*
X475483Y40461D01*
X475512Y40524D01*
X475533Y40626D01*
X475564Y40726D01*
X475569Y40795D01*
X475583Y40862D01*
X475581Y40966D01*
X475588Y41071D01*
X475577Y41139D01*
X475575Y41208D01*
X475549Y41309D01*
X475532Y41412D01*
X475505Y41475D01*
X475488Y41542D01*
X475439Y41635D01*
X475399Y41731D01*
X475359Y41787D01*
X475327Y41848D01*
X475258Y41927D01*
X475197Y42011D01*
X475145Y42057D01*
X475099Y42109D01*
X475015Y42170D01*
X474936Y42238D01*
X474875Y42270D01*
X474819Y42311D01*
X474722Y42350D01*
X474630Y42399D01*
X474563Y42416D01*
X474499Y42442D01*
X474396Y42459D01*
X474295Y42485D01*
X474191Y42492D01*
X474158Y42498D01*
X474136Y42496D01*
X474090Y42499D01*
X464946Y42499D01*
X464842Y42487D01*
X464738Y42485D01*
X464671Y42467D01*
X464603Y42459D01*
X464504Y42424D01*
X464404Y42398D01*
X464342Y42365D01*
X464277Y42342D01*
X464190Y42285D01*
X464098Y42236D01*
X464046Y42191D01*
X463988Y42153D01*
X463916Y42078D01*
X463837Y42009D01*
X463797Y41953D01*
X463749Y41903D01*
X463696Y41813D01*
X463635Y41728D01*
X463609Y41664D01*
X463574Y41605D01*
X463543Y41505D01*
X463504Y41409D01*
X463492Y41340D01*
X463472Y41274D01*
X463465Y41170D01*
X463448Y41067D01*
X463453Y40998D01*
X463448Y40929D01*
X463465Y40827D01*
X463473Y40722D01*
X463493Y40656D01*
X463504Y40588D01*
X463544Y40492D01*
X463575Y40392D01*
X463611Y40333D01*
X463637Y40269D01*
X463698Y40185D01*
X463751Y40095D01*
X463820Y40016D01*
X463839Y39989D01*
X463856Y39974D01*
X463886Y39940D01*
X465356Y38470D01*
X466821Y34934D01*
X466821Y15866D01*
X465356Y12330D01*
X462650Y9624D01*
X459114Y8159D01*
X455286Y8159D01*
X451750Y9624D01*
X449044Y12330D01*
X447579Y15866D01*
X447579Y29449D01*
X447563Y29587D01*
X447553Y29726D01*
X447543Y29759D01*
X447539Y29792D01*
X447492Y29923D01*
X447451Y30057D01*
X447433Y30086D01*
X447422Y30118D01*
X447346Y30234D01*
X447275Y30354D01*
X447245Y30388D01*
X447233Y30407D01*
X447209Y30430D01*
X447140Y30509D01*
X437449Y40200D01*
X437340Y40287D01*
X437234Y40378D01*
X437204Y40394D01*
X437178Y40415D01*
X437052Y40474D01*
X436928Y40539D01*
X436896Y40547D01*
X436865Y40562D01*
X436729Y40590D01*
X436594Y40625D01*
X436548Y40628D01*
X436527Y40633D01*
X436493Y40632D01*
X436389Y40639D01*
X403201Y40639D01*
X403046Y40621D01*
X402891Y40607D01*
X402875Y40601D01*
X402858Y40599D01*
X402711Y40546D01*
X402563Y40497D01*
X402548Y40488D01*
X402533Y40482D01*
X402402Y40397D01*
X402269Y40314D01*
X402257Y40302D01*
X402243Y40293D01*
X402135Y40180D01*
X402025Y40070D01*
X402016Y40055D01*
X402004Y40043D01*
X401925Y39909D01*
X401843Y39775D01*
X401838Y39759D01*
X401829Y39745D01*
X401783Y39596D01*
X401734Y39447D01*
X401732Y39431D01*
X401727Y39414D01*
X401717Y39258D01*
X401702Y39103D01*
X401705Y39086D01*
X401704Y39069D01*
X401729Y38915D01*
X401751Y38761D01*
X401758Y38740D01*
X401760Y38728D01*
X401770Y38703D01*
X401816Y38566D01*
X403321Y34934D01*
X403321Y15866D01*
X401856Y12330D01*
X399150Y9624D01*
X395614Y8159D01*
X391786Y8159D01*
X388250Y9624D01*
X385544Y12330D01*
X384079Y15866D01*
X384079Y34934D01*
X385584Y38566D01*
X385627Y38716D01*
X385673Y38866D01*
X385674Y38883D01*
X385679Y38899D01*
X385686Y39054D01*
X385696Y39211D01*
X385694Y39227D01*
X385694Y39244D01*
X385666Y39398D01*
X385640Y39552D01*
X385634Y39567D01*
X385631Y39584D01*
X385567Y39727D01*
X385508Y39871D01*
X385498Y39885D01*
X385491Y39900D01*
X385397Y40025D01*
X385306Y40151D01*
X385293Y40163D01*
X385283Y40176D01*
X385162Y40276D01*
X385044Y40378D01*
X385029Y40386D01*
X385016Y40397D01*
X384877Y40466D01*
X384738Y40539D01*
X384722Y40543D01*
X384707Y40551D01*
X384555Y40586D01*
X384404Y40625D01*
X384382Y40627D01*
X384370Y40629D01*
X384342Y40629D01*
X384199Y40639D01*
X377801Y40639D01*
X377646Y40621D01*
X377491Y40607D01*
X377475Y40601D01*
X377458Y40599D01*
X377311Y40546D01*
X377163Y40497D01*
X377148Y40488D01*
X377133Y40482D01*
X377002Y40397D01*
X376869Y40314D01*
X376857Y40302D01*
X376843Y40293D01*
X376735Y40180D01*
X376625Y40070D01*
X376616Y40055D01*
X376604Y40043D01*
X376525Y39909D01*
X376443Y39775D01*
X376438Y39759D01*
X376429Y39745D01*
X376383Y39596D01*
X376334Y39447D01*
X376332Y39431D01*
X376327Y39414D01*
X376317Y39258D01*
X376302Y39103D01*
X376305Y39086D01*
X376304Y39069D01*
X376329Y38915D01*
X376351Y38761D01*
X376358Y38740D01*
X376360Y38728D01*
X376370Y38703D01*
X376416Y38566D01*
X377921Y34934D01*
X377921Y15866D01*
X376456Y12330D01*
X373750Y9624D01*
X370214Y8159D01*
X366386Y8159D01*
X362850Y9624D01*
X360144Y12330D01*
X358679Y15866D01*
X358679Y34934D01*
X360184Y38566D01*
X360227Y38716D01*
X360273Y38866D01*
X360274Y38883D01*
X360279Y38899D01*
X360286Y39054D01*
X360296Y39211D01*
X360294Y39227D01*
X360294Y39244D01*
X360266Y39398D01*
X360240Y39552D01*
X360234Y39567D01*
X360231Y39584D01*
X360167Y39727D01*
X360108Y39871D01*
X360098Y39885D01*
X360091Y39900D01*
X359997Y40025D01*
X359906Y40151D01*
X359893Y40163D01*
X359883Y40176D01*
X359762Y40276D01*
X359644Y40378D01*
X359629Y40386D01*
X359616Y40397D01*
X359477Y40466D01*
X359338Y40539D01*
X359322Y40543D01*
X359307Y40551D01*
X359155Y40586D01*
X359004Y40625D01*
X358982Y40627D01*
X358970Y40629D01*
X358942Y40629D01*
X358799Y40639D01*
X352866Y40639D01*
X352705Y40621D01*
X352544Y40604D01*
X352534Y40601D01*
X352523Y40599D01*
X352370Y40544D01*
X352217Y40492D01*
X352208Y40486D01*
X352197Y40482D01*
X352062Y40393D01*
X351925Y40307D01*
X351917Y40299D01*
X351908Y40293D01*
X351796Y40176D01*
X351683Y40060D01*
X351677Y40051D01*
X351669Y40043D01*
X351588Y39904D01*
X351503Y39765D01*
X351500Y39754D01*
X351494Y39745D01*
X351446Y39590D01*
X351396Y39436D01*
X351395Y39425D01*
X351392Y39414D01*
X351386Y39324D01*
X351386Y39322D01*
X351385Y39317D01*
X351381Y39253D01*
X351368Y39092D01*
X351369Y39081D01*
X351368Y39069D01*
X351381Y38991D01*
X351381Y38977D01*
X351391Y38935D01*
X351395Y38910D01*
X351419Y38750D01*
X351423Y38739D01*
X351424Y38728D01*
X351450Y38666D01*
X351456Y38639D01*
X351537Y38451D01*
X351541Y38442D01*
X351546Y38428D01*
X351554Y38416D01*
X351557Y38409D01*
X351560Y38406D01*
X352316Y36920D01*
X352811Y35399D01*
X353061Y33820D01*
X353061Y27939D01*
X343940Y27939D01*
X343905Y27935D01*
X343870Y27938D01*
X343734Y27915D01*
X343597Y27899D01*
X343563Y27887D01*
X343528Y27882D01*
X343401Y27829D01*
X343272Y27782D01*
X343242Y27763D01*
X343209Y27749D01*
X343097Y27668D01*
X342982Y27593D01*
X342958Y27567D01*
X342929Y27547D01*
X342898Y27511D01*
X342862Y27542D01*
X342763Y27637D01*
X342732Y27655D01*
X342705Y27678D01*
X342583Y27742D01*
X342465Y27812D01*
X342431Y27822D01*
X342399Y27839D01*
X342266Y27873D01*
X342134Y27914D01*
X342099Y27916D01*
X342064Y27925D01*
X341860Y27939D01*
X332739Y27939D01*
X332739Y32069D01*
X332727Y32172D01*
X332725Y32277D01*
X332707Y32344D01*
X332699Y32412D01*
X332664Y32511D01*
X332638Y32611D01*
X332605Y32672D01*
X332582Y32738D01*
X332525Y32825D01*
X332476Y32917D01*
X332431Y32969D01*
X332393Y33027D01*
X332318Y33099D01*
X332249Y33178D01*
X332193Y33218D01*
X332143Y33266D01*
X332053Y33319D01*
X331968Y33380D01*
X331904Y33406D01*
X331845Y33441D01*
X331745Y33472D01*
X331649Y33511D01*
X331580Y33523D01*
X331514Y33543D01*
X331410Y33550D01*
X331307Y33567D01*
X331238Y33562D01*
X331169Y33567D01*
X331067Y33550D01*
X330962Y33542D01*
X330896Y33522D01*
X330828Y33511D01*
X330732Y33471D01*
X330632Y33440D01*
X330573Y33404D01*
X330509Y33378D01*
X330424Y33317D01*
X330335Y33264D01*
X330256Y33195D01*
X330229Y33176D01*
X330214Y33159D01*
X330180Y33129D01*
X327560Y30509D01*
X327473Y30400D01*
X327382Y30295D01*
X327366Y30265D01*
X327345Y30238D01*
X327286Y30112D01*
X327221Y29988D01*
X327213Y29956D01*
X327198Y29925D01*
X327170Y29789D01*
X327135Y29654D01*
X327132Y29609D01*
X327127Y29587D01*
X327128Y29553D01*
X327121Y29449D01*
X327121Y15866D01*
X325656Y12330D01*
X322950Y9624D01*
X319414Y8159D01*
X315586Y8159D01*
G37*
%LPD*%
%LPC*%
G36*
X112068Y393749D02*
X112068Y393749D01*
X106095Y396223D01*
X101523Y400795D01*
X99049Y406768D01*
X99049Y413232D01*
X101523Y419205D01*
X106095Y423777D01*
X112068Y426251D01*
X118532Y426251D01*
X124505Y423777D01*
X129077Y419205D01*
X131551Y413232D01*
X131551Y406768D01*
X129077Y400795D01*
X124505Y396223D01*
X118532Y393749D01*
X112068Y393749D01*
G37*
%LPD*%
%LPC*%
G36*
X112068Y186749D02*
X112068Y186749D01*
X106095Y189223D01*
X101523Y193795D01*
X99049Y199768D01*
X99049Y206232D01*
X101523Y212205D01*
X106095Y216777D01*
X112068Y219251D01*
X118532Y219251D01*
X124505Y216777D01*
X129077Y212205D01*
X131551Y206232D01*
X131551Y199768D01*
X129077Y193795D01*
X124505Y189223D01*
X118532Y186749D01*
X112068Y186749D01*
G37*
%LPD*%
%LPC*%
G36*
X112068Y233749D02*
X112068Y233749D01*
X106095Y236223D01*
X101523Y240795D01*
X99049Y246768D01*
X99049Y253232D01*
X101523Y259205D01*
X106095Y263777D01*
X112068Y266251D01*
X118532Y266251D01*
X124505Y263777D01*
X129077Y259205D01*
X131551Y253232D01*
X131551Y246768D01*
X129077Y240795D01*
X124505Y236223D01*
X118532Y233749D01*
X112068Y233749D01*
G37*
%LPD*%
%LPC*%
G36*
X112068Y440749D02*
X112068Y440749D01*
X106095Y443223D01*
X101523Y447795D01*
X99049Y453768D01*
X99049Y460232D01*
X101523Y466205D01*
X106095Y470777D01*
X112068Y473251D01*
X118532Y473251D01*
X124505Y470777D01*
X129077Y466205D01*
X131551Y460232D01*
X131551Y453768D01*
X129077Y447795D01*
X124505Y443223D01*
X118532Y440749D01*
X112068Y440749D01*
G37*
%LPD*%
%LPC*%
G36*
X112068Y280749D02*
X112068Y280749D01*
X106095Y283223D01*
X101523Y287795D01*
X99049Y293768D01*
X99049Y300232D01*
X101523Y306205D01*
X106095Y310777D01*
X112068Y313251D01*
X118532Y313251D01*
X124505Y310777D01*
X129077Y306205D01*
X131551Y300232D01*
X131551Y293768D01*
X129077Y287795D01*
X124505Y283223D01*
X118532Y280749D01*
X112068Y280749D01*
G37*
%LPD*%
%LPC*%
G36*
X112068Y346749D02*
X112068Y346749D01*
X106095Y349223D01*
X101523Y353795D01*
X99049Y359768D01*
X99049Y366232D01*
X101523Y372205D01*
X106095Y376777D01*
X112068Y379251D01*
X118532Y379251D01*
X124505Y376777D01*
X129077Y372205D01*
X131551Y366232D01*
X131551Y359768D01*
X129077Y353795D01*
X124505Y349223D01*
X118532Y346749D01*
X112068Y346749D01*
G37*
%LPD*%
%LPC*%
G36*
X612766Y193579D02*
X612766Y193579D01*
X609230Y195044D01*
X606524Y197750D01*
X605059Y201286D01*
X605059Y205114D01*
X606524Y208650D01*
X609230Y211356D01*
X612766Y212821D01*
X631834Y212821D01*
X635370Y211356D01*
X638076Y208650D01*
X639541Y205114D01*
X639541Y201286D01*
X638076Y197750D01*
X635370Y195044D01*
X631834Y193579D01*
X612766Y193579D01*
G37*
%LPD*%
%LPC*%
G36*
X612766Y282479D02*
X612766Y282479D01*
X609230Y283944D01*
X606524Y286650D01*
X605059Y290186D01*
X605059Y294014D01*
X606524Y297550D01*
X609230Y300256D01*
X612766Y301721D01*
X631834Y301721D01*
X635370Y300256D01*
X638076Y297550D01*
X639541Y294014D01*
X639541Y290186D01*
X638076Y286650D01*
X635370Y283944D01*
X631834Y282479D01*
X612766Y282479D01*
G37*
%LPD*%
%LPC*%
G36*
X612766Y447579D02*
X612766Y447579D01*
X609230Y449044D01*
X606524Y451750D01*
X605059Y455286D01*
X605059Y459114D01*
X606524Y462650D01*
X609230Y465356D01*
X612766Y466821D01*
X631834Y466821D01*
X635370Y465356D01*
X638076Y462650D01*
X639541Y459114D01*
X639541Y455286D01*
X638076Y451750D01*
X635370Y449044D01*
X631834Y447579D01*
X612766Y447579D01*
G37*
%LPD*%
%LPC*%
G36*
X612766Y358679D02*
X612766Y358679D01*
X609230Y360144D01*
X606524Y362850D01*
X605059Y366386D01*
X605059Y370214D01*
X606524Y373750D01*
X609230Y376456D01*
X612766Y377921D01*
X631834Y377921D01*
X635370Y376456D01*
X638076Y373750D01*
X639541Y370214D01*
X639541Y366386D01*
X638076Y362850D01*
X635370Y360144D01*
X631834Y358679D01*
X612766Y358679D01*
G37*
%LPD*%
%LPC*%
G36*
X145031Y16859D02*
X145031Y16859D01*
X143859Y18031D01*
X143859Y32769D01*
X145031Y33941D01*
X159769Y33941D01*
X160941Y32769D01*
X160941Y18031D01*
X159769Y16859D01*
X145031Y16859D01*
G37*
%LPD*%
%LPC*%
G36*
X283125Y528587D02*
X283125Y528587D01*
X277787Y533925D01*
X277787Y541475D01*
X283125Y546813D01*
X290675Y546813D01*
X296013Y541475D01*
X296013Y533925D01*
X290675Y528587D01*
X283125Y528587D01*
G37*
%LPD*%
%LPC*%
G36*
X257725Y528587D02*
X257725Y528587D01*
X252387Y533925D01*
X252387Y541475D01*
X257725Y546813D01*
X265275Y546813D01*
X270613Y541475D01*
X270613Y533925D01*
X265275Y528587D01*
X257725Y528587D01*
G37*
%LPD*%
%LPC*%
G36*
X333925Y528587D02*
X333925Y528587D01*
X328587Y533925D01*
X328587Y541475D01*
X333925Y546813D01*
X341475Y546813D01*
X346813Y541475D01*
X346813Y533925D01*
X341475Y528587D01*
X333925Y528587D01*
G37*
%LPD*%
%LPC*%
G36*
X206925Y528587D02*
X206925Y528587D01*
X201587Y533925D01*
X201587Y541475D01*
X206925Y546813D01*
X214475Y546813D01*
X219813Y541475D01*
X219813Y533925D01*
X214475Y528587D01*
X206925Y528587D01*
G37*
%LPD*%
%LPC*%
G36*
X537125Y528587D02*
X537125Y528587D01*
X531787Y533925D01*
X531787Y541475D01*
X537125Y546813D01*
X544675Y546813D01*
X550013Y541475D01*
X550013Y533925D01*
X544675Y528587D01*
X537125Y528587D01*
G37*
%LPD*%
%LPC*%
G36*
X511725Y503187D02*
X511725Y503187D01*
X506387Y508525D01*
X506387Y516075D01*
X511725Y521413D01*
X519275Y521413D01*
X524613Y516075D01*
X524613Y508525D01*
X519275Y503187D01*
X511725Y503187D01*
G37*
%LPD*%
%LPC*%
G36*
X283125Y503187D02*
X283125Y503187D01*
X277787Y508525D01*
X277787Y516075D01*
X283125Y521413D01*
X290675Y521413D01*
X296013Y516075D01*
X296013Y508525D01*
X290675Y503187D01*
X283125Y503187D01*
G37*
%LPD*%
%LPC*%
G36*
X257725Y503187D02*
X257725Y503187D01*
X252387Y508525D01*
X252387Y516075D01*
X257725Y521413D01*
X265275Y521413D01*
X270613Y516075D01*
X270613Y508525D01*
X265275Y503187D01*
X257725Y503187D01*
G37*
%LPD*%
%LPC*%
G36*
X232325Y503187D02*
X232325Y503187D01*
X226987Y508525D01*
X226987Y516075D01*
X232325Y521413D01*
X239875Y521413D01*
X245213Y516075D01*
X245213Y508525D01*
X239875Y503187D01*
X232325Y503187D01*
G37*
%LPD*%
%LPC*%
G36*
X537125Y503187D02*
X537125Y503187D01*
X531787Y508525D01*
X531787Y516075D01*
X537125Y521413D01*
X544675Y521413D01*
X550013Y516075D01*
X550013Y508525D01*
X544675Y503187D01*
X537125Y503187D01*
G37*
%LPD*%
%LPC*%
G36*
X511725Y528587D02*
X511725Y528587D01*
X506387Y533925D01*
X506387Y541475D01*
X511725Y546813D01*
X519275Y546813D01*
X524613Y541475D01*
X524613Y533925D01*
X519275Y528587D01*
X511725Y528587D01*
G37*
%LPD*%
%LPC*%
G36*
X562525Y528587D02*
X562525Y528587D01*
X557187Y533925D01*
X557187Y541475D01*
X562525Y546813D01*
X570075Y546813D01*
X575413Y541475D01*
X575413Y533925D01*
X570075Y528587D01*
X562525Y528587D01*
G37*
%LPD*%
%LPC*%
G36*
X410125Y528587D02*
X410125Y528587D01*
X404787Y533925D01*
X404787Y541475D01*
X410125Y546813D01*
X417675Y546813D01*
X423013Y541475D01*
X423013Y533925D01*
X417675Y528587D01*
X410125Y528587D01*
G37*
%LPD*%
%LPC*%
G36*
X22999Y319049D02*
X22999Y319049D01*
X22999Y340951D01*
X36541Y340951D01*
X36503Y340667D01*
X35934Y338541D01*
X35091Y336508D01*
X33991Y334602D01*
X32651Y332855D01*
X31095Y331299D01*
X30952Y331189D01*
X30910Y331149D01*
X30862Y331115D01*
X30786Y331029D01*
X30704Y330949D01*
X30672Y330899D01*
X30633Y330856D01*
X30579Y330754D01*
X30517Y330658D01*
X30498Y330602D01*
X30470Y330551D01*
X30441Y330440D01*
X30402Y330331D01*
X30396Y330273D01*
X30381Y330217D01*
X30378Y330102D01*
X30365Y329988D01*
X30373Y329930D01*
X30371Y329871D01*
X30394Y329759D01*
X30408Y329645D01*
X30428Y329590D01*
X30440Y329532D01*
X30488Y329428D01*
X30528Y329320D01*
X30561Y329272D01*
X30585Y329218D01*
X30656Y329128D01*
X30719Y329032D01*
X30762Y328992D01*
X30798Y328946D01*
X30952Y328810D01*
X31095Y328701D01*
X32651Y327145D01*
X33991Y325398D01*
X35091Y323492D01*
X35934Y321459D01*
X36503Y319333D01*
X36541Y319049D01*
X22999Y319049D01*
G37*
%LPD*%
%LPC*%
G36*
X226901Y16859D02*
X226901Y16859D01*
X223762Y18160D01*
X221360Y20562D01*
X220059Y23701D01*
X220059Y27099D01*
X221360Y30238D01*
X223762Y32640D01*
X226901Y33941D01*
X230299Y33941D01*
X233438Y32640D01*
X235840Y30238D01*
X237141Y27099D01*
X237141Y23701D01*
X235840Y20562D01*
X233438Y18160D01*
X230299Y16859D01*
X226901Y16859D01*
G37*
%LPD*%
%LPC*%
G36*
X201501Y16859D02*
X201501Y16859D01*
X198362Y18160D01*
X195960Y20562D01*
X194659Y23701D01*
X194659Y27099D01*
X195960Y30238D01*
X198362Y32640D01*
X201501Y33941D01*
X204899Y33941D01*
X208038Y32640D01*
X210440Y30238D01*
X211741Y27099D01*
X211741Y23701D01*
X210440Y20562D01*
X208038Y18160D01*
X204899Y16859D01*
X201501Y16859D01*
G37*
%LPD*%
%LPC*%
G36*
X22999Y186949D02*
X22999Y186949D01*
X22999Y200491D01*
X23283Y200453D01*
X25409Y199884D01*
X27442Y199041D01*
X29348Y197941D01*
X31095Y196601D01*
X32651Y195045D01*
X33991Y193298D01*
X35091Y191392D01*
X35934Y189359D01*
X36503Y187233D01*
X36541Y186949D01*
X22999Y186949D01*
G37*
%LPD*%
%LPC*%
G36*
X22999Y479049D02*
X22999Y479049D01*
X22999Y492591D01*
X23283Y492553D01*
X25409Y491984D01*
X27442Y491141D01*
X29348Y490041D01*
X31095Y488701D01*
X32651Y487145D01*
X33991Y485398D01*
X35091Y483492D01*
X35934Y481459D01*
X36503Y479333D01*
X36541Y479049D01*
X22999Y479049D01*
G37*
%LPD*%
%LPC*%
G36*
X22999Y346949D02*
X22999Y346949D01*
X22999Y360491D01*
X23283Y360453D01*
X25409Y359884D01*
X27442Y359041D01*
X29348Y357941D01*
X31095Y356601D01*
X32651Y355045D01*
X33991Y353298D01*
X35091Y351392D01*
X35934Y349359D01*
X36503Y347233D01*
X36541Y346949D01*
X22999Y346949D01*
G37*
%LPD*%
%LPC*%
G36*
X22999Y473051D02*
X22999Y473051D01*
X36541Y473051D01*
X36503Y472767D01*
X35934Y470641D01*
X35091Y468608D01*
X33991Y466702D01*
X32651Y464955D01*
X31095Y463399D01*
X29348Y462059D01*
X27442Y460959D01*
X25409Y460116D01*
X23283Y459547D01*
X22999Y459509D01*
X22999Y473051D01*
G37*
%LPD*%
%LPC*%
G36*
X22999Y180951D02*
X22999Y180951D01*
X36541Y180951D01*
X36503Y180667D01*
X35934Y178541D01*
X35091Y176508D01*
X33991Y174602D01*
X32651Y172855D01*
X31095Y171299D01*
X29348Y169959D01*
X27442Y168859D01*
X25409Y168016D01*
X23283Y167447D01*
X22999Y167409D01*
X22999Y180951D01*
G37*
%LPD*%
%LPC*%
G36*
X22999Y313051D02*
X22999Y313051D01*
X36541Y313051D01*
X36503Y312767D01*
X35934Y310641D01*
X35091Y308608D01*
X33991Y306702D01*
X32651Y304955D01*
X31095Y303399D01*
X29348Y302059D01*
X27442Y300959D01*
X25409Y300116D01*
X23283Y299547D01*
X22999Y299509D01*
X22999Y313051D01*
G37*
%LPD*%
%LPC*%
G36*
X408939Y78739D02*
X408939Y78739D01*
X408939Y93679D01*
X410300Y93236D01*
X411725Y92510D01*
X413019Y91570D01*
X414150Y90439D01*
X415090Y89145D01*
X415816Y87720D01*
X416311Y86199D01*
X416561Y84620D01*
X416561Y78739D01*
X408939Y78739D01*
G37*
%LPD*%
%LPC*%
G36*
X624839Y269239D02*
X624839Y269239D01*
X624839Y276861D01*
X630720Y276861D01*
X632299Y276611D01*
X633820Y276116D01*
X635245Y275390D01*
X636539Y274450D01*
X637670Y273319D01*
X638610Y272025D01*
X639336Y270600D01*
X639779Y269239D01*
X624839Y269239D01*
G37*
%LPD*%
%LPC*%
G36*
X624839Y231139D02*
X624839Y231139D01*
X624839Y238761D01*
X630720Y238761D01*
X632299Y238511D01*
X633820Y238016D01*
X635245Y237290D01*
X636539Y236350D01*
X637670Y235219D01*
X638610Y233925D01*
X639336Y232500D01*
X639779Y231139D01*
X624839Y231139D01*
G37*
%LPD*%
%LPC*%
G36*
X624839Y396239D02*
X624839Y396239D01*
X624839Y403861D01*
X630720Y403861D01*
X632299Y403611D01*
X633820Y403116D01*
X635245Y402390D01*
X636539Y401450D01*
X637670Y400319D01*
X638610Y399025D01*
X639336Y397600D01*
X639779Y396239D01*
X624839Y396239D01*
G37*
%LPD*%
%LPC*%
G36*
X624839Y434339D02*
X624839Y434339D01*
X624839Y441961D01*
X630720Y441961D01*
X632299Y441711D01*
X633820Y441216D01*
X635245Y440490D01*
X636539Y439550D01*
X637670Y438419D01*
X638610Y437125D01*
X639336Y435700D01*
X639779Y434339D01*
X624839Y434339D01*
G37*
%LPD*%
%LPC*%
G36*
X604821Y396239D02*
X604821Y396239D01*
X605264Y397600D01*
X605990Y399025D01*
X606930Y400319D01*
X608061Y401450D01*
X609355Y402390D01*
X610780Y403116D01*
X612301Y403611D01*
X613880Y403861D01*
X619761Y403861D01*
X619761Y396239D01*
X604821Y396239D01*
G37*
%LPD*%
%LPC*%
G36*
X485139Y22861D02*
X485139Y22861D01*
X492761Y22861D01*
X492761Y16980D01*
X492511Y15401D01*
X492016Y13880D01*
X491290Y12455D01*
X490350Y11161D01*
X489219Y10030D01*
X487925Y9090D01*
X486500Y8364D01*
X485139Y7921D01*
X485139Y22861D01*
G37*
%LPD*%
%LPC*%
G36*
X604821Y231139D02*
X604821Y231139D01*
X605264Y232500D01*
X605990Y233925D01*
X606930Y235219D01*
X608061Y236350D01*
X609355Y237290D01*
X610780Y238016D01*
X612301Y238511D01*
X613880Y238761D01*
X619761Y238761D01*
X619761Y231139D01*
X604821Y231139D01*
G37*
%LPD*%
%LPC*%
G36*
X604821Y269239D02*
X604821Y269239D01*
X605264Y270600D01*
X605990Y272025D01*
X606930Y273319D01*
X608061Y274450D01*
X609355Y275390D01*
X610780Y276116D01*
X612301Y276611D01*
X613880Y276861D01*
X619761Y276861D01*
X619761Y269239D01*
X604821Y269239D01*
G37*
%LPD*%
%LPC*%
G36*
X345439Y22861D02*
X345439Y22861D01*
X353061Y22861D01*
X353061Y16980D01*
X352811Y15401D01*
X352316Y13880D01*
X351590Y12455D01*
X350650Y11161D01*
X349519Y10030D01*
X348225Y9090D01*
X346800Y8364D01*
X345439Y7921D01*
X345439Y22861D01*
G37*
%LPD*%
%LPC*%
G36*
X604821Y434339D02*
X604821Y434339D01*
X605264Y435700D01*
X605990Y437125D01*
X606930Y438419D01*
X608061Y439550D01*
X609355Y440490D01*
X610780Y441216D01*
X612301Y441711D01*
X613880Y441961D01*
X619761Y441961D01*
X619761Y434339D01*
X604821Y434339D01*
G37*
%LPD*%
%LPC*%
G36*
X396239Y78739D02*
X396239Y78739D01*
X396239Y84620D01*
X396489Y86199D01*
X396984Y87720D01*
X397710Y89145D01*
X398650Y90439D01*
X399781Y91570D01*
X401075Y92510D01*
X402500Y93236D01*
X403861Y93679D01*
X403861Y78739D01*
X396239Y78739D01*
G37*
%LPD*%
%LPC*%
G36*
X624839Y218439D02*
X624839Y218439D01*
X624839Y226061D01*
X639779Y226061D01*
X639336Y224700D01*
X638610Y223275D01*
X637670Y221981D01*
X636539Y220850D01*
X635245Y219910D01*
X633820Y219184D01*
X632299Y218689D01*
X630720Y218439D01*
X624839Y218439D01*
G37*
%LPD*%
%LPC*%
G36*
X624839Y256539D02*
X624839Y256539D01*
X624839Y264161D01*
X639779Y264161D01*
X639336Y262800D01*
X638610Y261375D01*
X637670Y260081D01*
X636539Y258950D01*
X635245Y258010D01*
X633820Y257284D01*
X632299Y256789D01*
X630720Y256539D01*
X624839Y256539D01*
G37*
%LPD*%
%LPC*%
G36*
X624839Y383539D02*
X624839Y383539D01*
X624839Y391161D01*
X639779Y391161D01*
X639336Y389800D01*
X638610Y388375D01*
X637670Y387081D01*
X636539Y385950D01*
X635245Y385010D01*
X633820Y384284D01*
X632299Y383789D01*
X630720Y383539D01*
X624839Y383539D01*
G37*
%LPD*%
%LPC*%
G36*
X624839Y421639D02*
X624839Y421639D01*
X624839Y429261D01*
X639779Y429261D01*
X639336Y427900D01*
X638610Y426475D01*
X637670Y425181D01*
X636539Y424050D01*
X635245Y423110D01*
X633820Y422384D01*
X632299Y421889D01*
X630720Y421639D01*
X624839Y421639D01*
G37*
%LPD*%
%LPC*%
G36*
X613880Y218439D02*
X613880Y218439D01*
X612301Y218689D01*
X610780Y219184D01*
X609355Y219910D01*
X608061Y220850D01*
X606930Y221981D01*
X605990Y223275D01*
X605264Y224700D01*
X604821Y226061D01*
X619761Y226061D01*
X619761Y218439D01*
X613880Y218439D01*
G37*
%LPD*%
%LPC*%
G36*
X613880Y256539D02*
X613880Y256539D01*
X612301Y256789D01*
X610780Y257284D01*
X609355Y258010D01*
X608061Y258950D01*
X606930Y260081D01*
X605990Y261375D01*
X605264Y262800D01*
X604821Y264161D01*
X619761Y264161D01*
X619761Y256539D01*
X613880Y256539D01*
G37*
%LPD*%
%LPC*%
G36*
X613880Y383539D02*
X613880Y383539D01*
X612301Y383789D01*
X610780Y384284D01*
X609355Y385010D01*
X608061Y385950D01*
X606930Y387081D01*
X605990Y388375D01*
X605264Y389800D01*
X604821Y391161D01*
X619761Y391161D01*
X619761Y383539D01*
X613880Y383539D01*
G37*
%LPD*%
%LPC*%
G36*
X339000Y8364D02*
X339000Y8364D01*
X337575Y9090D01*
X336281Y10030D01*
X335150Y11161D01*
X334210Y12455D01*
X333484Y13880D01*
X332989Y15401D01*
X332739Y16980D01*
X332739Y22861D01*
X340361Y22861D01*
X340361Y7921D01*
X339000Y8364D01*
G37*
%LPD*%
%LPC*%
G36*
X613880Y421639D02*
X613880Y421639D01*
X612301Y421889D01*
X610780Y422384D01*
X609355Y423110D01*
X608061Y424050D01*
X606930Y425181D01*
X605990Y426475D01*
X605264Y427900D01*
X604821Y429261D01*
X619761Y429261D01*
X619761Y421639D01*
X613880Y421639D01*
G37*
%LPD*%
%LPC*%
G36*
X478700Y8364D02*
X478700Y8364D01*
X477275Y9090D01*
X475981Y10030D01*
X474850Y11161D01*
X473910Y12455D01*
X473184Y13880D01*
X472689Y15401D01*
X472439Y16980D01*
X472439Y22861D01*
X480061Y22861D01*
X480061Y7921D01*
X478700Y8364D01*
G37*
%LPD*%
%LPC*%
G36*
X329458Y404251D02*
X329458Y404251D01*
X329458Y406587D01*
X335633Y412762D01*
X337969Y412762D01*
X337969Y404251D01*
X329458Y404251D01*
G37*
%LPD*%
%LPC*%
G36*
X329458Y244251D02*
X329458Y244251D01*
X329458Y246587D01*
X335633Y252762D01*
X337969Y252762D01*
X337969Y244251D01*
X329458Y244251D01*
G37*
%LPD*%
%LPC*%
G36*
X335633Y391678D02*
X335633Y391678D01*
X329458Y397853D01*
X329458Y400189D01*
X337969Y400189D01*
X337969Y391678D01*
X335633Y391678D01*
G37*
%LPD*%
%LPC*%
G36*
X335633Y231678D02*
X335633Y231678D01*
X329458Y237853D01*
X329458Y240189D01*
X337969Y240189D01*
X337969Y231678D01*
X335633Y231678D01*
G37*
%LPD*%
%LPC*%
G36*
X239337Y412499D02*
X239337Y412499D01*
X239346Y412558D01*
X239878Y414193D01*
X240658Y415725D01*
X241669Y417116D01*
X242884Y418331D01*
X244275Y419342D01*
X245807Y420122D01*
X247442Y420654D01*
X247501Y420663D01*
X247501Y412499D01*
X239337Y412499D01*
G37*
%LPD*%
%LPC*%
G36*
X239337Y252499D02*
X239337Y252499D01*
X239346Y252558D01*
X239878Y254193D01*
X240658Y255725D01*
X241669Y257116D01*
X242884Y258331D01*
X244275Y259342D01*
X245807Y260122D01*
X247442Y260654D01*
X247501Y260663D01*
X247501Y252499D01*
X239337Y252499D01*
G37*
%LPD*%
%LPC*%
G36*
X247442Y239346D02*
X247442Y239346D01*
X245807Y239878D01*
X244275Y240658D01*
X242884Y241669D01*
X241669Y242884D01*
X240658Y244275D01*
X239878Y245807D01*
X239346Y247442D01*
X239337Y247501D01*
X247501Y247501D01*
X247501Y239337D01*
X247442Y239346D01*
G37*
%LPD*%
%LPC*%
G36*
X247442Y399346D02*
X247442Y399346D01*
X245807Y399878D01*
X244275Y400658D01*
X242884Y401669D01*
X241669Y402884D01*
X240658Y404275D01*
X239878Y405807D01*
X239346Y407442D01*
X239337Y407501D01*
X247501Y407501D01*
X247501Y399337D01*
X247442Y399346D01*
G37*
%LPD*%
%LPC*%
G36*
X136785Y539985D02*
X136785Y539985D01*
X136785Y547353D01*
X138498Y547353D01*
X144153Y541698D01*
X144153Y539985D01*
X136785Y539985D01*
G37*
%LPD*%
%LPC*%
G36*
X238385Y539985D02*
X238385Y539985D01*
X238385Y547353D01*
X240098Y547353D01*
X245753Y541698D01*
X245753Y539985D01*
X238385Y539985D01*
G37*
%LPD*%
%LPC*%
G36*
X314585Y539985D02*
X314585Y539985D01*
X314585Y547353D01*
X316298Y547353D01*
X321953Y541698D01*
X321953Y539985D01*
X314585Y539985D01*
G37*
%LPD*%
%LPC*%
G36*
X492385Y539985D02*
X492385Y539985D01*
X492385Y547353D01*
X494098Y547353D01*
X499753Y541698D01*
X499753Y539985D01*
X492385Y539985D01*
G37*
%LPD*%
%LPC*%
G36*
X441585Y539985D02*
X441585Y539985D01*
X441585Y547353D01*
X443298Y547353D01*
X448953Y541698D01*
X448953Y539985D01*
X441585Y539985D01*
G37*
%LPD*%
%LPC*%
G36*
X568585Y514585D02*
X568585Y514585D01*
X568585Y521953D01*
X570298Y521953D01*
X575953Y516298D01*
X575953Y514585D01*
X568585Y514585D01*
G37*
%LPD*%
%LPC*%
G36*
X441585Y528047D02*
X441585Y528047D01*
X441585Y535415D01*
X448953Y535415D01*
X448953Y533702D01*
X443298Y528047D01*
X441585Y528047D01*
G37*
%LPD*%
%LPC*%
G36*
X238385Y528047D02*
X238385Y528047D01*
X238385Y535415D01*
X245753Y535415D01*
X245753Y533702D01*
X240098Y528047D01*
X238385Y528047D01*
G37*
%LPD*%
%LPC*%
G36*
X226447Y539985D02*
X226447Y539985D01*
X226447Y541698D01*
X232102Y547353D01*
X233815Y547353D01*
X233815Y539985D01*
X226447Y539985D01*
G37*
%LPD*%
%LPC*%
G36*
X302647Y539985D02*
X302647Y539985D01*
X302647Y541698D01*
X308302Y547353D01*
X310015Y547353D01*
X310015Y539985D01*
X302647Y539985D01*
G37*
%LPD*%
%LPC*%
G36*
X568585Y502647D02*
X568585Y502647D01*
X568585Y510015D01*
X575953Y510015D01*
X575953Y508302D01*
X570298Y502647D01*
X568585Y502647D01*
G37*
%LPD*%
%LPC*%
G36*
X124847Y539985D02*
X124847Y539985D01*
X124847Y541698D01*
X130502Y547353D01*
X132215Y547353D01*
X132215Y539985D01*
X124847Y539985D01*
G37*
%LPD*%
%LPC*%
G36*
X480447Y539985D02*
X480447Y539985D01*
X480447Y541698D01*
X486102Y547353D01*
X487815Y547353D01*
X487815Y539985D01*
X480447Y539985D01*
G37*
%LPD*%
%LPC*%
G36*
X429647Y539985D02*
X429647Y539985D01*
X429647Y541698D01*
X435302Y547353D01*
X437015Y547353D01*
X437015Y539985D01*
X429647Y539985D01*
G37*
%LPD*%
%LPC*%
G36*
X136785Y528047D02*
X136785Y528047D01*
X136785Y535415D01*
X144153Y535415D01*
X144153Y533702D01*
X138498Y528047D01*
X136785Y528047D01*
G37*
%LPD*%
%LPC*%
G36*
X556647Y514585D02*
X556647Y514585D01*
X556647Y516298D01*
X562302Y521953D01*
X564015Y521953D01*
X564015Y514585D01*
X556647Y514585D01*
G37*
%LPD*%
%LPC*%
G36*
X314585Y528047D02*
X314585Y528047D01*
X314585Y535415D01*
X321953Y535415D01*
X321953Y533702D01*
X316298Y528047D01*
X314585Y528047D01*
G37*
%LPD*%
%LPC*%
G36*
X492385Y528047D02*
X492385Y528047D01*
X492385Y535415D01*
X499753Y535415D01*
X499753Y533702D01*
X494098Y528047D01*
X492385Y528047D01*
G37*
%LPD*%
%LPC*%
G36*
X486102Y528047D02*
X486102Y528047D01*
X480447Y533702D01*
X480447Y535415D01*
X487815Y535415D01*
X487815Y528047D01*
X486102Y528047D01*
G37*
%LPD*%
%LPC*%
G36*
X435302Y528047D02*
X435302Y528047D01*
X429647Y533702D01*
X429647Y535415D01*
X437015Y535415D01*
X437015Y528047D01*
X435302Y528047D01*
G37*
%LPD*%
%LPC*%
G36*
X130502Y528047D02*
X130502Y528047D01*
X124847Y533702D01*
X124847Y535415D01*
X132215Y535415D01*
X132215Y528047D01*
X130502Y528047D01*
G37*
%LPD*%
%LPC*%
G36*
X308302Y528047D02*
X308302Y528047D01*
X302647Y533702D01*
X302647Y535415D01*
X310015Y535415D01*
X310015Y528047D01*
X308302Y528047D01*
G37*
%LPD*%
%LPC*%
G36*
X232102Y528047D02*
X232102Y528047D01*
X226447Y533702D01*
X226447Y535415D01*
X233815Y535415D01*
X233815Y528047D01*
X232102Y528047D01*
G37*
%LPD*%
%LPC*%
G36*
X562302Y502647D02*
X562302Y502647D01*
X556647Y508302D01*
X556647Y510015D01*
X564015Y510015D01*
X564015Y502647D01*
X562302Y502647D01*
G37*
%LPD*%
%LPC*%
G36*
X179799Y27399D02*
X179799Y27399D01*
X179799Y34277D01*
X179926Y34257D01*
X181286Y33815D01*
X182559Y33167D01*
X183716Y32326D01*
X184726Y31316D01*
X185567Y30159D01*
X186215Y28886D01*
X186657Y27526D01*
X186677Y27399D01*
X179799Y27399D01*
G37*
%LPD*%
%LPC*%
G36*
X168923Y27399D02*
X168923Y27399D01*
X168943Y27526D01*
X169385Y28886D01*
X170033Y30159D01*
X170874Y31316D01*
X171884Y32326D01*
X173041Y33167D01*
X174314Y33815D01*
X175674Y34257D01*
X175801Y34277D01*
X175801Y27399D01*
X168923Y27399D01*
G37*
%LPD*%
%LPC*%
G36*
X179799Y23401D02*
X179799Y23401D01*
X186677Y23401D01*
X186657Y23274D01*
X186215Y21914D01*
X185567Y20641D01*
X184726Y19484D01*
X183716Y18474D01*
X182559Y17633D01*
X181286Y16985D01*
X179926Y16543D01*
X179799Y16523D01*
X179799Y23401D01*
G37*
%LPD*%
%LPC*%
G36*
X175674Y16543D02*
X175674Y16543D01*
X174314Y16985D01*
X173041Y17633D01*
X171884Y18474D01*
X170874Y19484D01*
X170033Y20641D01*
X169385Y21914D01*
X168943Y23274D01*
X168923Y23401D01*
X175801Y23401D01*
X175801Y16523D01*
X175674Y16543D01*
G37*
%LPD*%
D10*
X83700Y512300D03*
D11*
X83700Y537700D03*
X109100Y512300D03*
X109100Y537700D03*
X134500Y512300D03*
X134500Y537700D03*
X159900Y512300D03*
X159900Y537700D03*
X185300Y512300D03*
X185300Y537700D03*
X210700Y512300D03*
X210700Y537700D03*
X236100Y512300D03*
X236100Y537700D03*
X261500Y512300D03*
X261500Y537700D03*
X286900Y512300D03*
X286900Y537700D03*
X312300Y512300D03*
X312300Y537700D03*
X337700Y512300D03*
X337700Y537700D03*
X363100Y512300D03*
X363100Y537700D03*
X388500Y512300D03*
X388500Y537700D03*
X413900Y512300D03*
X413900Y537700D03*
X439300Y512300D03*
X439300Y537700D03*
X464700Y512300D03*
X464700Y537700D03*
X490100Y512300D03*
X490100Y537700D03*
X515500Y512300D03*
X515500Y537700D03*
X540900Y512300D03*
X540900Y537700D03*
X566300Y512300D03*
X566300Y537700D03*
D12*
X317500Y33020D02*
X317500Y17780D01*
X342900Y17780D02*
X342900Y33020D01*
X368300Y33020D02*
X368300Y17780D01*
X393700Y17780D02*
X393700Y33020D01*
X457200Y33020D02*
X457200Y17780D01*
X482600Y17780D02*
X482600Y33020D01*
X508000Y33020D02*
X508000Y17780D01*
X533400Y17780D02*
X533400Y33020D01*
D13*
X152400Y25400D03*
D14*
X177800Y25400D03*
X203200Y25400D03*
X228600Y25400D03*
X254000Y25400D03*
D12*
X381000Y68580D02*
X381000Y83820D01*
X406400Y83820D02*
X406400Y68580D01*
X431800Y68580D02*
X431800Y83820D01*
X457200Y83820D02*
X457200Y68580D01*
X482600Y68580D02*
X482600Y83820D01*
X508000Y83820D02*
X508000Y68580D01*
X533400Y68580D02*
X533400Y83820D01*
X317500Y83820D02*
X317500Y68580D01*
X342900Y68580D02*
X342900Y83820D01*
X614680Y266700D02*
X629920Y266700D01*
X629920Y292100D02*
X614680Y292100D01*
X614680Y431800D02*
X629920Y431800D01*
X629920Y457200D02*
X614680Y457200D01*
D15*
X250000Y224600D03*
X250000Y250000D03*
X250000Y275400D03*
X250000Y384600D03*
X250000Y410000D03*
X250000Y435400D03*
D16*
X340000Y242220D03*
D17*
X340000Y277780D03*
D16*
X340000Y402220D03*
D17*
X340000Y437780D03*
D18*
X115300Y203000D03*
X115300Y250000D03*
X115300Y297000D03*
X20000Y183950D03*
X20000Y316050D03*
X115300Y363000D03*
X115300Y410000D03*
X115300Y457000D03*
X20000Y343950D03*
X20000Y476050D03*
D12*
X614680Y203200D02*
X629920Y203200D01*
X629920Y228600D02*
X614680Y228600D01*
X614680Y368300D02*
X629920Y368300D01*
X629920Y393700D02*
X614680Y393700D01*
D19*
X622300Y431800D02*
X599800Y431800D01*
X564000Y396000D01*
D20*
X564000Y396000D03*
D19*
X620000Y396000D02*
X622300Y393700D01*
X620000Y396000D02*
X564000Y396000D01*
X596577Y266700D02*
X622300Y266700D01*
X596577Y266700D02*
X565845Y235968D01*
D21*
X565845Y235968D03*
D19*
X614932Y235968D02*
X622300Y228600D01*
X614932Y235968D02*
X565845Y235968D01*
D20*
X250000Y130000D03*
X300000Y130000D03*
X300000Y160000D03*
X250000Y160000D03*
D22*
X35000Y525000D03*
X615000Y525000D03*
X615000Y35000D03*
X35000Y35000D03*
D23*
X317500Y25400D02*
X336240Y44140D01*
X438460Y44140D02*
X457200Y25400D01*
X438460Y44140D02*
X336240Y44140D01*
X381000Y454000D02*
X439300Y512300D01*
X381000Y214356D02*
X411678Y183678D01*
X381000Y214356D02*
X381000Y454000D01*
X411678Y183678D02*
X426887Y168468D01*
X430468Y168468D01*
D21*
X430468Y168468D03*
D23*
X386000Y433600D02*
X464700Y512300D01*
X386000Y433600D02*
X386000Y216427D01*
X423895Y178532D02*
X427475Y178532D01*
D21*
X427475Y178532D03*
D23*
X423895Y178532D02*
X386000Y216427D01*
D19*
X250000Y275400D02*
X195400Y330000D01*
X172000Y330000D02*
X96000Y330000D01*
X83700Y537700D02*
X109100Y537700D01*
X172000Y330000D02*
X195400Y330000D01*
D21*
X172000Y330000D03*
D19*
X96000Y330000D02*
X70000Y356000D01*
X70000Y524000D02*
X83700Y537700D01*
X70000Y524000D02*
X70000Y356000D01*
D20*
X295087Y58282D03*
D23*
X291860Y58282D01*
X283500Y66642D01*
X222142Y496000D02*
X184000Y496000D01*
X222142Y496000D02*
X283500Y434642D01*
X184000Y496000D02*
X174000Y506000D01*
X174000Y523600D02*
X159900Y537700D01*
X283500Y434642D02*
X283500Y66642D01*
X174000Y506000D02*
X174000Y523600D01*
D20*
X294000Y70000D03*
D23*
X288500Y75500D01*
X224213Y501000D02*
X206000Y501000D01*
X224213Y501000D02*
X288500Y436713D01*
X206000Y501000D02*
X198000Y509000D01*
X198000Y525000D02*
X185300Y537700D01*
X288500Y436713D02*
X288500Y75500D01*
X198000Y509000D02*
X198000Y525000D01*
X508000Y32000D02*
X508000Y25400D01*
X290000Y46000D02*
X273500Y62500D01*
X494000Y46000D02*
X508000Y32000D01*
X273500Y62500D02*
X273500Y430500D01*
X135400Y486000D02*
X109100Y512300D01*
X218000Y486000D02*
X273500Y430500D01*
X218000Y486000D02*
X135400Y486000D01*
X290000Y46000D02*
X331029Y46000D01*
X334169Y49140D01*
X440531Y49140D01*
X443671Y46000D01*
X494000Y46000D01*
X292071Y51000D02*
X278500Y64571D01*
X533400Y32600D02*
X533400Y25400D01*
X533400Y32600D02*
X515000Y51000D01*
X278500Y432571D02*
X220071Y491000D01*
X155800Y491000D02*
X134500Y512300D01*
X278500Y432571D02*
X278500Y64571D01*
X220071Y491000D02*
X155800Y491000D01*
X292071Y51000D02*
X328958Y51000D01*
X332098Y54140D01*
X442602Y54140D01*
X445742Y51000D01*
X515000Y51000D01*
X431800Y76200D02*
X431800Y128200D01*
X356000Y468600D02*
X312300Y512300D01*
X356000Y204000D02*
X431800Y128200D01*
X356000Y204000D02*
X356000Y468600D01*
X457200Y109871D02*
X457200Y76200D01*
X457200Y109871D02*
X361000Y206071D01*
X361000Y489000D02*
X337700Y512300D01*
X361000Y489000D02*
X361000Y206071D01*
X482600Y91542D02*
X482600Y76200D01*
X482600Y91542D02*
X366000Y208142D01*
X366000Y509400D02*
X363100Y512300D01*
X366000Y509400D02*
X366000Y208142D01*
X486200Y98000D02*
X508000Y76200D01*
X486200Y98000D02*
X483213Y98000D01*
X371000Y210213D01*
X371000Y505192D02*
X373712Y507904D01*
X373712Y527088D01*
X371000Y505192D02*
X371000Y210213D01*
X373712Y527088D02*
X363100Y537700D01*
X399112Y516696D02*
X399112Y507904D01*
X388500Y527308D02*
X388500Y537700D01*
X388500Y527308D02*
X399112Y516696D01*
X399112Y507904D02*
X376000Y484792D01*
X376000Y212285D01*
X531346Y76200D02*
X533400Y76200D01*
X504546Y103000D02*
X485285Y103000D01*
X504546Y103000D02*
X531346Y76200D01*
X485285Y103000D02*
X376000Y212285D01*
X474488Y496688D02*
X490100Y512300D01*
X474488Y496688D02*
X463759Y496688D01*
X396000Y428929D01*
X396000Y220569D01*
D21*
X444701Y154235D03*
D23*
X444701Y157816D01*
X445117Y158232D01*
X432666Y191064D02*
X425505Y191064D01*
X445117Y178614D02*
X445117Y158232D01*
X445117Y178614D02*
X432666Y191064D01*
X425505Y191064D02*
X396000Y220569D01*
X475312Y507904D02*
X475312Y516696D01*
X475312Y507904D02*
X469096Y501688D01*
X461688Y501688D01*
X464700Y527308D02*
X464700Y537700D01*
X464700Y527308D02*
X475312Y516696D01*
X461688Y501688D02*
X391000Y431000D01*
X391000Y218498D01*
X415749Y193749D02*
X416749Y192749D01*
X415749Y193749D02*
X391000Y218498D01*
X296032Y97668D02*
X317500Y76200D01*
X296032Y97668D02*
X296032Y102000D01*
D21*
X296032Y102000D03*
X437585Y161352D03*
D23*
X437585Y164933D01*
X438000Y165348D01*
X423434Y186064D02*
X416749Y192749D01*
X423434Y186064D02*
X430595Y186064D01*
X438000Y178659D02*
X438000Y165348D01*
X438000Y178659D02*
X430595Y186064D01*
D19*
X266000Y37400D02*
X254000Y25400D01*
X266000Y419400D02*
X250000Y435400D01*
X266000Y419400D02*
X266000Y37400D01*
D23*
X250000Y435400D02*
X227400Y458000D01*
X180000Y458000D01*
D20*
X180000Y458000D03*
M02*
