G04 EAGLE Gerber RS-274X export*
G75*
%MOMM*%
%FSLAX34Y34*%
%LPD*%
%INSilkscreen Bottom*%
%IPPOS*%
%AMOC8*
5,1,8,0,0,1.08239X$1,22.5*%
G01*
%ADD10C,0.152400*%
%ADD11C,0.127000*%


D10*
X71000Y549130D02*
X71000Y500870D01*
X71002Y500712D01*
X71008Y500553D01*
X71018Y500395D01*
X71032Y500238D01*
X71049Y500080D01*
X71071Y499924D01*
X71096Y499767D01*
X71126Y499612D01*
X71159Y499457D01*
X71196Y499303D01*
X71237Y499150D01*
X71282Y498998D01*
X71331Y498848D01*
X71383Y498698D01*
X71439Y498550D01*
X71499Y498403D01*
X71562Y498258D01*
X71629Y498115D01*
X71699Y497973D01*
X71773Y497833D01*
X71851Y497695D01*
X71932Y497559D01*
X72016Y497425D01*
X72103Y497293D01*
X72194Y497163D01*
X72288Y497036D01*
X72385Y496911D01*
X72486Y496788D01*
X72589Y496668D01*
X72695Y496551D01*
X72804Y496436D01*
X72916Y496324D01*
X73031Y496215D01*
X73148Y496109D01*
X73268Y496006D01*
X73391Y495905D01*
X73516Y495808D01*
X73643Y495714D01*
X73773Y495623D01*
X73905Y495536D01*
X74039Y495452D01*
X74175Y495371D01*
X74313Y495293D01*
X74453Y495219D01*
X74595Y495149D01*
X74738Y495082D01*
X74883Y495019D01*
X75030Y494959D01*
X75178Y494903D01*
X75328Y494851D01*
X75478Y494802D01*
X75630Y494757D01*
X75783Y494716D01*
X75937Y494679D01*
X76092Y494646D01*
X76247Y494616D01*
X76404Y494591D01*
X76560Y494569D01*
X76718Y494552D01*
X76875Y494538D01*
X77033Y494528D01*
X77192Y494522D01*
X77350Y494520D01*
X71000Y549130D02*
X71002Y549288D01*
X71008Y549447D01*
X71018Y549605D01*
X71032Y549762D01*
X71049Y549920D01*
X71071Y550076D01*
X71096Y550233D01*
X71126Y550388D01*
X71159Y550543D01*
X71196Y550697D01*
X71237Y550850D01*
X71282Y551002D01*
X71331Y551152D01*
X71383Y551302D01*
X71439Y551450D01*
X71499Y551597D01*
X71562Y551742D01*
X71629Y551885D01*
X71699Y552027D01*
X71773Y552167D01*
X71851Y552305D01*
X71932Y552441D01*
X72016Y552575D01*
X72103Y552707D01*
X72194Y552837D01*
X72288Y552964D01*
X72385Y553089D01*
X72486Y553212D01*
X72589Y553332D01*
X72695Y553449D01*
X72804Y553564D01*
X72916Y553676D01*
X73031Y553785D01*
X73148Y553891D01*
X73268Y553994D01*
X73391Y554095D01*
X73516Y554192D01*
X73643Y554286D01*
X73773Y554377D01*
X73905Y554464D01*
X74039Y554548D01*
X74175Y554629D01*
X74313Y554707D01*
X74453Y554781D01*
X74595Y554851D01*
X74738Y554918D01*
X74883Y554981D01*
X75030Y555041D01*
X75178Y555097D01*
X75328Y555149D01*
X75478Y555198D01*
X75630Y555243D01*
X75783Y555284D01*
X75937Y555321D01*
X76092Y555354D01*
X76247Y555384D01*
X76404Y555409D01*
X76560Y555431D01*
X76718Y555448D01*
X76875Y555462D01*
X77033Y555472D01*
X77192Y555478D01*
X77350Y555480D01*
X77350Y494520D02*
X572650Y494520D01*
X579000Y500870D02*
X579000Y549130D01*
X572650Y555480D02*
X77350Y555480D01*
X572650Y494520D02*
X572808Y494522D01*
X572967Y494528D01*
X573125Y494538D01*
X573282Y494552D01*
X573440Y494569D01*
X573596Y494591D01*
X573753Y494616D01*
X573908Y494646D01*
X574063Y494679D01*
X574217Y494716D01*
X574370Y494757D01*
X574522Y494802D01*
X574672Y494851D01*
X574822Y494903D01*
X574970Y494959D01*
X575117Y495019D01*
X575262Y495082D01*
X575405Y495149D01*
X575547Y495219D01*
X575687Y495293D01*
X575825Y495371D01*
X575961Y495452D01*
X576095Y495536D01*
X576227Y495623D01*
X576357Y495714D01*
X576484Y495808D01*
X576609Y495905D01*
X576732Y496006D01*
X576852Y496109D01*
X576969Y496215D01*
X577084Y496324D01*
X577196Y496436D01*
X577305Y496551D01*
X577411Y496668D01*
X577514Y496788D01*
X577615Y496911D01*
X577712Y497036D01*
X577806Y497163D01*
X577897Y497293D01*
X577984Y497425D01*
X578068Y497559D01*
X578149Y497695D01*
X578227Y497833D01*
X578301Y497973D01*
X578371Y498115D01*
X578438Y498258D01*
X578501Y498403D01*
X578561Y498550D01*
X578617Y498698D01*
X578669Y498848D01*
X578718Y498998D01*
X578763Y499150D01*
X578804Y499303D01*
X578841Y499457D01*
X578874Y499612D01*
X578904Y499767D01*
X578929Y499924D01*
X578951Y500080D01*
X578968Y500238D01*
X578982Y500395D01*
X578992Y500553D01*
X578998Y500712D01*
X579000Y500870D01*
X579000Y549130D02*
X578998Y549288D01*
X578992Y549447D01*
X578982Y549605D01*
X578968Y549762D01*
X578951Y549920D01*
X578929Y550076D01*
X578904Y550233D01*
X578874Y550388D01*
X578841Y550543D01*
X578804Y550697D01*
X578763Y550850D01*
X578718Y551002D01*
X578669Y551152D01*
X578617Y551302D01*
X578561Y551450D01*
X578501Y551597D01*
X578438Y551742D01*
X578371Y551885D01*
X578301Y552027D01*
X578227Y552167D01*
X578149Y552305D01*
X578068Y552441D01*
X577984Y552575D01*
X577897Y552707D01*
X577806Y552837D01*
X577712Y552964D01*
X577615Y553089D01*
X577514Y553212D01*
X577411Y553332D01*
X577305Y553449D01*
X577196Y553564D01*
X577084Y553676D01*
X576969Y553785D01*
X576852Y553891D01*
X576732Y553994D01*
X576609Y554095D01*
X576484Y554192D01*
X576357Y554286D01*
X576227Y554377D01*
X576095Y554464D01*
X575961Y554548D01*
X575825Y554629D01*
X575687Y554707D01*
X575547Y554781D01*
X575405Y554851D01*
X575262Y554918D01*
X575117Y554981D01*
X574970Y555041D01*
X574822Y555097D01*
X574672Y555149D01*
X574522Y555198D01*
X574370Y555243D01*
X574217Y555284D01*
X574063Y555321D01*
X573908Y555354D01*
X573753Y555384D01*
X573596Y555409D01*
X573440Y555431D01*
X573282Y555448D01*
X573125Y555462D01*
X572967Y555472D01*
X572808Y555478D01*
X572650Y555480D01*
D11*
X86875Y487535D02*
X83700Y490075D01*
X83700Y478645D01*
X86875Y478645D02*
X80525Y478645D01*
X573285Y571355D02*
X575825Y562465D01*
X569475Y562465D01*
X571380Y565005D02*
X571380Y559925D01*
X564395Y565640D02*
X564392Y565865D01*
X564384Y566090D01*
X564371Y566314D01*
X564352Y566538D01*
X564328Y566762D01*
X564299Y566985D01*
X564264Y567207D01*
X564224Y567428D01*
X564178Y567648D01*
X564128Y567867D01*
X564072Y568085D01*
X564011Y568302D01*
X563945Y568517D01*
X563874Y568730D01*
X563797Y568941D01*
X563716Y569151D01*
X563630Y569359D01*
X563539Y569564D01*
X563443Y569767D01*
X563443Y569768D02*
X563411Y569856D01*
X563375Y569943D01*
X563336Y570029D01*
X563293Y570113D01*
X563247Y570195D01*
X563198Y570275D01*
X563146Y570353D01*
X563090Y570429D01*
X563032Y570503D01*
X562970Y570574D01*
X562906Y570643D01*
X562839Y570709D01*
X562770Y570772D01*
X562698Y570833D01*
X562624Y570891D01*
X562547Y570945D01*
X562469Y570997D01*
X562388Y571045D01*
X562306Y571090D01*
X562221Y571132D01*
X562135Y571170D01*
X562048Y571205D01*
X561960Y571237D01*
X561870Y571264D01*
X561779Y571289D01*
X561687Y571309D01*
X561595Y571326D01*
X561501Y571339D01*
X561408Y571348D01*
X561314Y571354D01*
X561220Y571356D01*
X561126Y571354D01*
X561032Y571348D01*
X560939Y571339D01*
X560845Y571326D01*
X560753Y571309D01*
X560661Y571289D01*
X560570Y571264D01*
X560480Y571237D01*
X560392Y571205D01*
X560305Y571170D01*
X560219Y571132D01*
X560134Y571090D01*
X560052Y571045D01*
X559971Y570997D01*
X559893Y570945D01*
X559816Y570891D01*
X559742Y570833D01*
X559670Y570772D01*
X559601Y570709D01*
X559534Y570643D01*
X559470Y570574D01*
X559408Y570503D01*
X559350Y570429D01*
X559294Y570353D01*
X559242Y570275D01*
X559193Y570195D01*
X559147Y570113D01*
X559104Y570029D01*
X559065Y569943D01*
X559029Y569856D01*
X558997Y569768D01*
X558997Y569767D02*
X558901Y569564D01*
X558810Y569359D01*
X558724Y569151D01*
X558643Y568941D01*
X558566Y568730D01*
X558495Y568517D01*
X558429Y568302D01*
X558368Y568085D01*
X558312Y567867D01*
X558262Y567648D01*
X558216Y567428D01*
X558176Y567207D01*
X558141Y566985D01*
X558112Y566762D01*
X558088Y566538D01*
X558069Y566314D01*
X558056Y566090D01*
X558048Y565865D01*
X558045Y565640D01*
X564395Y565640D02*
X564392Y565415D01*
X564384Y565190D01*
X564371Y564966D01*
X564352Y564742D01*
X564328Y564518D01*
X564299Y564295D01*
X564264Y564073D01*
X564224Y563852D01*
X564178Y563632D01*
X564128Y563413D01*
X564072Y563195D01*
X564011Y562978D01*
X563945Y562763D01*
X563874Y562550D01*
X563797Y562339D01*
X563716Y562129D01*
X563630Y561921D01*
X563539Y561716D01*
X563443Y561513D01*
X563411Y561425D01*
X563375Y561338D01*
X563336Y561252D01*
X563293Y561168D01*
X563247Y561086D01*
X563198Y561006D01*
X563146Y560928D01*
X563090Y560852D01*
X563032Y560778D01*
X562970Y560707D01*
X562906Y560638D01*
X562839Y560572D01*
X562770Y560509D01*
X562698Y560448D01*
X562624Y560390D01*
X562547Y560336D01*
X562469Y560284D01*
X562388Y560236D01*
X562306Y560191D01*
X562221Y560149D01*
X562135Y560111D01*
X562048Y560076D01*
X561960Y560044D01*
X561870Y560017D01*
X561779Y559992D01*
X561687Y559972D01*
X561595Y559955D01*
X561501Y559942D01*
X561408Y559933D01*
X561314Y559927D01*
X561220Y559925D01*
X558997Y561513D02*
X558901Y561716D01*
X558810Y561921D01*
X558724Y562129D01*
X558643Y562339D01*
X558566Y562550D01*
X558495Y562763D01*
X558429Y562978D01*
X558368Y563195D01*
X558312Y563413D01*
X558262Y563632D01*
X558216Y563852D01*
X558176Y564073D01*
X558141Y564295D01*
X558112Y564518D01*
X558088Y564742D01*
X558069Y564966D01*
X558056Y565190D01*
X558048Y565415D01*
X558045Y565640D01*
X558997Y561513D02*
X559029Y561425D01*
X559065Y561338D01*
X559104Y561252D01*
X559147Y561168D01*
X559193Y561086D01*
X559242Y561006D01*
X559294Y560928D01*
X559350Y560852D01*
X559408Y560778D01*
X559470Y560707D01*
X559534Y560638D01*
X559601Y560572D01*
X559670Y560509D01*
X559742Y560448D01*
X559816Y560390D01*
X559893Y560336D01*
X559971Y560284D01*
X560052Y560236D01*
X560134Y560191D01*
X560219Y560149D01*
X560305Y560111D01*
X560392Y560076D01*
X560480Y560044D01*
X560570Y560017D01*
X560661Y559992D01*
X560753Y559972D01*
X560845Y559955D01*
X560939Y559942D01*
X561032Y559933D01*
X561126Y559927D01*
X561220Y559925D01*
X563760Y562465D02*
X558680Y568815D01*
M02*
