G04 EAGLE Gerber RS-274X export*
G75*
%MOMM*%
%FSLAX34Y34*%
%LPD*%
%INSoldermask Top*%
%IPPOS*%
%AMOC8*
5,1,8,0,0,1.08239X$1,22.5*%
G01*
%ADD10R,2.303200X1.603200*%
%ADD11R,1.503200X1.703200*%
%ADD12R,1.803200X2.006200*%
%ADD13C,1.625600*%
%ADD14P,1.759533X8X22.500000*%
%ADD15C,1.727200*%
%ADD16R,1.511200X1.511200*%
%ADD17C,1.511200*%
%ADD18C,1.879600*%
%ADD19P,1.951982X8X292.500000*%
%ADD20C,1.803400*%
%ADD21R,1.803200X2.903200*%
%ADD22R,2.006200X1.803200*%
%ADD23R,1.703200X1.503200*%
%ADD24R,2.203200X5.503200*%
%ADD25C,3.053200*%
%ADD26R,2.603200X2.603200*%
%ADD27R,1.803400X1.371600*%
%ADD28R,1.828800X0.152400*%
%ADD29P,5.631892X8X22.500000*%


D10*
X24500Y87500D03*
X24500Y132500D03*
X115500Y87500D03*
X115500Y132500D03*
D11*
X189500Y85000D03*
X170500Y85000D03*
X189500Y110000D03*
X170500Y110000D03*
D12*
X144220Y110000D03*
X115780Y110000D03*
D13*
X83700Y512300D03*
D14*
X83700Y537700D03*
X109100Y512300D03*
X109100Y537700D03*
X134500Y512300D03*
X134500Y537700D03*
X159900Y512300D03*
X159900Y537700D03*
X185300Y512300D03*
X185300Y537700D03*
X210700Y512300D03*
X210700Y537700D03*
X236100Y512300D03*
X236100Y537700D03*
X261500Y512300D03*
X261500Y537700D03*
X286900Y512300D03*
X286900Y537700D03*
X312300Y512300D03*
X312300Y537700D03*
X337700Y512300D03*
X337700Y537700D03*
X363100Y512300D03*
X363100Y537700D03*
X388500Y512300D03*
X388500Y537700D03*
X413900Y512300D03*
X413900Y537700D03*
X439300Y512300D03*
X439300Y537700D03*
X464700Y512300D03*
X464700Y537700D03*
X490100Y512300D03*
X490100Y537700D03*
X515500Y512300D03*
X515500Y537700D03*
X540900Y512300D03*
X540900Y537700D03*
X566300Y512300D03*
X566300Y537700D03*
D15*
X317500Y33020D02*
X317500Y17780D01*
X342900Y17780D02*
X342900Y33020D01*
X368300Y33020D02*
X368300Y17780D01*
X393700Y17780D02*
X393700Y33020D01*
X457200Y33020D02*
X457200Y17780D01*
X482600Y17780D02*
X482600Y33020D01*
X508000Y33020D02*
X508000Y17780D01*
X533400Y17780D02*
X533400Y33020D01*
D16*
X152400Y25400D03*
D17*
X177800Y25400D03*
X203200Y25400D03*
X228600Y25400D03*
X254000Y25400D03*
D15*
X381000Y68580D02*
X381000Y83820D01*
X406400Y83820D02*
X406400Y68580D01*
X431800Y68580D02*
X431800Y83820D01*
X457200Y83820D02*
X457200Y68580D01*
X482600Y68580D02*
X482600Y83820D01*
X508000Y83820D02*
X508000Y68580D01*
X533400Y68580D02*
X533400Y83820D01*
X317500Y83820D02*
X317500Y68580D01*
X342900Y68580D02*
X342900Y83820D01*
D11*
X313000Y110000D03*
X330000Y110000D03*
X347000Y110000D03*
D15*
X614680Y266700D02*
X629920Y266700D01*
X629920Y292100D02*
X614680Y292100D01*
X614680Y431800D02*
X629920Y431800D01*
X629920Y457200D02*
X614680Y457200D01*
D18*
X250000Y224600D03*
X250000Y250000D03*
X250000Y275400D03*
X250000Y384600D03*
X250000Y410000D03*
X250000Y435400D03*
D19*
X340000Y242220D03*
D20*
X340000Y277780D03*
D19*
X340000Y402220D03*
D20*
X340000Y437780D03*
D21*
X326000Y165000D03*
X354000Y165000D03*
X326000Y360000D03*
X354000Y360000D03*
X326000Y200000D03*
X354000Y200000D03*
X326000Y325000D03*
X354000Y325000D03*
D22*
X150000Y260780D03*
X150000Y289220D03*
X150000Y420780D03*
X150000Y449220D03*
D23*
X170000Y265500D03*
X170000Y284500D03*
X170000Y425500D03*
X170000Y444500D03*
D24*
X497000Y280000D03*
X563000Y280000D03*
X497000Y440000D03*
X563000Y440000D03*
D25*
X115300Y203000D03*
X115300Y250000D03*
X115300Y297000D03*
X20000Y183950D03*
X20000Y316050D03*
X115300Y363000D03*
X115300Y410000D03*
X115300Y457000D03*
X20000Y343950D03*
X20000Y476050D03*
D26*
X428000Y280000D03*
X472000Y280000D03*
X428000Y440000D03*
X472000Y440000D03*
D27*
X140000Y232620D03*
X140000Y217380D03*
D28*
X140000Y225000D03*
D27*
X140000Y392620D03*
X140000Y377380D03*
D28*
X140000Y385000D03*
D15*
X614680Y203200D02*
X629920Y203200D01*
X629920Y228600D02*
X614680Y228600D01*
X614680Y368300D02*
X629920Y368300D01*
X629920Y393700D02*
X614680Y393700D01*
D29*
X35000Y525000D03*
X615000Y525000D03*
X615000Y35000D03*
X35000Y35000D03*
M02*
