G04 EAGLE Gerber RS-274X export*
G75*
%MOMM*%
%FSLAX34Y34*%
%LPD*%
%INSolderpaste Top*%
%IPPOS*%
%AMOC8*
5,1,8,0,0,1.08239X$1,22.5*%
G01*
%ADD10R,2.100000X1.400000*%
%ADD11R,1.300000X1.500000*%
%ADD12R,1.600000X1.803000*%
%ADD13R,1.600000X2.700000*%
%ADD14R,1.803000X1.600000*%
%ADD15R,1.500000X1.300000*%
%ADD16R,2.000000X5.300000*%
%ADD17R,2.400000X2.400000*%
%ADD18R,1.600200X1.168400*%


D10*
X24500Y87500D03*
X24500Y132500D03*
X115500Y87500D03*
X115500Y132500D03*
D11*
X189500Y85000D03*
X170500Y85000D03*
X189500Y110000D03*
X170500Y110000D03*
D12*
X144220Y110000D03*
X115780Y110000D03*
D11*
X313000Y110000D03*
X330000Y110000D03*
X347000Y110000D03*
D13*
X326000Y165000D03*
X354000Y165000D03*
X326000Y360000D03*
X354000Y360000D03*
X326000Y200000D03*
X354000Y200000D03*
X326000Y325000D03*
X354000Y325000D03*
D14*
X150000Y260780D03*
X150000Y289220D03*
X150000Y420780D03*
X150000Y449220D03*
D15*
X170000Y265500D03*
X170000Y284500D03*
X170000Y425500D03*
X170000Y444500D03*
D16*
X497000Y280000D03*
X563000Y280000D03*
X497000Y440000D03*
X563000Y440000D03*
D17*
X428000Y280000D03*
X472000Y280000D03*
X428000Y440000D03*
X472000Y440000D03*
D18*
X140000Y232620D03*
X140000Y217380D03*
X140000Y392620D03*
X140000Y377380D03*
M02*
